<?xml version="1.0" encoding="UTF-8"?>
<svg width="19px" height="18px" viewBox="0 0 19 18" version="1.1" xmlns="http://www.w3.org/2000/svg" xmlns:xlink="http://www.w3.org/1999/xlink">
    <!-- Generator: Sketch 52.5 (67469) - http://www.bohemiancoding.com/sketch -->
    <title>cart-icon</title>
    <desc>Created with Sketch.</desc>
    <g id="Pages" stroke="none" stroke-width="1" fill="none" fill-rule="evenodd">
        <g id="dto01_main-copy" transform="translate(-1436.000000, -95.000000)" fill="#FFFFFF">
            <g id="Header" transform="translate(0.000000, 7.000000)">
                <g id="Cart" transform="translate(1436.000000, 88.000000)">
                    <g id="cart">
                        <g id="Path">
                            <path d="M8.5,15 C7.67289969,15 7,15.6728997 7,16.5 C7,17.3271003 7.67289969,18 8.5,18 C9.32710031,18 10,17.3271003 10,16.5 C9.99996669,15.6728997 9.327067,15 8.5,15 Z" fill-rule="nonzero"></path>
                            <path d="M14.5,15 C13.6728997,15 13,15.6728997 13,16.5 C13,17.3271003 13.6728997,18 14.5,18 C15.3271003,18 16,17.3271003 16,16.5 C15.9999667,15.6728997 15.327067,15 14.5,15 Z" fill-rule="nonzero"></path>
                            <path d="M18.7900279,3.49166924 C18.6121254,3.26497855 18.3485002,3.1349897 18.0668028,3.1349897 L3.5357262,3.1349897 L3.24226506,1.65599093 C3.18099743,1.34746968 2.97830589,1.08841663 2.69994827,0.962935398 L0.652362856,0.0402226268 C0.415975973,-0.0663805564 0.141255078,0.0462327809 0.0387218028,0.291570356 C-0.0639228001,0.536984984 0.0445479787,0.822236148 0.280823534,0.928685224 L2.32844606,1.85143652 L4.58566248,13.2268476 C4.6745766,13.6748352 5.05888156,14 5.49948148,14 L16.6755713,14 C16.9332219,14 17.1420736,13.7831721 17.1420736,13.5156817 C17.1420736,13.2481914 16.9332219,13.0313635 16.6755713,13.0313635 L5.49951859,13.0313635 L5.22494613,11.6476411 L16.761962,11.6476411 C17.2025248,11.6476411 17.5868669,11.3224763 17.6757439,10.8744887 L18.9806218,4.29895623 C19.0374362,4.01262632 18.9679674,3.7183214 18.7900279,3.49166924 Z" fill-rule="nonzero"></path>
                        </g>
                    </g>
                </g>
            </g>
        </g>
    </g>
</svg>