<?xml version="1.0" encoding="UTF-8"?>
<svg width="39px" height="50px" viewBox="0 0 39 50" version="1.1" xmlns="http://www.w3.org/2000/svg" xmlns:xlink="http://www.w3.org/1999/xlink">
    <!-- Generator: Sketch 52.5 (67469) - http://www.bohemiancoding.com/sketch -->
    <title>plastic-bag</title>
    <desc>Created with Sketch.</desc>
    <g id="Pages" stroke="none" stroke-width="1" fill="none" fill-rule="evenodd">
        <g id="dto01_main-copy" transform="translate(-1010.000000, -886.000000)" fill="#C81C1C">
            <g id="Category" transform="translate(375.000000, 548.000000)">
                <g id="11" transform="translate(600.000000, 322.000000)">
                    <g id="plastic-bag" transform="translate(35.000000, 16.000000)">
                        <path d="M37.9270016,28.5001503 C37.6739394,28.5001503 37.4253893,28.6031801 37.2464033,28.7821662 C37.0674171,28.9611523 36.9643874,29.2093263 36.9643874,29.4627645 C36.9643874,29.7158269 37.0674171,29.9643768 37.2464033,30.1433629 C37.4253893,30.322349 37.6739394,30.4253788 37.9270016,30.4253788 C38.1800639,30.4253788 38.4286139,30.322349 38.6075999,30.1433629 C38.7865861,29.9643768 38.8896159,29.7158269 38.8896159,29.4627645 C38.8896159,29.2093263 38.7865861,28.9611523 38.6075999,28.7821662 C38.4286139,28.6031801 38.1800639,28.5001503 37.9270016,28.5001503 Z" id="Path"></path>
                        <path d="M37.9270016,0 L0.962614254,0 C0.430920239,0 0,0.430920239 0,0.962614254 L0,46.3980071 C0,47.9904568 1.29539299,49.2858498 2.88784276,49.2858498 L36.0017731,49.2858498 C37.5942229,49.2858498 38.8896159,47.9904568 38.8896159,46.3980071 L38.8896159,33.3064532 C38.8896159,32.7747592 38.4586956,32.3438389 37.9270016,32.3438389 C37.3953076,32.3438389 36.9643874,32.7747592 36.9643874,33.3064532 L36.9643874,46.3980071 C36.9643874,46.928949 36.532715,47.3606213 36.0017731,47.3606213 L5.21202973,47.3606213 L29.1878931,23.384758 C29.5635383,23.0087369 29.5635383,22.3992064 29.1878931,22.0231852 C28.8118719,21.64754 28.2023415,21.64754 27.8263203,22.0231852 L2.55092777,47.2985778 C2.18618726,47.1617061 1.92522851,46.8101263 1.92522851,46.3980071 L1.92522851,1.92522851 L36.9643874,1.92522851 L36.9643874,25.7018006 C36.9643874,26.2334946 37.3953076,26.6644148 37.9270016,26.6644148 C38.4586956,26.6644148 38.8896159,26.2334946 38.8896159,25.7018006 L38.8896159,0.962614254 C38.8896159,0.430920239 38.4586956,0 37.9270016,0 Z" id="Path"></path>
                        <path d="M24.2578792,5.19811697 L14.6317367,5.19811697 C12.8272109,5.19811697 11.3588482,6.66647971 11.3588482,8.47100544 C11.3588482,10.2755312 12.8272109,11.7438939 14.6317367,11.7438939 L24.2578792,11.7438939 C26.0624049,11.7438939 27.5307677,10.2755312 27.5307677,8.47100544 C27.5307677,6.66647971 26.0624049,5.19811697 24.2578792,5.19811697 Z M24.2578792,9.81866539 L14.6317367,9.81866539 C13.8887188,9.81866539 13.2840767,9.21402332 13.2840767,8.47100544 C13.2840767,7.72798756 13.8887188,7.12334548 14.6317367,7.12334548 L24.2578792,7.12334548 C25.0008971,7.12334548 25.6055392,7.72798756 25.6055392,8.47100544 C25.6055392,9.21402332 25.0008971,9.81866539 24.2578792,9.81866539 Z" id="Shape" fill-rule="nonzero"></path>
                        <path d="M25.7206016,13.6691224 L9.77655102,29.613173 C9.40052983,29.9891942 9.40052983,30.5987246 9.77655102,30.9747458 C9.96456162,31.1623803 10.2108555,31.2563857 10.4571493,31.2563857 C10.7034432,31.2563857 10.9501131,31.1623803 11.1377477,30.9747458 L27.0817984,15.0306951 C27.4578196,14.6546739 27.4578196,14.0451436 27.0817984,13.6691224 C26.7061532,13.2931012 26.0966228,13.2931012 25.7206016,13.6691224 Z" id="Path"></path>
                        <path d="M7.28879481,32.1001772 C7.10980872,32.2791633 7.00677886,32.5277133 7.00677886,32.7819036 C7.00677886,33.0349659 7.10980872,33.2823878 7.28879481,33.462502 C7.4677809,33.6414881 7.71633088,33.7445179 7.96939312,33.7445179 C8.22283145,33.7445179 8.47100544,33.6414881 8.64999153,33.462502 C8.8301057,33.2823878 8.93200737,33.0349659 8.93200737,32.7819036 C8.93200737,32.5277133 8.8301057,32.2791633 8.64999153,32.1001772 C8.47100544,31.9211911 8.22283145,31.8192894 7.96939312,31.8192894 C7.71633088,31.8192894 7.4677809,31.9211911 7.28879481,32.1001772 Z" id="Path"></path>
                    </g>
                </g>
            </g>
        </g>
    </g>
</svg>