<?xml version="1.0" encoding="UTF-8"?>
<svg width="50px" height="52px" viewBox="0 0 50 52" version="1.1" xmlns="http://www.w3.org/2000/svg" xmlns:xlink="http://www.w3.org/1999/xlink">
    <!-- Generator: Sketch 52.5 (67469) - http://www.bohemiancoding.com/sketch -->
    <title>mixer</title>
    <desc>Created with Sketch.</desc>
    <g id="Pages" stroke="none" stroke-width="1" fill="none" fill-rule="evenodd">
        <g id="dto01_main-copy" transform="translate(-700.000000, -884.000000)" fill="#C81C1C">
            <g id="Category" transform="translate(375.000000, 548.000000)">
                <g id="10" transform="translate(300.000000, 322.000000)">
                    <g id="mixer" transform="translate(25.000000, 14.000000)">
                        <path d="M46.9909751,22.2139155 L45.2822124,22.2139155 C45.2822124,21.7420867 44.8996598,21.3595342 44.427831,21.3595342 L37.9557254,21.3595342 C36.7884601,20.1551401 36.0688274,18.5873837 35.9173916,16.9165842 C36.9198714,16.546547 37.587774,15.5932942 37.5927801,14.5244832 L37.5927801,12.8157205 L39.3015428,12.8157205 C39.7733716,12.8157205 40.1559242,12.4331679 40.1559242,11.9613391 L40.1559242,9.39819503 L41.8646869,9.39819503 C43.2801732,9.39819503 44.427831,8.25053722 44.427831,6.83505093 C44.427831,5.41956464 43.2801732,4.27190683 41.8646869,4.27190683 L39.652807,4.27190683 C38.607358,1.6929099 36.1038704,0.00375460027 33.3208733,0 L8.54381366,0 C4.7708522,0.00417178401 1.71293446,3.06208947 1.70876273,6.83505093 L1.70876273,11.9613391 C1.70876273,12.4331679 2.0913153,12.8157205 2.5631441,12.8157205 L4.07040964,12.8157205 C5.44250948,12.8107143 6.69779926,13.5866662 7.30771403,14.8156737 C7.55760392,15.3187909 7.68859799,15.8728038 7.68943229,16.4347431 L7.68943229,28.776549 C7.69151816,32.2495591 7.08410641,35.6962871 5.89514802,38.9598737 L5.52636231,39.9765374 C4.84135532,41.8509201 3.39082605,43.3452531 1.53771964,44.0861619 C0.605325887,44.4566163 -0.00500614082,45.3606419 1.13820899e-15,46.363956 L1.13820899e-15,48.6997379 C1.13820899e-15,50.1152242 1.14765781,51.262882 2.5631441,51.262882 L40.1559242,51.262882 C41.5714105,51.262882 42.7190683,50.1152242 42.7190683,48.6997379 L42.7190683,46.9909751 C42.7190683,45.5754888 41.5714105,44.427831 40.1559242,44.427831 L37.5927801,44.427831 L37.5927801,41.5230178 C41.8984784,40.4053969 44.9922734,36.6391102 45.2521756,32.1982462 L47.9429762,31.122343 C48.9166706,30.7364531 49.5557879,29.794047 49.5541192,28.7465121 L49.5541192,24.7770596 C49.5541192,23.3615733 48.4064614,22.2139155 46.9909751,22.2139155 Z M40.1559242,6.83505093 L40.1559242,5.98066956 L41.8646869,5.98066956 C42.3365157,5.98066956 42.7190683,6.36322213 42.7190683,6.83505093 C42.7190683,7.30687973 42.3365157,7.68943229 41.8646869,7.68943229 L40.1559242,7.68943229 L40.1559242,6.83505093 Z M40.1559242,46.1365938 C40.627753,46.1365938 41.0103056,46.5191463 41.0103056,46.9909751 L41.0103056,48.6997379 C41.0103056,49.1715667 40.627753,49.5541192 40.1559242,49.5541192 L2.5631441,49.5541192 C2.0913153,49.5541192 1.70876273,49.1715667 1.70876273,48.6997379 L1.70876273,46.363956 C1.70709402,46.0598329 1.89232123,45.7861639 2.17516824,45.6743601 C4.47924447,44.7507272 6.28145516,42.8901114 7.13083039,40.557667 L7.49961609,39.5414204 C8.75699185,36.0917722 9.39944659,32.4481361 9.39819503,28.776549 L9.39819503,16.4347431 C9.39694346,15.6078955 9.20462425,14.7923117 8.83583854,14.0518201 C7.93890503,12.241683 6.09038751,11.0994486 4.07040964,11.1069578 L3.41752546,11.1069578 L3.41752546,6.83505093 C3.42044574,4.00491265 5.71367539,1.71168301 8.54381366,1.70876273 L33.3208733,1.70876273 C36.1510115,1.71168301 38.4442412,4.00491265 38.4471615,6.83505093 L38.4471615,11.1069578 L21.5610313,11.1069578 C19.5406363,11.0998658 17.6921188,12.2425173 16.7956024,14.0530717 C16.4268167,14.792729 16.2344975,15.6083128 16.233246,16.4347431 L16.233246,38.5718978 C16.2424239,40.9923669 17.3992596,43.2651548 19.3508201,44.6969111 C20.7045641,45.6610104 22.331977,46.1657963 23.9935985,46.1365938 L40.1559242,46.1365938 Z M35.029636,15.3788646 L29.9033478,15.3788646 C29.431519,15.3788646 29.0489664,14.996312 29.0489664,14.5244832 L29.0489664,12.8157205 L35.8840174,12.8157205 L35.8840174,14.5244832 C35.8840174,14.996312 35.5014648,15.3788646 35.029636,15.3788646 Z M35.7576123,21.3595342 L33.3208733,21.3595342 L33.3208733,17.0876273 L34.2169725,17.0876273 C34.3571444,18.6199236 34.8873782,20.0904775 35.7576123,21.3595342 Z M31.6121105,17.0876273 L31.6121105,21.3595342 L29.1753715,21.3595342 C30.0443541,20.0904775 30.5741707,18.6195064 30.7135083,17.0876273 L31.6121105,17.0876273 Z M28.1945851,41.7099137 L28.1945851,44.427831 L23.9935985,44.427831 C22.6957566,44.4549476 21.4229453,44.0657202 20.3624777,43.3173021 C18.8393595,42.2167855 17.9386713,40.4508694 17.9420087,38.5718978 L17.9420087,16.4347431 C17.942843,15.873221 18.0734199,15.3196252 18.3241441,14.8165081 C18.9332246,13.5870833 20.1889315,12.8107143 21.5610313,12.8157205 L27.3402037,12.8157205 L27.3402037,14.5244832 C27.3452099,15.5932942 28.0131124,16.546547 29.0155922,16.9165842 C28.8641564,18.5873837 28.1445237,20.1551401 26.9772584,21.3595342 L20.5051528,21.3595342 C20.033324,21.3595342 19.6507714,21.7420867 19.6507714,22.2139155 L19.6507714,31.6121105 C19.6595321,36.6094906 23.267291,40.8738882 28.1945851,41.7099137 Z M29.9033478,44.427831 L29.9033478,41.8646869 L35.8840174,41.8646869 L35.8840174,44.427831 L29.9033478,44.427831 Z M43.5734497,31.6121105 C43.5684435,36.3287295 39.746255,40.1509181 35.029636,40.1559242 L29.9033478,40.1559242 C27.219222,40.1534211 24.6927896,38.8872847 23.0845669,36.7383987 L24.7770596,36.7383987 L24.7770596,35.029636 L22.0779153,35.029636 C21.8355347,34.4810464 21.6528106,33.9082605 21.5322461,33.3208733 L23.0682969,33.3208733 L23.0682969,31.6121105 L21.3595342,31.6121105 L21.3595342,29.9033478 L23.0682969,29.9033478 L23.0682969,28.1945851 L21.3595342,28.1945851 L21.3595342,26.4858223 L23.0682969,26.4858223 L23.0682969,24.7770596 L21.3595342,24.7770596 L21.3595342,23.0682969 L43.5734497,23.0682969 L43.5734497,31.6121105 Z M47.8453565,28.7465121 C47.8466081,29.0961076 47.6334299,29.4110773 47.3080307,29.5395682 L45.2822124,30.3501459 L45.2822124,23.9226782 L46.9909751,23.9226782 C47.4628039,23.9226782 47.8453565,24.3052308 47.8453565,24.7770596 L47.8453565,28.7465121 Z" id="Shape" fill-rule="nonzero"></path>
                        <polygon id="Path" points="5.1262882 7.68943229 36.7383987 7.68943229 36.7383987 9.39819503 5.1262882 9.39819503"></polygon>
                        <path d="M11.5341484,39.3015428 C9.88253912,39.3015428 8.54381366,40.6402683 8.54381366,42.2918776 C8.54381366,43.9434869 9.88253912,45.2822124 11.5341484,45.2822124 C13.1857578,45.2822124 14.5244832,43.9434869 14.5244832,42.2918776 C14.5244832,40.6402683 13.1857578,39.3015428 11.5341484,39.3015428 Z M11.5341484,43.5734497 C10.8261967,43.5734497 10.2525764,42.9998293 10.2525764,42.2918776 C10.2525764,41.5839259 10.8261967,41.0103056 11.5341484,41.0103056 C12.2421002,41.0103056 12.8157205,41.5839259 12.8157205,42.2918776 C12.8157205,42.9998293 12.2421002,43.5734497 11.5341484,43.5734497 Z" id="Shape" fill-rule="nonzero"></path>
                        <polygon id="Path" points="21.3595342 6.83505093 23.0682969 6.83505093 23.0682969 5.1262882 35.029636 5.1262882 35.029636 3.41752546 17.9420087 3.41752546 17.9420087 5.1262882 21.3595342 5.1262882"></polygon>
                    </g>
                </g>
            </g>
        </g>
    </g>
</svg>