<?xml version="1.0" encoding="UTF-8"?>
<svg width="52px" height="52px" viewBox="0 0 52 52" version="1.1" xmlns="http://www.w3.org/2000/svg" xmlns:xlink="http://www.w3.org/1999/xlink">
    <!-- Generator: Sketch 52.5 (67469) - http://www.bohemiancoding.com/sketch -->
    <title>cash-machine</title>
    <desc>Created with Sketch.</desc>
    <g id="Pages" stroke="none" stroke-width="1" fill="none" fill-rule="evenodd">
        <g id="dto01_main-copy" transform="translate(-1298.000000, -754.000000)" fill="#C81C1C">
            <g id="Category" transform="translate(375.000000, 548.000000)">
                <g id="08" transform="translate(900.000000, 192.000000)">
                    <g id="cash-machine" transform="translate(23.000000, 14.000000)">
                        <path d="M26.6971758,34.4479786 L28.4196101,34.4479786 C28.8958606,34.4479786 29.2807768,34.0621541 29.2807768,33.5868119 C29.2807768,33.1114697 28.8958606,32.7256453 28.4196101,32.7256453 L26.6971758,32.7256453 C26.2209253,32.7256453 25.8360092,33.1114697 25.8360092,33.5868119 C25.8360092,34.0621541 26.2209253,34.4479786 26.6971758,34.4479786 Z" id="Path"></path>
                        <path d="M27.5584434,46.5048165 C27.5584434,45.5549395 26.7859871,44.7823823 25.8360092,44.7823823 C24.8861321,44.7823823 24.1135749,45.5548386 24.1135749,46.5048165 C24.1135749,47.4546935 24.8860312,48.2272508 25.8360092,48.2272508 C26.7858862,48.2272508 27.5584434,47.4546935 27.5584434,46.5048165 Z" id="Path"></path>
                        <path d="M50.8108517,39.6151804 L30.1420443,39.6151804 C29.6657938,39.6151804 29.2808777,40.0010049 29.2808777,40.4763471 L29.2808777,41.3375138 L22.3912416,41.3375138 L22.3912416,40.4763471 C22.3912416,40.0010049 22.0063254,39.6151804 21.5300749,39.6151804 L4.30603517,39.6151804 C3.82978467,39.6151804 3.4448685,40.0010049 3.4448685,40.4763471 C3.4448685,40.9516893 3.82978467,41.3375138 4.30603517,41.3375138 L20.6688073,41.3375138 C20.6688073,42.2873908 21.4412636,43.059948 22.3912416,43.059948 L29.2808777,43.059948 C30.2307547,43.059948 31.0033119,42.2874917 31.0033119,41.3375138 L49.949685,41.3375138 L49.949685,47.3658823 C49.949685,48.7902941 48.790496,49.9494832 47.3660841,49.9494832 L4.30603517,49.9494832 C2.88162332,49.9494832 1.72243425,48.7902941 1.72243425,47.3658823 L1.72243425,16.3626712 C1.72243425,14.7935374 2.7369013,13.7790703 4.30603517,13.7790703 L7.75080275,13.7790703 C8.22705325,13.7790703 8.61196942,13.3932459 8.61196942,12.9179037 C8.61196942,12.4425615 8.22705325,12.056737 7.75080275,12.056737 L4.30603517,12.056737 C1.77067493,12.0568379 0,13.8274119 0,16.3627722 L0,47.3659832 C0,49.740373 1.93164537,51.6720183 4.30603517,51.6720183 L47.3660841,51.6720183 C49.740373,51.6720183 51.6720183,49.740373 51.6720183,47.3659832 L51.6720183,40.4763471 C51.6720183,40.0010049 51.2871022,39.6151804 50.8108517,39.6151804 Z" id="Path"></path>
                        <path d="M43.9212156,29.2807768 L42.1987813,29.2807768 C41.7225308,29.2807768 41.3376147,29.6666012 41.3376147,30.1419434 C41.3376147,30.6172856 41.7225308,31.0031101 42.1987813,31.0031101 L43.9212156,31.0031101 C44.3974661,31.0031101 44.7823823,30.6172856 44.7823823,30.1419434 C44.7823823,29.6666012 44.3974661,29.2807768 43.9212156,29.2807768 Z" id="Path"></path>
                        <path d="M43.9212156,25.8360092 L42.1987813,25.8360092 C41.7225308,25.8360092 41.3376147,26.2218336 41.3376147,26.6971758 C41.3376147,27.172518 41.7225308,27.5583425 42.1987813,27.5583425 L43.9212156,27.5583425 C44.3974661,27.5583425 44.7823823,27.172518 44.7823823,26.6971758 C44.7823823,26.2218336 44.3974661,25.8360092 43.9212156,25.8360092 Z" id="Path"></path>
                        <path d="M43.9212156,32.7256453 L42.1987813,32.7256453 C41.7225308,32.7256453 41.3376147,33.1114697 41.3376147,33.5868119 C41.3376147,34.0621541 41.7225308,34.4479786 42.1987813,34.4479786 L43.9212156,34.4479786 C44.3974661,34.4479786 44.7823823,34.0621541 44.7823823,33.5868119 C44.7823823,33.1114697 44.3974661,32.7256453 43.9212156,32.7256453 Z" id="Path"></path>
                        <path d="M11.1955703,27.5584434 L14.6403379,27.5584434 C15.1165884,27.5584434 15.5015046,27.172619 15.5015046,26.6972768 C15.5015046,26.2219346 15.1165884,25.8361101 14.6403379,25.8361101 L11.1955703,25.8361101 C10.7193198,25.8361101 10.3344037,26.2219346 10.3344037,26.6972768 C10.3344037,27.172619 10.7193198,27.5584434 11.1955703,27.5584434 Z" id="Path"></path>
                        <path d="M18.0852064,22.3912416 L7.75080275,22.3912416 C7.27455226,22.3912416 6.88963609,22.7770661 6.88963609,23.2524083 L6.88963609,32.7256453 L6.02846942,32.7256453 C5.55221892,32.7256453 5.16730276,33.1114697 5.16730276,33.5868119 C5.16730276,34.0621541 5.55221892,34.4479786 6.02846942,34.4479786 L19.8076407,34.4479786 C20.2838912,34.4479786 20.6688073,34.0621541 20.6688073,33.5868119 C20.6688073,33.1114697 20.2838912,32.7256453 19.8076407,32.7256453 L18.946474,32.7256453 L18.946474,23.2524083 C18.9463731,22.7770661 18.5614569,22.3912416 18.0852064,22.3912416 Z M17.2240398,32.7256453 L8.61196942,32.7256453 L8.61196942,24.1136758 L17.2239388,24.1136758 L17.2239388,32.7256453 L17.2240398,32.7256453 Z" id="Shape" fill-rule="nonzero"></path>
                        <path d="M6.0283685,10.3344037 L10.3344037,10.3344037 L10.3344037,16.3627722 C10.3344037,16.8381144 10.7193198,17.2239388 11.1955703,17.2239388 C11.6718208,17.2239388 12.056737,16.8381144 12.056737,16.3627722 L12.056737,9.473237 C12.056737,8.9978948 11.6718208,8.61207034 11.1955703,8.61207034 L6.88963609,8.61207034 L6.88963609,1.72243425 L18.946474,1.72243425 L18.946474,8.61207034 L14.6404388,8.61207034 C14.1641883,8.61207034 13.7792722,8.9978948 13.7792722,9.473237 L13.7792722,16.3628731 C13.7792722,16.8382153 14.1641883,17.2240398 14.6404388,17.2240398 C15.1166893,17.2240398 15.5016055,16.8382153 15.5016055,16.3628731 L15.5016055,10.3344037 L19.8076407,10.3344037 C20.2838912,10.3344037 20.6688073,9.9485792 20.6688073,9.473237 L20.6688073,0.861166665 C20.6688073,0.385824465 20.2838912,0 19.8076407,0 L6.0283685,0 C5.552118,0 5.16720183,0.385824465 5.16720183,0.861166665 L5.16720183,9.47313608 C5.16720183,9.9485792 5.552118,10.3344037 6.0283685,10.3344037 Z" id="Path"></path>
                        <path d="M11.1955703,31.003211 L14.6403379,31.003211 C15.1165884,31.003211 15.5015046,30.6173865 15.5015046,30.1420443 C15.5015046,29.6667021 15.1165884,29.2808777 14.6403379,29.2808777 L11.1955703,29.2808777 C10.7193198,29.2808777 10.3344037,29.6667021 10.3344037,30.1420443 C10.3344037,30.6173865 10.7193198,31.003211 11.1955703,31.003211 Z" id="Path"></path>
                        <path d="M8.61196942,4.30603517 L8.61196942,6.02846942 C8.61196942,6.50381162 8.99688559,6.88963609 9.47313608,6.88963609 C9.94938658,6.88963609 10.3343027,6.50381162 10.3343027,6.02846942 L10.3343027,4.30603517 C10.3343027,3.83069297 9.94938658,3.4448685 9.47313608,3.4448685 C8.99698651,3.44476758 8.61196942,3.83059205 8.61196942,4.30603517 Z" id="Path"></path>
                        <path d="M33.5868119,32.7256453 L31.8643777,32.7256453 C31.3881272,32.7256453 31.003211,33.1114697 31.003211,33.5868119 C31.003211,34.0621541 31.3881272,34.4479786 31.8643777,34.4479786 L33.5868119,34.4479786 C34.0630624,34.4479786 34.4479786,34.0621541 34.4479786,33.5868119 C34.4479786,33.1114697 34.0630624,32.7256453 33.5868119,32.7256453 Z" id="Path"></path>
                        <path d="M33.5868119,25.8360092 L31.8643777,25.8360092 C31.3881272,25.8360092 31.003211,26.2218336 31.003211,26.6971758 C31.003211,27.172518 31.3881272,27.5583425 31.8643777,27.5583425 L33.5868119,27.5583425 C34.0630624,27.5583425 34.4479786,27.172518 34.4479786,26.6971758 C34.4479786,26.2218336 34.0630624,25.8360092 33.5868119,25.8360092 Z" id="Path"></path>
                        <path d="M47.3659832,12.0568379 L46.5048165,12.0568379 L46.5048165,9.473237 C46.5048165,8.9978948 46.1199003,8.61207034 45.6436498,8.61207034 L24.9748425,8.61207034 C24.498592,8.61207034 24.1136758,8.9978948 24.1136758,9.473237 L24.1136758,12.0568379 L18.0852064,12.0568379 C17.6089559,12.0568379 17.2240398,12.4426624 17.2240398,12.9180046 C17.2240398,13.3933468 17.6089559,13.7791713 18.0852064,13.7791713 L24.9748425,13.7791713 C25.451093,13.7791713 25.8360092,13.3933468 25.8360092,12.9180046 L25.8360092,10.3344037 L44.7823823,10.3344037 L44.7823823,12.9180046 C44.7823823,13.3933468 45.1672984,13.7791713 45.6435489,13.7791713 L47.3659832,13.7791713 C48.9600448,13.7791713 49.9495841,14.7687106 49.9495841,16.3627722 L49.9495841,37.0315795 C49.9495841,37.5069217 50.3345003,37.8927462 50.8107508,37.8927462 C51.2870013,37.8927462 51.6719174,37.5069217 51.6719174,37.0315795 L51.6719174,16.3627722 C51.6720183,13.7869422 49.9410057,12.0568379 47.3659832,12.0568379 Z" id="Path"></path>
                        <path d="M26.6971758,31.003211 L28.4196101,31.003211 C28.8958606,31.003211 29.2807768,30.6173865 29.2807768,30.1420443 C29.2807768,29.6667021 28.8958606,29.2808777 28.4196101,29.2808777 L26.6971758,29.2808777 C26.2209253,29.2808777 25.8360092,29.6667021 25.8360092,30.1420443 C25.8360092,30.6173865 26.2209253,31.003211 26.6971758,31.003211 Z" id="Path"></path>
                        <path d="M33.5868119,29.2807768 L31.8643777,29.2807768 C31.3881272,29.2807768 31.003211,29.6666012 31.003211,30.1419434 C31.003211,30.6172856 31.3881272,31.0031101 31.8643777,31.0031101 L33.5868119,31.0031101 C34.0630624,31.0031101 34.4479786,30.6172856 34.4479786,30.1419434 C34.4479786,29.6666012 34.0630624,29.2807768 33.5868119,29.2807768 Z" id="Path"></path>
                        <path d="M25.8360092,26.6971758 C25.8360092,27.172518 26.2209253,27.5583425 26.6971758,27.5583425 L28.4196101,27.5583425 C28.8958606,27.5583425 29.2807768,27.172518 29.2807768,26.6971758 C29.2807768,26.2218336 28.8958606,25.8360092 28.4196101,25.8360092 L26.6971758,25.8360092 C26.2209253,25.8360092 25.8360092,26.2218336 25.8360092,26.6971758 Z" id="Path"></path>
                        <path d="M38.7540138,29.2807768 L37.0315795,29.2807768 C36.555329,29.2807768 36.1704128,29.6666012 36.1704128,30.1419434 C36.1704128,30.6172856 36.555329,31.0031101 37.0315795,31.0031101 L38.7540138,31.0031101 C39.2302643,31.0031101 39.6151804,30.6172856 39.6151804,30.1419434 C39.6151804,29.6666012 39.2302643,29.2807768 38.7540138,29.2807768 Z" id="Path"></path>
                        <path d="M38.7540138,25.8360092 L37.0315795,25.8360092 C36.555329,25.8360092 36.1704128,26.2218336 36.1704128,26.6971758 C36.1704128,27.172518 36.555329,27.5583425 37.0315795,27.5583425 L38.7540138,27.5583425 C39.2302643,27.5583425 39.6151804,27.172518 39.6151804,26.6971758 C39.6151804,26.2218336 39.2302643,25.8360092 38.7540138,25.8360092 Z" id="Path"></path>
                        <path d="M42.1987813,12.0568379 L28.4196101,12.0568379 C27.9433596,12.0568379 27.5584434,12.4426624 27.5584434,12.9180046 L27.5584434,19.8076407 C27.5584434,20.2829829 27.9433596,20.6688073 28.4196101,20.6688073 L42.1987813,20.6688073 C42.6750318,20.6688073 43.059948,20.2829829 43.059948,19.8076407 L43.059948,12.9180046 C43.0600489,12.4426624 42.6750318,12.0568379 42.1987813,12.0568379 Z M41.3376147,18.9463731 L29.2807768,18.9463731 L29.2807768,13.7791713 L41.3376147,13.7791713 L41.3376147,18.9463731 Z" id="Shape" fill-rule="nonzero"></path>
                        <path d="M38.7540138,32.7256453 L37.0315795,32.7256453 C36.555329,32.7256453 36.1704128,33.1114697 36.1704128,33.5868119 C36.1704128,34.0621541 36.555329,34.4479786 37.0315795,34.4479786 L38.7540138,34.4479786 C39.2302643,34.4479786 39.6151804,34.0621541 39.6151804,33.5868119 C39.6151804,33.1114697 39.2302643,32.7256453 38.7540138,32.7256453 Z" id="Path"></path>
                    </g>
                </g>
            </g>
        </g>
    </g>
</svg>