<?xml version="1.0" encoding="UTF-8"?>
<svg width="56px" height="50px" viewBox="0 0 56 50" version="1.1" xmlns="http://www.w3.org/2000/svg" xmlns:xlink="http://www.w3.org/1999/xlink">
    <!-- Generator: Sketch 52.5 (67469) - http://www.bohemiancoding.com/sketch -->
    <title>recycle</title>
    <desc>Created with Sketch.</desc>
    <g id="Pages" stroke="none" stroke-width="1" fill="none" fill-rule="evenodd">
        <g id="dto01_main-copy" transform="translate(-394.000000, -886.000000)" fill="#C81C1C" fill-rule="nonzero">
            <g id="Category" transform="translate(375.000000, 548.000000)">
                <g id="09" transform="translate(0.000000, 322.000000)">
                    <g id="recycle" transform="translate(19.000000, 16.000000)">
                        <path d="M44.6257485,10.8308383 C44.3862275,10.5314371 43.9670659,10.4116766 43.5479042,10.5913174 L41.991018,11.1901198 L37.2005988,0.591317365 C37.0209581,0.232035928 36.7215569,0.0523952096 36.3622754,0.0523952096 L20.7934132,0.0523952096 C20.494012,0.0523952096 20.254491,0.172155689 20.0748503,0.411676647 L11.2724551,10.9505988 C11.0928144,11.1302395 11.0329341,11.4296407 11.0928144,11.6691617 C11.1526946,11.9086826 11.2724551,12.1482036 11.4520958,12.3278443 L20.254491,18.8547904 C20.6736527,19.1541916 21.2724551,19.0943114 21.5718563,18.6751497 L27.3203593,10.8907186 L30.0748503,15.8008982 L28.3383234,16.6991018 C27.9790419,16.8787425 27.7994012,17.238024 27.8592814,17.5973054 C27.9191617,17.9565868 28.1586826,18.3158683 28.5778443,18.3757485 L38.3982036,20.7709581 C38.4580838,20.7709581 38.5179641,20.7709581 38.6377246,20.7709581 C38.9371257,20.7709581 39.2365269,20.5913174 39.4161677,20.3517964 L44.6856287,11.9086826 C44.9251497,11.5494012 44.8652695,11.1302395 44.6257485,10.8308383 Z M20.6137725,16.758982 L13.3682635,11.3697605 L21.2724551,1.90868263 L22.5299401,1.90868263 L26.4221557,9.15419162 L20.6137725,16.758982 Z M38.0988024,18.8547904 L31.4520958,17.238024 L31.8113772,17.0583832 C32.0508982,16.9386228 32.2305389,16.758982 32.2904192,16.5194611 C32.3502994,16.2799401 32.3502994,16.0404192 32.2305389,15.8008982 L28.2784431,8.73502994 L24.5658683,1.8488024 L35.7035928,1.8488024 L40.6137725,12.747006 C40.7934132,13.1062874 41.2125749,13.3458084 41.5718563,13.2859281 L38.0988024,18.8547904 Z" id="Shape"></path>
                        <path d="M23.9071856,35.0224551 L14.2065868,34.6032934 L16.7215569,29.5733533 L18.3982036,30.5314371 C18.757485,30.7110778 19.1766467,30.7110778 19.4760479,30.4116766 C19.7754491,30.1721557 19.8952096,29.752994 19.7155689,29.3937126 L16.1826347,19.9326347 C16.0628743,19.5733533 15.7035928,19.3338323 15.2844311,19.3338323 L5.28443114,19.6931138 C4.86526946,19.6931138 4.56586826,19.992515 4.44610778,20.3517964 C4.32634731,20.7110778 4.50598802,21.1302395 4.80538922,21.3697605 L6.18263473,22.3278443 L0.134730539,32.2679641 C-0.0449101796,32.5673653 -0.0449101796,32.9865269 0.134730539,33.2859281 L6.84131737,43.1661677 L9.41616766,47.0583832 C9.59580838,47.2979042 9.89520958,47.4775449 10.1946108,47.4775449 L23.8473054,47.4775449 C24.3862275,47.4775449 24.8053892,47.0583832 24.8053892,46.5194611 L24.8053892,35.9805389 C24.8053892,35.501497 24.3862275,35.0823353 23.9071856,35.0224551 Z M8.27844311,41.9685629 L2.0508982,32.747006 L8.33832335,22.5673653 C8.57784431,22.2080838 8.51796407,21.7889222 8.21856287,21.489521 L14.745509,21.1901198 L17.1407186,27.6571856 L16.7814371,27.4775449 C16.5419162,27.3577844 16.3023952,27.2979042 16.0628743,27.4176647 C15.8233533,27.4775449 15.6437126,27.6571856 15.5239521,27.8967066 L11.9311377,35.0823353 L8.27844311,41.9685629 Z M22.8892216,45.6212575 L10.6736527,45.6212575 L9.4760479,43.7649701 L13.3083832,36.4595808 L22.8892216,36.8787425 L22.8892216,45.6212575 Z" id="Shape"></path>
                        <path d="M55.6437126,31.9086826 L49.6556886,19.5733533 C49.5359281,19.3338323 49.3562874,19.1541916 49.1167665,19.0943114 C48.8772455,19.0344311 48.6377246,19.0344311 48.3982036,19.2140719 L38.8173653,24.5434132 C38.3982036,24.7829341 38.2185629,25.3817365 38.4580838,25.8008982 L43.1287425,34.244012 L37.5,34.7230539 L37.4401198,32.8068862 C37.4401198,32.3877246 37.1407186,32.0883234 36.7814371,31.9685629 C36.4221557,31.8488024 36.002994,31.9685629 35.7634731,32.2679641 L29.5359281,40.2320359 C29.2964072,40.5314371 29.2964072,41.010479 29.4760479,41.3098802 L35.0449102,49.5733533 C35.2245509,49.8128743 35.5239521,49.992515 35.8233533,49.992515 C35.8832335,49.992515 36.002994,49.992515 36.0628743,49.9326347 C36.4221557,49.8128743 36.7215569,49.4535928 36.7215569,49.0943114 L36.7814371,47.4176647 L48.3982036,47.4176647 C48.757485,47.4176647 49.1167665,47.1781437 49.2365269,46.8787425 L55.6437126,32.6871257 C55.7634731,32.4476048 55.7634731,32.1482036 55.6437126,31.9086826 Z M47.9191617,45.6212575 L36.002994,45.6212575 C35.5838323,45.6212575 35.2245509,45.9206587 35.1047904,46.2799401 L31.4520958,40.8308383 L35.7035928,35.3817365 L35.7035928,35.8008982 C35.7035928,36.0404192 35.8233533,36.2799401 36.002994,36.4595808 C36.1826347,36.6392216 36.4221557,36.6991018 36.7215569,36.6991018 L44.745509,35.9805389 L52.5299401,35.4416168 L47.9191617,45.6212575 Z M53.3083832,33.4655689 L45.1047904,34.0643713 L40.494012,25.6811377 L48.3982036,21.25 L53.8473054,32.3278443 L53.3083832,33.4655689 Z" id="Shape"></path>
                    </g>
                </g>
            </g>
        </g>
    </g>
</svg>