<?xml version="1.0" encoding="UTF-8"?>
<svg width="50px" height="50px" viewBox="0 0 50 50" version="1.1" xmlns="http://www.w3.org/2000/svg" xmlns:xlink="http://www.w3.org/1999/xlink">
    <!-- Generator: Sketch 52.5 (67469) - http://www.bohemiancoding.com/sketch -->
    <title>settings</title>
    <desc>Created with Sketch.</desc>
    <g id="Pages" stroke="none" stroke-width="1" fill="none" fill-rule="evenodd">
        <g id="dto01_main-copy" transform="translate(-700.000000, -625.000000)" fill="#FFFFFF" fill-rule="nonzero">
            <g id="Category" transform="translate(375.000000, 548.000000)">
                <g id="02-(hover)" transform="translate(300.000000, 62.000000)">
                    <g id="settings" transform="translate(25.000000, 15.000000)">
                        <path d="M48.2891667,34.0725 C48.3941667,33.8041667 48.495,33.535 48.5908333,33.2625 C48.6441667,33.11 48.6966667,32.9566667 48.7466667,32.8025 C48.8675,32.4366667 48.9791667,32.0658333 49.0833333,31.6925 C49.1,31.6333333 49.1208333,31.5758333 49.1366667,31.5166667 C49.1383333,31.51 49.1375,31.5033333 49.1391667,31.4966667 C49.6975,29.4241667 50,27.2475 50,25 C50,11.215 38.785,0 25,0 C11.215,0 0,11.215 0,25 C0,27.3708333 0.339166667,29.6625 0.958333333,31.8375 C0.960833333,31.8466667 0.959166667,31.8558333 0.961666667,31.8641667 C0.973333333,31.9041667 0.988333333,31.9433333 1,31.9833333 C1.11833333,32.3883333 1.24583333,32.7883333 1.38333333,33.185 C1.4125,33.2683333 1.43916667,33.3533333 1.46833333,33.4358333 C1.62583333,33.8733333 1.7925,34.3066667 1.97333333,34.7333333 C2.06833333,34.9583333 2.17333333,35.1766667 2.27416667,35.3983333 C2.3525,35.5691667 2.42833333,35.7408333 2.51083333,35.91 C2.66083333,36.22 2.81916667,36.5241667 2.98083333,36.8266667 C3.00583333,36.8733333 3.03083333,36.9208333 3.05666667,36.9675 C5.55,41.5558333 9.41833333,45.25 14.1583333,47.5241667 C14.1641667,47.5266667 14.1708333,47.53 14.1766667,47.5333333 C14.4783333,47.6775 14.7833333,47.815 15.0916667,47.9475 C15.2333333,48.0091667 15.3758333,48.0683333 15.5191667,48.1275 C15.7716667,48.2308333 16.025,48.3333333 16.2825,48.4291667 C16.53,48.5216667 16.7808333,48.6058333 17.0316667,48.6908333 C17.1883333,48.7433333 17.34,48.8033333 17.4975,48.8533333 C17.5058333,48.8558333 17.5141667,48.855 17.5225,48.8566667 C19.8841667,49.5983333 22.3958333,50 25,50 C27.7183333,50 30.335,49.5575 32.7866667,48.7516667 C32.795,48.7491667 32.8041667,48.7508333 32.8133333,48.7475 C32.8783333,48.7258333 32.94,48.7 33.005,48.6783333 C33.355,48.5591667 33.7016667,48.4333333 34.045,48.3 C34.1925,48.2425 34.34,48.1858333 34.4866667,48.1258333 C34.7575,48.0141667 35.025,47.8958333 35.2908333,47.775 C40.9533333,45.225 45.425,40.6883333 47.895,35.025 C47.9466667,34.9083333 48.0008333,34.7933333 48.0508333,34.6758333 C48.1341667,34.4766667 48.2108333,34.2741667 48.2891667,34.0725 Z M3.88666667,34.9208333 C3.78583333,34.7066667 3.6875,34.49 3.59333333,34.2725 C3.49,34.0325 3.39083333,33.79 3.295,33.5458333 C3.245,33.4191667 3.19333333,33.2941667 3.145,33.1666667 C2.99416667,32.7608333 2.85166667,32.3508333 2.7225,31.9341667 C2.86083333,31.8283333 2.9975,31.7325 3.13583333,31.6366667 L5.7625,36.1866667 C5.4725,36.42 5.21916667,36.69 4.98416667,36.9766667 C4.65333333,36.4258333 4.34583333,35.86 4.06,35.2808333 C4.00166667,35.1608333 3.94333333,35.0408333 3.88666667,34.9208333 Z M15.6566667,31.9633333 L12.1341667,35.875 C10.6966667,34.9391667 8.8625,34.7166667 7.20833333,35.3575 L4.57916667,30.8033333 C8.265,29.0425 12.5475,29.5825 15.6566667,31.9633333 Z M18.3991667,35.0866667 C19.3591667,36.7491667 19.8283333,38.5866667 19.8283333,40.4133333 L19.8275,40.4166667 C19.8275,40.4166667 19.8283333,40.42 19.8283333,40.4216667 C19.8275,41.6291667 19.615,42.8308333 19.2075,43.9758333 L14.405,41.8375 C14.7708333,40.49 14.6216667,39.0033333 13.87,37.7016667 C13.7225,37.4466667 13.5533333,37.2125 13.3725,36.9908333 L16.8908333,33.0841667 C17.4575,33.6808333 17.97,34.3433333 18.3991667,35.0866667 Z M17.1558333,46.9733333 C17.0066667,46.92 16.86,46.8633333 16.7116667,46.8075 C15.2316667,46.2433333 13.825,45.5316667 12.5058333,44.6916667 C12.9933333,44.3108333 13.4025,43.8591667 13.7241667,43.3583333 L18.5275,45.4966667 C18.2275,46.0483333 17.8816667,46.5808333 17.4783333,47.0825 C17.3716667,47.0458333 17.2633333,47.0116667 17.1558333,46.9733333 Z M7.28416667,37.1566667 C9.08083333,36.1166667 11.3883333,36.7366667 12.4266667,38.5341667 C13.4641667,40.3316667 12.8458333,42.6383333 11.0483333,43.6775 C11.045,43.6791667 11.0416667,43.6816667 11.0375,43.6833333 C10.965,43.6291667 10.895,43.57 10.8233333,43.515 C10.5041667,43.2708333 10.1941667,43.0175 9.88916667,42.7583333 C9.72833333,42.6216667 9.5675,42.485 9.41083333,42.3441667 C9.0925,42.0583333 8.78166667,41.7641667 8.48,41.4616667 C8.29833333,41.2791667 8.1225,41.0908333 7.94666667,40.9025 C7.77916667,40.7233333 7.61666667,40.5416667 7.455,40.3575 C7.18833333,40.0533333 6.93083333,39.7425 6.68,39.4258333 C6.51916667,39.2216667 6.35916667,39.0175 6.205,38.8075 C6.12,38.6925 6.03916667,38.575 5.95666667,38.4583333 C6.2825,37.9191667 6.735,37.4733333 7.28416667,37.1566667 Z M19.1716667,47.5966667 C19.6575,46.9208333 20.0716667,46.2083333 20.4058333,45.4666667 C20.4125,45.4541667 20.4225,45.445 20.4283333,45.4316667 C20.4316667,45.425 20.43,45.4175 20.4325,45.4108333 C21.0208333,44.0875 21.3616667,42.6783333 21.4591667,41.25 L22.5,41.25 C22.96,41.25 23.3333333,40.8775 23.3333333,40.4166667 C23.3333333,39.9558333 22.96,39.5833333 22.5,39.5833333 L21.4633333,39.5833333 C21.3575,38.0141667 20.95,36.455 20.2308333,34.9916667 L21.13,34.4725 C21.5291667,34.2425 21.665,33.7325 21.435,33.3341667 C21.2041667,32.935 20.6933333,32.7983333 20.2966667,33.0291667 L19.3891667,33.5533333 C18.8183333,32.7025 18.1625,31.9375 17.4291667,31.2758333 C17.4233333,31.27 17.4208333,31.2625 17.415,31.2566667 C17.4058333,31.2483333 17.3941667,31.2466667 17.385,31.2391667 C16.9566667,30.8558333 16.5016667,30.5116667 16.03,30.1966667 L16.555,29.2875 C16.785,28.8883333 16.6483333,28.3791667 16.25,28.1491667 C15.85,27.9191667 15.3416667,28.055 15.1116667,28.4541667 L14.5916667,29.3541667 C13.1558333,28.6525 11.5941667,28.2341667 10,28.1241667 L10,27.0833333 C10,26.6225 9.62666667,26.25 9.16666667,26.25 C8.70666667,26.25 8.33333333,26.6225 8.33333333,27.0833333 L8.33333333,28.1333333 C6.51083333,28.2541667 4.68833333,28.7675 3.00333333,29.7408333 C2.75333333,29.885 2.5075,30.0483333 2.2625,30.2166667 C1.87666667,28.5375 1.66666667,26.7933333 1.66666667,25 C1.66666667,12.1341667 12.1341667,1.66666667 25,1.66666667 C37.8658333,1.66666667 48.3333333,12.1341667 48.3333333,25 C48.3333333,26.6683333 48.1541667,28.295 47.8191667,29.865 C45.97,28.59 43.8408333,27.8666667 41.6666667,27.7166667 L41.6666667,26.6666667 C41.6666667,26.2058333 41.2933333,25.8333333 40.8333333,25.8333333 C40.3733333,25.8333333 40,26.2058333 40,26.6666667 L40,27.7091667 C38.4283333,27.8133333 36.8683333,28.22 35.4075,28.935 L34.8883333,28.0358333 C34.6583333,27.6366667 34.1483333,27.5 33.75,27.7308333 C33.3508333,27.9608333 33.215,28.4708333 33.445,28.8691667 L33.9691667,29.7766667 C32.6058333,30.6908333 31.4808333,31.8375 30.6116667,33.1358333 L29.7033333,32.6108333 C29.3025,32.38 28.7958333,32.5166667 28.565,32.9158333 C28.335,33.315 28.4716667,33.8241667 28.87,34.0541667 L29.7691667,34.5733333 C29.0675,36.0091667 28.6491667,37.5708333 28.5391667,39.165 L27.5,39.165 C27.04,39.165 26.6666667,39.5375 26.6666667,39.9983333 C26.6666667,40.4591667 27.04,40.8316667 27.5,40.8316667 L28.5491667,40.8316667 C28.5866667,41.3983333 28.6575,41.965 28.775,42.5283333 C28.7766667,42.54 28.7725,42.5508333 28.775,42.5625 C28.7766667,42.5708333 28.7825,42.5783333 28.785,42.5866667 C29.0475,43.8125 29.4975,45.0191667 30.1566667,46.1625 C30.4258333,46.6291667 30.7433333,47.0808333 31.0866667,47.5216667 C29.145,48.0483333 27.1058333,48.3333333 25,48.3333333 C22.9883333,48.3333333 21.0358333,48.0775 19.1716667,47.5966667 Z M47.3433333,31.7183333 C47.25,32.03 47.1466667,32.3375 47.0416667,32.6433333 C47.0008333,32.7608333 46.965,32.8791667 46.9225,32.9958333 C46.8208333,33.2758333 46.7075,33.55 46.5958333,33.825 C46.4275,34.2341667 46.2516667,34.64 46.0608333,35.0375 C46.0475,35.0658333 46.035,35.095 46.0208333,35.1233333 C45.7558333,35.6708333 45.4658333,36.2033333 45.1608333,36.7258333 C43.7008333,34.795 41.1216667,34.0716667 38.875,34.9416667 L36.2525,30.3991667 C37.7033333,29.7075 39.2591667,29.345 40.8166667,29.345 C43.1483333,29.345 45.4666667,30.1083333 47.3775,31.5966667 C47.3658333,31.6366667 47.355,31.6775 47.3433333,31.7183333 Z M35.985,45.5783333 C35.7133333,45.7241667 35.4391667,45.8658333 35.1616667,46.0008333 C34.9458333,46.105 34.7258333,46.2033333 34.5058333,46.3008333 C34.3608333,46.3658333 34.2191667,46.435 34.0725,46.4966667 C33.6733333,46.665 33.2683333,46.8216667 32.8575,46.9675 C32.8375,46.975 32.8175,46.9808333 32.7975,46.9883333 C32.3341667,46.46 31.9333333,45.9041667 31.6016667,45.33 C31.1725,44.5866667 30.8558333,43.8116667 30.6225,43.0225 L35.765,41.9291667 C35.8666667,42.1958333 35.9841667,42.4591667 36.1316667,42.7141667 C36.5491667,43.4366667 37.1358333,44.0266667 37.8175,44.4833333 C37.2825,44.8366667 36.7333333,45.1716667 36.1683333,45.4808333 C36.1066667,45.515 36.0458333,45.5466667 35.985,45.5783333 Z M34.8025,31.2208333 L37.4316667,35.775 C36.0491667,36.8875 35.3258333,38.5875 35.4166667,40.3 L30.2675,41.3941667 C29.76,37.5108333 31.4333333,33.5325 34.8025,31.2208333 Z M40.8266667,36.2358333 C42.1291667,36.2358333 43.3966667,36.9108333 44.0925,38.1158333 C44.1216667,38.1658333 44.1491667,38.2175 44.1758333,38.2716667 C44.0883333,38.3983333 43.9983333,38.5225 43.9083333,38.6475 C43.7525,38.8641667 43.5916667,39.0758333 43.4283333,39.2866667 C43.185,39.5991667 42.9341667,39.9058333 42.6758333,40.2058333 C42.52,40.3875 42.3633333,40.5691667 42.2025,40.7458333 C42.0033333,40.9633333 41.8,41.1758333 41.5925,41.385 C41.4675,41.5116667 41.3383333,41.635 41.21,41.7591667 C40.8558333,42.1016667 40.4908333,42.4333333 40.1158333,42.7533333 C39.9758333,42.8725 39.8366667,42.9916667 39.6933333,43.1083333 C39.56,43.2166667 39.4241667,43.3208333 39.2891667,43.4258333 C38.5691667,43.1033333 37.9691667,42.5675 37.5733333,41.8816667 C36.5358333,40.0841667 37.1541667,37.7775 38.9508333,36.7391667 C39.5425,36.3983333 40.1891667,36.2358333 40.8266667,36.2358333 Z" id="Shape"></path>
                        <path d="M32.2433333,26.1075 C32.7625,24.1733333 32.4958333,22.1516667 31.495,20.4175 C31.305,20.0883333 31.0858333,19.7833333 30.8541667,19.4908333 L37.1741667,13.1708333 C37.9341667,14.0125 38.6216667,14.9416667 39.2108333,15.9625 C40.6541667,18.4625 41.4091667,21.3225 41.3941667,24.2325 C41.3916667,24.6925 41.7633333,25.0675 42.2233333,25.07 C42.2241667,25.07 42.2258333,25.07 42.2275,25.07 C42.6858333,25.07 43.0583333,24.7 43.0608333,24.2408333 C43.0675,22.91 42.92,21.5908333 42.6408333,20.3033333 L44.535,19.795 C44.98,19.6758333 45.2433333,19.2191667 45.1241667,18.7741667 C45.005,18.3291667 44.5475,18.0633333 44.1033333,18.185 L42.2125,18.6916667 C41.905,17.7183333 41.515,16.7733333 41.0458333,15.8641667 L42.7375,14.8875 C43.1366667,14.6575 43.2725,14.1475 43.0425,13.7491667 C42.8125,13.35 42.3016667,13.2125 41.9041667,13.4441667 L40.2,14.4283333 C39.6416667,13.5558333 39.0283333,12.7375 38.3508333,11.9941667 L39.7316667,10.6133333 C40.0575,10.2875 40.0575,9.76083333 39.7316667,9.435 C39.4058333,9.10916667 38.8791667,9.10916667 38.5533333,9.435 L37.1758333,10.8125 C36.415,10.1191667 35.5975,9.50583333 34.7416667,8.96 L35.7216667,7.26333333 C35.9516667,6.86416667 35.8158333,6.355 35.4166667,6.125 C35.0175,5.89416667 34.5075,6.03083333 34.2783333,6.43 L33.2958333,8.13166667 C32.3866667,7.66333333 31.4416667,7.27916667 30.47,6.97083333 L30.9808333,5.06416667 C31.1,4.62 30.8358333,4.1625 30.3916667,4.04333333 C29.9441667,3.92083333 29.49,4.18833333 29.3708333,4.6325 L28.86,6.53916667 C27.8658333,6.32 26.855,6.18083333 25.8333333,6.13166667 L25.8333333,4.16666667 C25.8333333,3.70583333 25.46,3.33333333 25,3.33333333 C24.54,3.33333333 24.1666667,3.70583333 24.1666667,4.16666667 L24.1666667,6.12666667 C23.1525,6.17166667 22.1383333,6.29416667 21.1325,6.51416667 L20.6283333,4.6325 C20.5091667,4.18833333 20.055,3.92083333 19.6075,4.04333333 C19.1633333,4.1625 18.8991667,4.61916667 19.0183333,5.06416667 L19.5233333,6.95 C18.5641667,7.255 17.625,7.6575 16.7041667,8.13333333 L15.7208333,6.43 C15.4908333,6.03 14.9816667,5.89333333 14.5833333,6.125 C14.1841667,6.355 14.0483333,6.865 14.2783333,7.26333333 L15.255,8.95416667 C14.3883333,9.51 13.5783333,10.1333333 12.83,10.8183333 L11.4466667,9.435 C11.1208333,9.10916667 10.5941667,9.10916667 10.2683333,9.435 C9.9425,9.76083333 9.9425,10.2875 10.2683333,10.6133333 L11.655,12 C10.9675,12.7575 10.3466667,13.5691667 9.79833333,14.4275 L8.09583333,13.445 C7.69583333,13.2141667 7.1875,13.3508333 6.9575,13.75 C6.7275,14.1491667 6.86416667,14.6583333 7.2625,14.8883333 L8.96666667,15.8725 C8.5,16.7766667 8.10833333,17.7208333 7.7975,18.695 L5.89666667,18.185 C5.45416667,18.0641667 4.995,18.33 4.87583333,18.7741667 C4.75666667,19.2183333 5.02,19.6758333 5.465,19.795 L7.36583333,20.305 C7.08416667,21.5841667 6.93166667,22.9008333 6.93583333,24.2391667 C6.93666667,24.6991667 7.31,25.07 7.76916667,25.07 C7.77,25.07 7.77083333,25.07 7.77166667,25.07 C8.23166667,25.0683333 8.60416667,24.6941667 8.6025,24.2341667 C8.59,20.0975 10.1458333,16.1675 12.8325,13.1783333 L19.1408333,19.4866667 C18.5033333,20.2841667 18.0275,21.2091667 17.755,22.2258333 C17.2358333,24.16 17.5025,26.1816667 18.5033333,27.9158333 C19.505,29.6508333 21.1225,30.8916667 23.0566667,31.41 C23.7025,31.5825 24.3583333,31.6691667 25.01,31.6691667 C26.3091667,31.6683333 27.5916667,31.3283333 28.7475,30.6608333 C30.4841667,29.66 31.725,28.0425 32.2433333,26.1075 Z M21.25,17.6725 C20.9208333,17.8625 20.6166667,18.0808333 20.3241667,18.3125 L14.0083333,11.9966667 C14.8558333,11.2283333 15.785,10.54 16.7958333,9.95666667 C23.1066667,6.3125 30.8525,7.35833333 35.9933333,11.9941667 L29.6791667,18.3083333 C28.8816667,17.6708333 27.9566667,17.195 26.9408333,16.9225 C25.005,16.4066667 22.9858333,16.6708333 21.25,17.6725 Z M23.49,29.8 C21.985,29.3975 20.7275,28.4316667 19.9483333,27.0825 C19.1691667,25.7333333 18.9625,24.1616667 19.3658333,22.6566667 C19.7691667,21.1516667 20.7341667,19.895 22.0833333,19.1158333 C22.9825,18.5966667 23.9791667,18.3316667 24.99,18.3316667 C25.4966667,18.3316667 26.0066667,18.3983333 26.5091667,18.5333333 C28.0141667,18.9358333 29.2716667,19.9016667 30.0508333,21.2508333 C30.83,22.6 31.0366667,24.1716667 30.6333333,25.6766667 C30.23,27.1816667 29.265,28.4383333 27.9158333,29.2175 C26.5666667,29.9966667 24.9966667,30.2058333 23.49,29.8 Z" id="Shape"></path>
                    </g>
                </g>
            </g>
        </g>
    </g>
</svg>