<?xml version="1.0" encoding="UTF-8"?>
<svg width="52px" height="52px" viewBox="0 0 52 52" version="1.1" xmlns="http://www.w3.org/2000/svg" xmlns:xlink="http://www.w3.org/1999/xlink">
    <!-- Generator: Sketch 52.5 (67469) - http://www.bohemiancoding.com/sketch -->
    <title>dish</title>
    <desc>Created with Sketch.</desc>
    <g id="Pages" stroke="none" stroke-width="1" fill="none" fill-rule="evenodd">
        <g id="dto01_main-copy" transform="translate(-998.000000, -754.000000)" fill="#C81C1C">
            <g id="Category" transform="translate(375.000000, 548.000000)">
                <g id="07" transform="translate(600.000000, 192.000000)">
                    <g id="dish" transform="translate(23.000000, 14.000000)">
                        <path d="M36.8229333,17.5257333 L36.2665333,15.6944667 C35.5597667,13.61425 33.300475,12.5009083 31.2202583,13.207675 C30.0500417,13.6052583 29.13105,14.52425 28.7334667,15.6944667 L28.1770667,17.5257333 C27.70885,19.0701333 27.6105917,20.7030417 27.8902,22.2924 C28.1452167,23.6305333 28.9947667,24.7801667 30.199,25.4167333 L29.5758667,39.3466667 C29.49245,40.124175 29.74465,40.9003833 30.2692,41.4804 C31.397275,42.7143167 33.312175,42.8001167 34.5460917,41.6720417 C34.612825,41.61105 34.6767417,41.5471333 34.7377333,41.4804 C35.2505833,40.91685 35.50235,40.1633917 35.4310667,39.4047333 L34.8044667,25.415 C36.007075,24.7781083 36.8552167,23.6292333 37.1098,22.2924 C37.3894083,20.7030417 37.29115,19.0701333 36.8229333,17.5257333 Z M35.4024667,21.9908 C35.2148333,22.95215 34.5297333,23.740925 33.6041333,24.0612667 C33.2528083,24.193325 33.0265,24.536525 33.0434,24.9114667 L33.7020667,39.5416667 C33.7324,39.8286417 33.6377167,40.11475 33.4420667,40.3268667 C32.920225,40.8435083 32.079775,40.8435083 31.5579333,40.3268667 C31.3525333,40.0976333 31.2592583,39.7891 31.3031333,39.4844667 L31.9566,24.9114667 C31.9735,24.536525 31.7471917,24.193325 31.3958667,24.0612667 C30.4702667,23.740925 29.7851667,22.95215 29.5975333,21.9908 C29.3657,20.6713 29.4473833,19.315725 29.8358667,18.0336 L30.3922667,16.2014667 C30.8227833,15.037425 32.1154167,14.4427833 33.2795667,14.8733 C33.8950083,15.1009083 34.380125,15.5861333 34.6077333,16.2014667 L35.1641333,18.0336 C35.5521833,19.3158333 35.6338667,20.6713 35.4024667,21.9908 Z" id="Shape" fill-rule="nonzero"></path>
                        <path d="M23.4,13 C22.9213833,13 22.5333333,13.38805 22.5333333,13.8666667 L22.5333333,21.3078667 L20.1872667,23.6539333 C20.0137167,23.8268333 19.9214167,24.065275 19.9333333,24.31 L20.6916667,39.4766667 C20.7097583,39.803725 20.591025,40.1236333 20.3640667,40.3598 C19.889675,40.8384167 19.1170417,40.8418833 18.6383167,40.3673833 C18.6357167,40.3648917 18.633225,40.3622917 18.6307333,40.3598 C18.4036667,40.1236333 18.2850417,39.803725 18.3031333,39.4766667 L19.0666667,24.31 C19.0788,24.0653833 18.986825,23.82705 18.8136,23.6539333 L16.4666667,21.3078667 L16.4666667,13.8666667 C16.4666667,13.38805 16.0786167,13 15.6,13 C15.1213833,13 14.7333333,13.38805 14.7333333,13.8666667 L14.7333333,21.6666667 C14.7333333,21.89655 14.8247667,22.1169 14.9872667,22.2794 L17.3151333,24.6081333 L16.5758667,39.3926 C16.4972167,41.007525 17.7426167,42.3805417 19.3575417,42.4591917 C20.9724667,42.5378417 22.3454833,41.2924417 22.4241333,39.6775167 C22.4287917,39.5826167 22.4287917,39.4876083 22.4241333,39.3927083 L21.6848667,24.6082417 L24.0127333,22.2795083 C24.1752333,22.1170083 24.2666667,21.8966583 24.2666667,21.666775 L24.2666667,13.866775 C24.2666667,13.38805 23.8786167,13 23.4,13 Z" id="Path"></path>
                        <path d="M18.2,13 C17.7213833,13 17.3333333,13.38805 17.3333333,13.8666667 L17.3333333,20.8 C17.3333333,21.2786167 17.7213833,21.6666667 18.2,21.6666667 C18.6786167,21.6666667 19.0666667,21.2786167 19.0666667,20.8 L19.0666667,13.8666667 C19.0666667,13.38805 18.6786167,13 18.2,13 Z" id="Path"></path>
                        <path d="M20.8,13 C20.3213833,13 19.9333333,13.38805 19.9333333,13.8666667 L19.9333333,20.8 C19.9333333,21.2786167 20.3213833,21.6666667 20.8,21.6666667 C21.2786167,21.6666667 21.6666667,21.2786167 21.6666667,20.8 L21.6666667,13.8666667 C21.6666667,13.38805 21.2786167,13 20.8,13 Z" id="Path"></path>
                        <path d="M26,0 C11.6406333,0 0,11.6406333 0,26 C0,40.3593667 11.6406333,52 26,52 C40.3593667,52 52,40.3593667 52,26 C51.98375,11.64735 40.35265,0.01625 26,0 Z M26,50.2666667 C12.5978667,50.2666667 1.73333333,39.4021333 1.73333333,26 C1.73333333,12.5978667 12.5978667,1.73333333 26,1.73333333 C39.4021333,1.73333333 50.2666667,12.5978667 50.2666667,26 C50.2513917,39.3957417 39.3957417,50.2513917 26,50.2666667 Z" id="Shape" fill-rule="nonzero"></path>
                        <path d="M28.8133083,42.2686333 C28.7668333,41.7922917 28.342925,41.4437833 27.866475,41.4902583 C27.8553167,41.4913417 27.8441583,41.4926417 27.833,41.4941583 L27.8364667,41.4932917 C26.6163083,41.6349917 25.3836917,41.6349917 24.1635333,41.4932917 C23.68795,41.4375 23.257325,41.777775 23.2015333,42.2533583 C23.1457417,42.7289417 23.4860167,43.1595667 23.9616,43.2153583 C25.3147917,43.3734167 26.6817417,43.3734167 28.0349333,43.2153583 C28.511275,43.1689917 28.8597833,42.7450833 28.8133083,42.2686333 Z" id="Path"></path>
                        <path d="M39.26,14.8321333 C38.9524417,14.465425 38.4057917,14.4174333 38.0390833,14.7251 C38.0378917,14.726075 38.0367,14.7271583 38.0354,14.7281333 C37.6695583,15.0366667 37.622975,15.5833167 37.9314,15.9492667 C43.1568583,22.1524333 42.7571083,31.3249083 37.0118667,37.05 C36.6727833,37.3878917 36.6718083,37.9368167 37.0097,38.2759 C37.3475917,38.6149833 37.8965167,38.6159583 38.2356,38.2780667 C44.6204417,31.9174917 45.0656917,21.725275 39.26,14.8321333 Z" id="Path"></path>
                        <path d="M20.1924667,11.4556 C20.191925,11.4556 20.1913833,11.4554917 20.1908417,11.4554917 C20.189975,11.4554917 20.1891083,11.4556 20.1881333,11.4556 L20.1924667,11.4556 Z" id="Path"></path>
                        <path d="M30.0880667,9.15113333 C26.701025,8.33939167 23.148775,8.557575 19.8865333,9.77773333 C19.4384667,9.94619167 19.2119417,10.4460417 19.3804,10.894 C19.5073667,11.231675 19.8302,11.4551667 20.1908417,11.4554917 C20.2945167,11.45495 20.3972167,11.4359917 20.4940667,11.3992667 C23.43185,10.3006583 26.6307167,10.1044667 29.6807333,10.8359333 C30.146025,10.9483833 30.61435,10.6624917 30.7268,10.1972 C30.83925,9.73190833 30.5533583,9.26358333 30.0880667,9.15113333 Z" id="Path"></path>
                        <path d="M14.9491333,37.0066667 C12.0274917,34.0900083 10.3900333,30.1283667 10.4,26 C10.3914417,22.7016833 11.4362083,19.4867833 13.3822,16.8237333 C13.669825,16.4411 13.5928,15.8978083 13.2101667,15.6101833 C12.8275333,15.3225583 12.2842417,15.3995833 11.9966167,15.7822167 C11.991525,15.7890417 11.9865417,15.7958667 11.9816667,15.8028 C6.970925,22.6915 7.70824167,32.200025 13.7210667,38.2338667 C14.0599333,38.57295 14.6096167,38.5731667 14.9487,38.2343 C15.2877833,37.8954333 15.288,37.34575 14.9491333,37.0066667 Z" id="Path"></path>
                    </g>
                </g>
            </g>
        </g>
    </g>
</svg>