<?xml version="1.0" encoding="UTF-8"?>
<svg width="52px" height="38px" viewBox="0 0 52 38" version="1.1" xmlns="http://www.w3.org/2000/svg" xmlns:xlink="http://www.w3.org/1999/xlink">
    <!-- Generator: Sketch 52.5 (67469) - http://www.bohemiancoding.com/sketch -->
    <title>table</title>
    <desc>Created with Sketch.</desc>
    <g id="Pages" stroke="none" stroke-width="1" fill="none" fill-rule="evenodd">
        <g id="dto01_main-copy" transform="translate(-1298.000000, -631.000000)" fill="#C81C1C">
            <g id="Category" transform="translate(375.000000, 548.000000)">
                <g id="04" transform="translate(900.000000, 62.000000)">
                    <g id="table" transform="translate(23.000000, 21.000000)">
                        <path d="M18.8444535,13.6235917 C18.6566847,13.4357219 18.3960911,13.3286563 18.1304472,13.3286563 C17.8648033,13.3286563 17.6042097,13.4357219 17.4163399,13.6235917 C17.2283691,13.8124716 17.1203944,14.0720552 17.1203944,14.3387091 C17.1203944,14.604353 17.2284701,14.8639365 17.4163399,15.0528164 C17.6042097,15.2406862 17.8648033,15.3487619 18.1304472,15.3487619 C18.3960911,15.3487619 18.6566847,15.2406862 18.8444535,15.0528164 C19.0324243,14.8639365 19.1405,14.604353 19.1405,14.3387091 C19.1405,14.0720552 19.0323233,13.8113606 18.8444535,13.6235917 Z" id="Path"></path>
                        <path d="M50.704649,4.84795027 C50.1468978,4.84795027 49.6945962,5.3001509 49.6945962,5.85800304 L49.6945962,20.8025418 L36.1598891,20.8025418 C35.602138,20.8025418 35.1498363,21.2547424 35.1498363,21.8125946 L35.1498363,26.6608479 L35.1498363,36.156758 C35.1498363,36.7146101 35.602138,37.1668107 36.1598891,37.1668107 C36.7176403,37.1668107 37.1699419,36.7146101 37.1699419,36.156758 L37.1699419,27.6709006 L49.6945962,27.6709006 L49.6945962,36.156758 C49.6945962,36.7146101 50.1468978,37.1668107 50.704649,37.1668107 C51.2624001,37.1668107 51.7147017,36.7146101 51.7147017,36.156758 L51.7147017,26.6608479 L51.7147017,21.8125946 L51.7147017,5.85800304 C51.7147017,5.30004989 51.2624001,4.84795027 50.704649,4.84795027 Z M49.6945962,25.6506941 L37.1699419,25.6506941 L37.1699419,22.8225463 L49.6945962,22.8225463 L49.6945962,25.6506941 Z" id="Shape" fill-rule="nonzero"></path>
                        <path d="M15.5548126,20.8024408 L2.02010554,20.8024408 L2.02010554,5.85800304 C2.02010554,5.3001509 1.56780391,4.84795027 1.01005277,4.84795027 C0.45230163,4.84795027 0,5.3001509 0,5.85800304 L0,21.8125946 L0,26.6608479 L0,36.156758 C0,36.7146101 0.45230163,37.1668107 1.01005277,37.1668107 C1.56780391,37.1668107 2.02010554,36.7146101 2.02010554,36.156758 L2.02010554,27.6709006 L14.5447599,27.6709006 L14.5447599,36.156758 C14.5447599,36.7146101 14.9970615,37.1668107 15.5548126,37.1668107 C16.1125638,37.1668107 16.5648654,36.7146101 16.5648654,36.156758 L16.5648654,26.6608479 L16.5648654,21.8125946 C16.5648654,21.2547424 16.1125638,20.8024408 15.5548126,20.8024408 Z M14.5447599,25.6506941 L2.02010554,25.6506941 L2.02010554,22.8225463 L14.5447599,22.8225463 L14.5447599,25.6506941 Z" id="Shape" fill-rule="nonzero"></path>
                        <path d="M38.1799947,8.47989802 L37.1699419,8.47989802 L37.1699419,6.69786192 C38.3455423,6.28091214 39.1900474,5.15823848 39.1900474,3.84143269 L39.1900474,1.01328494 C39.1900474,0.455432793 38.7377458,0.00323216886 38.1799947,0.00323216886 L34.1397836,0.00323216886 C33.5820324,0.00323216886 33.1297308,0.455432793 33.1297308,1.01328494 L33.1297308,3.84143269 C33.1297308,5.15813748 33.9742359,6.28091214 35.1498363,6.69786192 L35.1498363,8.47989802 L30.702877,8.47989802 C31.3384022,7.63519089 31.7156569,6.58574606 31.7156569,5.44973971 C31.7156569,4.89188757 31.2633553,4.43968694 30.7056042,4.43968694 L21.0090976,4.43968694 C20.4513464,4.43968694 19.9990448,4.89188757 19.9990448,5.44973971 C19.9990448,6.58574606 20.3762995,7.63519089 21.0118247,8.47989802 L16.5648654,8.47989802 L16.5648654,6.69786192 C17.7404658,6.28091214 18.5849709,5.15823848 18.5849709,3.84143269 L18.5849709,1.01328494 C18.5849709,0.455432793 18.1326693,0.00323216886 17.5749182,0.00323216886 L13.5347071,0.00323216886 C12.976956,0.00323216886 12.5246543,0.455432793 12.5246543,1.01328494 L12.5246543,3.84143269 C12.5246543,5.15813748 13.3691594,6.28091214 14.5447599,6.69786192 L14.5447599,8.47989802 L13.5347071,8.47989802 C11.6410602,8.47989802 10.1005277,10.0204305 10.1005277,11.9140774 C10.1005277,13.8077244 11.6410602,15.3482568 13.5347071,15.3482568 L14.0902361,15.3482568 C14.6479873,15.3482568 15.1002889,14.8960562 15.1002889,14.3382041 C15.1002889,13.7803519 14.6479873,13.3281513 14.0902361,13.3281513 L13.5347071,13.3281513 C12.7549464,13.3281513 12.1206332,12.6938382 12.1206332,11.9140774 C12.1206332,11.1343167 12.7549464,10.5000036 13.5347071,10.5000036 L25.0493087,10.5000036 L26.6653931,10.5000036 L38.1799947,10.5000036 C38.9597554,10.5000036 39.5940685,11.1343167 39.5940685,11.9140774 C39.5940685,12.6938382 38.9597554,13.3281513 38.1799947,13.3281513 L27.8774564,13.3281513 L23.8372453,13.3281513 L21.8676424,13.3281513 C21.3098913,13.3281513 20.8575897,13.7803519 20.8575897,14.3382041 C20.8575897,14.8960562 21.3098913,15.3482568 21.8676424,15.3482568 L22.8271926,15.3482568 L22.8271926,31.4708201 C20.978392,32.2237135 19.6711817,34.0392833 19.6711817,36.1553439 C19.6711817,36.713196 20.1234833,37.1653966 20.6812345,37.1653966 L31.0591226,37.1653966 C31.6168738,37.1653966 32.0691754,36.713196 32.0691754,36.1553439 C32.0691754,34.0294858 30.7498445,32.2071486 28.8875092,31.4606186 L28.8875092,15.3482568 L38.1799947,15.3482568 C40.0736416,15.3482568 41.6141741,13.8077244 41.6141741,11.9140774 C41.6141741,10.0204305 40.0736416,8.47989802 38.1799947,8.47989802 Z M15.5894574,4.84956636 C15.5778418,4.84916234 15.5665292,4.84784927 15.5548126,4.84784927 C15.543096,4.84784927 15.5317834,4.84916234 15.5201678,4.84956636 C14.9793856,4.83108239 14.5447599,4.38655817 14.5447599,3.84123068 L14.5447599,2.0231357 L16.5648654,2.0231357 L16.5648654,3.84123068 C16.5648654,4.38655817 16.1302397,4.83108239 15.5894574,4.84956636 Z M26.6653931,8.47989802 L25.0493087,8.47989802 C23.7325029,8.47989802 22.6091222,7.63559491 22.1922734,6.45979248 L29.5224284,6.45979248 C29.1055796,7.63559491 27.9821989,8.47989802 26.6653931,8.47989802 Z M36.1945339,4.84956636 C36.1829183,4.84916234 36.1716057,4.84784927 36.1598891,4.84784927 C36.1481725,4.84784927 36.1368599,4.84916234 36.1252443,4.84956636 C35.5844621,4.83108239 35.1498363,4.38655817 35.1498363,3.84123068 L35.1498363,2.0231357 L37.1699419,2.0231357 L37.1699419,3.84123068 C37.1699419,4.38655817 36.7353162,4.83108239 36.1945339,4.84956636 Z M24.8472981,15.3482568 L26.8674036,15.3482568 L26.8674036,31.0714453 L24.8472981,31.0714453 L24.8472981,15.3482568 Z M29.8763508,35.1451901 L21.8640062,35.1451901 C22.281158,33.9658525 23.4072659,33.1187212 24.7278089,33.1187212 L27.0126492,33.1187212 C28.3330912,33.1187212 29.459199,33.9658525 29.8763508,35.1451901 Z" id="Shape" fill-rule="nonzero"></path>
                    </g>
                </g>
            </g>
        </g>
    </g>
</svg>