<?xml version="1.0" encoding="UTF-8"?>
<svg width="46px" height="52px" viewBox="0 0 46 52" version="1.1" xmlns="http://www.w3.org/2000/svg" xmlns:xlink="http://www.w3.org/1999/xlink">
    <!-- Generator: Sketch 52.5 (67469) - http://www.bohemiancoding.com/sketch -->
    <title>freezer</title>
    <desc>Created with Sketch.</desc>
    <g id="Pages" stroke="none" stroke-width="1" fill="none" fill-rule="evenodd">
        <g id="dto01_main-copy" transform="translate(-404.000000, -625.000000)" fill="#C81C1C">
            <g id="Category" transform="translate(375.000000, 548.000000)">
                <g id="01" transform="translate(0.000000, 62.000000)">
                    <g id="freezer" transform="translate(29.000000, 15.000000)">
                        <path d="M42.4791024,0 L13.3963735,0 L13.3963735,1.51999141 L42.4791024,1.51999141 C43.4568822,1.51999141 44.252459,2.31556819 44.252459,3.29334803 L44.252459,39.5938372 L1.52318971,39.5938372 L1.52318971,3.29334803 C1.52318971,2.31556819 2.31876648,1.51999141 3.29654633,1.51999141 L11.3696517,1.51999141 L11.3696517,0 L3.29654633,0 C1.48061236,0 0.00329824543,1.47731411 0.00329824543,3.29334803 L0.00329824543,39.5938372 L0.00329824543,47.5264173 L0.00329824543,47.5338134 L2.70516093,47.5338134 L2.70516093,51.1727776 L43.0706876,51.1727776 L43.0706876,47.5338134 L45.7725503,47.5338134 L45.7725503,47.5264173 L45.7725503,39.5938372 L45.7725503,3.29334803 C45.7723504,1.47731411 44.2950363,0 42.4791024,0 Z M44.252459,46.0064259 L41.5505963,46.0064259 L41.5505963,46.013822 L9.97439391,46.013822 L9.97439391,47.5338134 L41.5505963,47.5338134 L41.5505963,49.6527862 L4.22505239,49.6527862 L4.22505239,47.5338134 L8.16805483,47.5338134 L8.16805483,46.013822 L4.22505239,46.013822 L4.22505239,46.0064259 L1.52318971,46.0064259 L1.52318971,41.1138286 L44.252459,41.1138286 L44.252459,46.0064259 Z" id="Shape" fill-rule="nonzero"></path>
                        <rect id="Rectangle" x="41.212776" y="9.87994416" width="1.51999141" height="7.97175926"></rect>
                        <rect id="Rectangle" x="41.212776" y="19.8783253" width="1.51999141" height="18.4495854"></rect>
                        <polygon id="Path" points="7.82573694 13.0718462 7.82573694 11.5518547 4.05694182 11.5518547 4.05694182 29.5670712 7.83083422 29.5415847 7.82063965 28.0215933 5.57693323 28.0367852 5.57693323 13.0718462"></polygon>
                        <polygon id="Path" points="14.9601416 21.31696 21.0528005 21.31696 19.0079883 23.3617722 16.2378619 23.3618722 16.2378619 24.8818636 18.5627252 24.8817636 18.5628251 27.2068268 20.0828165 27.2068268 20.0828165 24.4366004 22.1278286 22.3915883 22.1279286 28.4848469 23.64792 28.4848469 23.64782 22.3917882 25.6929321 24.4366004 25.6929321 27.2068268 27.2129235 27.2068268 27.2129235 24.8818636 29.5375869 24.8817636 29.5375869 23.3617722 26.7676604 23.3618722 24.7226483 21.31696 30.815607 21.31696 30.815607 19.7969686 24.7225483 19.7969686 26.7676604 17.7519565 29.5377868 17.7520564 29.5377868 16.232065 27.2128236 16.2319651 27.2128236 13.9069019 25.6928322 13.9069019 25.6928322 16.6771283 23.64782 18.7220404 23.64782 12.6292816 22.1278286 12.6292816 22.1278286 18.7222403 20.0828165 16.6773281 20.0827166 13.9069019 18.5627252 13.9069019 18.5628251 16.232065 16.2379619 16.2317652 16.237762 17.7517566 19.0080882 17.7521564 21.0531004 19.7969686 14.9601416 19.7969686"></polygon>
                        <rect id="Rectangle" x="8.147066" y="42.2687143" width="1.51999141" height="2.58922261"></rect>
                        <rect id="Rectangle" x="11.1880483" y="42.2687143" width="1.51999141" height="2.58922261"></rect>
                        <rect id="Rectangle" x="14.2279312" y="42.2687143" width="1.51999141" height="2.58922261"></rect>
                        <rect id="Rectangle" x="30.0277261" y="42.2687143" width="1.51999141" height="2.58922261"></rect>
                        <rect id="Rectangle" x="33.0677089" y="42.2687143" width="1.51999141" height="2.58922261"></rect>
                        <rect id="Rectangle" x="36.1075918" y="42.2687143" width="1.51999141" height="2.58922261"></rect>
                    </g>
                </g>
            </g>
        </g>
    </g>
</svg>