<?xml version="1.0" encoding="UTF-8"?>
<svg width="34px" height="47px" viewBox="0 0 34 47" version="1.1" xmlns="http://www.w3.org/2000/svg" xmlns:xlink="http://www.w3.org/1999/xlink">
    <!-- Generator: Sketch 52.5 (67469) - http://www.bohemiancoding.com/sketch -->
    <title>water-cooler</title>
    <desc>Created with Sketch.</desc>
    <g id="Pages" stroke="none" stroke-width="1" fill="none" fill-rule="evenodd">
        <g id="dto01_main-copy" transform="translate(-1015.000000, -627.000000)" fill="#C81C1C">
            <g id="Category" transform="translate(375.000000, 548.000000)">
                <g id="03" transform="translate(600.000000, 62.000000)">
                    <g id="water-cooler" transform="translate(40.000000, 17.000000)">
                        <path d="M33.0768479,30.7543395 L30.2162541,30.7543395 C30.4415909,30.3065321 30.5691263,29.8017636 30.5691263,29.2679771 L30.5691263,25.9814288 C30.5691263,24.3861597 29.4381439,23.0506188 27.9360187,22.7328546 L27.9360187,21.1859486 C29.4381439,20.8681845 30.5691263,19.5326436 30.5691263,17.9373744 L30.5691263,14.6511843 C30.5691263,13.0555569 29.4381439,11.7200161 27.9360187,11.4022519 L27.9360187,9.85534596 C29.4381439,9.53794 30.5691263,8.2020409 30.5691263,6.60677165 L30.5691263,3.32058163 C30.5687681,1.48958668 29.0791815,0 27.2485447,0 L6.74577116,0 C4.91477612,0 3.42518944,1.48958668 3.42518944,3.32058163 L3.42518944,6.60677165 C3.42518944,8.2020409 4.55617196,9.53794 6.05829718,9.85534596 L6.05829718,11.4022519 C4.55617196,11.7200161 3.42518944,13.0555569 3.42518944,14.6511843 L3.42518944,17.9373744 C3.42518944,19.5326436 4.55617196,20.8681845 6.05829718,21.1859486 L6.05829718,22.7328546 C4.55617196,23.0506188 3.42518944,24.3861597 3.42518944,25.9814288 L3.42518944,29.2679771 C3.42518944,29.8017636 3.552725,30.3065321 3.77770345,30.7543395 L0.917109616,30.7543395 C0.410549806,30.7543395 2.84217094e-14,31.1648894 2.84217094e-14,31.6714492 L2.84217094e-14,46.0389027 C2.84217094e-14,46.5454625 0.410549806,46.9560123 0.917109616,46.9560123 L33.0768479,46.9560123 C33.5834077,46.9560123 33.9939575,46.5454625 33.9939575,46.0389027 L33.9939575,31.6714492 C33.9939575,31.1648894 33.5834077,30.7543395 33.0768479,30.7543395 Z M7.89251641,11.3306027 L7.89251641,9.92735337 L26.1017995,9.92735337 L26.1017995,11.3306027 L7.89251641,11.3306027 Z M5.25940868,6.60677165 L5.25940868,3.32058163 C5.25940868,2.50091491 5.92610445,1.83421923 6.74577116,1.83421923 L27.2485447,1.83421923 C28.0682114,1.83421923 28.7349071,2.50091491 28.7349071,3.32058163 L28.7349071,6.60677165 C28.7349071,7.42643837 28.0682114,8.09313414 27.2485447,8.09313414 L6.74577116,8.09313414 C5.92610445,8.09313414 5.25940868,7.42643837 5.25940868,6.60677165 Z M5.25940868,17.9373744 L5.25940868,14.6511843 C5.25940868,13.8315176 5.92610445,13.1648219 6.74577116,13.1648219 L27.2485447,13.1648219 C28.0682114,13.1648219 28.7349071,13.8315176 28.7349071,14.6511843 L28.7349071,17.9373744 C28.7349071,18.7566828 28.0682114,19.4237368 27.2485447,19.4237368 L20.6657756,19.4237368 C20.1592157,19.4237368 19.7486659,19.8342866 19.7486659,20.3408465 C19.7486659,20.847048 20.1592157,21.2579561 20.6657756,21.2579561 L26.1017995,21.2579561 L26.1017995,22.6608472 L7.89251641,22.6608472 L7.89251641,21.2579561 L13.3288986,21.2579561 C13.8351001,21.2579561 14.2460082,20.847048 14.2460082,20.3408465 C14.2460082,19.8342866 13.8351001,19.4237368 13.3288986,19.4237368 L6.74577116,19.4237368 C5.92610445,19.4237368 5.25940868,18.7566828 5.25940868,17.9373744 Z M5.25940868,29.2679771 L5.25940868,25.9814288 C5.25940868,25.1617621 5.92610445,24.4950664 6.74577116,24.4950664 L27.2485447,24.4950664 C28.0682114,24.4950664 28.7349071,25.1617621 28.7349071,25.9814288 L28.7349071,29.2679771 C28.7349071,30.0872856 28.0682114,30.7543395 27.2485447,30.7543395 L6.74577116,30.7543395 C5.92610445,30.7543395 5.25940868,30.0872856 5.25940868,29.2679771 Z M15.1340999,32.5885588 L18.860216,32.5885588 L18.860216,35.4659902 L15.1340999,35.4659902 L15.1340999,32.5885588 Z M4.83882798,45.1217931 L4.83882798,37.3002094 L6.64976116,37.3002094 L6.64976116,39.3250155 C6.64976116,39.8315752 7.06066928,40.2421251 7.56687078,40.2421251 C8.07343059,40.2421251 8.48398039,39.8315752 8.48398039,39.3250155 L8.48398039,37.3002094 L10.2952719,37.3002094 L10.2952719,45.1217931 L4.83882798,45.1217931 Z M23.6986857,45.1217931 L23.6986857,37.3002094 L25.5099772,37.3002094 L25.5099772,39.3250155 C25.5099772,39.8315752 25.920527,40.2421251 26.4270868,40.2421251 C26.9336466,40.2421251 27.3441964,39.8315752 27.3441964,39.3250155 L27.3441964,37.3002094 L29.1554879,37.3002094 L29.1554879,45.1217931 L23.6986857,45.1217931 Z M32.1597383,45.1217931 L30.9897071,45.1217931 L30.9897071,36.3830998 C30.9897071,35.87654 30.5791573,35.4659902 30.0725975,35.4659902 L22.781576,35.4659902 C22.2750162,35.4659902 21.8644664,35.87654 21.8644664,36.3830998 L21.8644664,45.1217931 L12.1294911,45.1217931 L12.1294911,36.3830998 C12.1294911,35.87654 11.7189413,35.4659902 11.2123815,35.4659902 L3.92171837,35.4659902 C3.41515856,35.4659902 3.00460875,35.87654 3.00460875,36.3830998 L3.00460875,45.1217931 L1.83421923,45.1217931 L1.83421923,32.5885588 L13.2998806,32.5885588 L13.2998806,36.3830998 C13.2998806,36.8896595 13.7104305,37.3002094 14.2169903,37.3002094 L19.7773256,37.3002094 C20.2838853,37.3002094 20.6944352,36.8896595 20.6944352,36.3830998 L20.6944352,32.5885588 L32.1600966,32.5885588 L32.1600966,45.1217931 L32.1597383,45.1217931 Z" id="Shape" fill-rule="nonzero"></path>
                        <path d="M16.9973371,21.2579561 C17.5021056,21.2579561 17.9144467,20.8459732 17.9144467,20.3408465 C17.9144467,19.8357196 17.5021056,19.4237368 16.9973371,19.4237368 C16.491852,19.4237368 16.0802275,19.8357196 16.0802275,20.3408465 C16.0802275,20.8459732 16.491852,21.2579561 16.9973371,21.2579561 Z" id="Path"></path>
                    </g>
                </g>
            </g>
        </g>
    </g>
</svg>