<?xml version="1.0" encoding="UTF-8"?>
<svg width="49px" height="52px" viewBox="0 0 49 52" version="1.1" xmlns="http://www.w3.org/2000/svg" xmlns:xlink="http://www.w3.org/1999/xlink">
    <!-- Generator: Sketch 52.5 (67469) - http://www.bohemiancoding.com/sketch -->
    <title>grocery-weight-scale</title>
    <desc>Created with Sketch.</desc>
    <g id="Pages" stroke="none" stroke-width="1" fill="none" fill-rule="evenodd">
        <g id="dto01_main-copy" transform="translate(-401.000000, -754.000000)" fill="#C81C1C" fill-rule="nonzero">
            <g id="Category" transform="translate(375.000000, 548.000000)">
                <g id="05" transform="translate(0.000000, 192.000000)">
                    <g id="grocery-weight-scale" transform="translate(26.000000, 14.000000)">
                        <path d="M45.9725614,51.9852515 L2.97266667,51.9852515 C2.0920117,51.9852515 1.26350877,51.5973801 0.697438596,50.9229006 C0.131368421,50.2517661 -0.106736842,49.3682222 0.0462222222,48.4989708 L5.47642105,17.6585614 C5.72516959,16.2358596 6.95614035,15.203462 8.40195322,15.203462 L22.1533684,15.203462 L22.1533684,14.6291813 L6.01299415,14.6291813 C4.37499415,14.6291813 3.04215205,13.2955789 3.04215205,11.6575789 L3.04215205,2.96992982 C3.04215205,1.33284211 4.37499415,0 6.01299415,0 C7.65084211,0 8.98368421,1.33284211 8.98368421,2.96992982 L8.98368421,8.68719298 L41.2647368,8.68719298 L41.2647368,2.96992982 C41.2647368,1.33284211 42.5975789,0 44.2363392,0 C45.8741871,0 47.2070292,1.33284211 47.2070292,2.96992982 L47.2070292,11.6574269 C47.2070292,13.2963392 45.8741871,14.6290292 44.2363392,14.6290292 L28.0949006,14.6290292 L28.0949006,15.2033099 L40.3249357,15.2033099 C41.7602573,15.2033099 42.9895556,16.2270409 43.247883,17.6389474 L48.8947485,48.4772281 C49.0539415,49.3457193 48.8208538,50.2333684 48.2556959,50.9140819 C47.6879532,51.5958596 46.8559532,51.9852515 45.9725614,51.9852515 Z M8.40210526,16.9839298 C7.82311111,16.9839298 7.33017544,17.3968889 7.23012865,17.9667602 L1.80069006,48.808538 C1.73895906,49.1553567 1.83383626,49.5074971 2.06069006,49.776924 C2.28936842,50.05 2.6214386,50.2046316 2.97357895,50.2046316 L45.9734737,50.2046316 C46.3265263,50.2046316 46.6604211,50.0474152 46.8881871,49.7752515 C47.1142807,49.5021754 47.2080936,49.1457778 47.1448421,48.7963743 L41.4979766,17.959462 C41.3944327,17.3943041 40.9014971,16.9839298 40.326,16.9839298 L26.3147368,16.9839298 L26.3147368,12.8485614 L44.2366433,12.8485614 C44.892269,12.8485614 45.4268655,12.3133567 45.4268655,11.6574269 L45.4268655,2.96992982 C45.4268655,2.314 44.892117,1.78061988 44.2366433,1.78061988 C43.5802573,1.78061988 43.0455088,2.314 43.0455088,2.96992982 L43.0455088,10.4676608 L7.20321637,10.4676608 L7.20321637,2.96992982 C7.20321637,2.314 6.66938012,1.78061988 6.01299415,1.78061988 C5.35660819,1.78061988 4.82277193,2.314 4.82277193,2.96992982 L4.82277193,11.6574269 C4.82277193,12.314269 5.35660819,12.8485614 6.01299415,12.8485614 L23.9339883,12.8485614 L23.9339883,16.9839298 L8.40210526,16.9839298 Z" id="Shape"></path>
                        <path d="M24.4731462,40.3301053 C20.28,40.3301053 16.8683743,36.9184795 16.8683743,32.7245731 C16.8683743,29.4513099 18.976655,26.5577076 22.1142924,25.5257661 L23.2827719,25.1410877 L23.2827719,32.7245731 C23.2827719,33.3800468 23.8166082,33.913883 24.4729942,33.913883 C25.1284678,33.913883 25.6632164,33.3798947 25.6632164,32.7245731 L25.6632164,25.1410877 L26.8309357,25.5257661 C29.9685731,26.5577076 32.0777661,29.4511579 32.0777661,32.7245731 C32.0777661,36.9186316 28.6661404,40.3301053 24.4731462,40.3301053 Z M21.5023041,27.7470175 C19.7565029,28.7789591 18.6488421,30.6533918 18.6488421,32.7244211 C18.6488421,35.9359532 21.261462,38.5494854 24.4729942,38.5494854 C27.6837661,38.5494854 30.2971462,35.9361053 30.2971462,32.7244211 C30.2971462,30.6533918 29.1894854,28.7789591 27.4436842,27.7470175 L27.4436842,32.7244211 C27.4436842,34.362269 26.1108421,35.6941988 24.4728421,35.6941988 C22.8348421,35.6941988 21.502,34.362269 21.502,32.7244211 L21.502,27.7470175 L21.5023041,27.7470175 Z" id="Shape"></path>
                    </g>
                </g>
            </g>
        </g>
    </g>
</svg>