<?xml version="1.0" encoding="UTF-8"?>
<svg width="49px" height="44px" viewBox="0 0 49 44" version="1.1" xmlns="http://www.w3.org/2000/svg" xmlns:xlink="http://www.w3.org/1999/xlink">
    <!-- Generator: Sketch 52.5 (67469) - http://www.bohemiancoding.com/sketch -->
    <title>air-conditioner</title>
    <desc>Created with Sketch.</desc>
    <g id="Pages" stroke="none" stroke-width="1" fill="none" fill-rule="evenodd">
        <g id="dto01_main-copy" transform="translate(-701.000000, -759.000000)" fill="#C81C1C">
            <g id="Category" transform="translate(375.000000, 548.000000)">
                <g id="06" transform="translate(300.000000, 192.000000)">
                    <g id="air-conditioner" transform="translate(26.000000, 19.000000)">
                        <path d="M47.4922293,0 L0.946437239,0 C0.423882702,0 5.68434189e-14,0.423882702 5.68434189e-14,0.946806773 L5.68434189e-14,16.8034189 C5.68434189e-14,17.0543486 0.0997806256,17.2953002 0.27716832,17.4726879 L5.90368424,23.0988343 C5.90368424,23.0992038 5.90368424,23.0992038 5.90405377,23.0992038 C5.92548807,23.1210078 5.9484007,23.141703 5.97205239,23.16092 C5.97833484,23.1664634 5.98535646,23.1708981 5.99200855,23.1757023 C6.00974732,23.1897456 6.02785562,23.2037887 6.046703,23.2163537 C6.05224638,23.2200492 6.05852884,23.2233752 6.06444176,23.2270709 C6.08439793,23.2400054 6.10509316,23.2529398 6.12615792,23.2640266 C6.13022308,23.2662439 6.13428824,23.2680917 6.1383533,23.2699395 C6.16163546,23.2821349 6.18565669,23.2935912 6.21004754,23.3039389 C6.21263447,23.3050476 6.21559093,23.3057866 6.2185474,23.3068953 C6.24404685,23.3172429 6.27028547,23.3268514 6.29689363,23.3349817 C6.30021962,23.3360903 6.30317608,23.3364599 6.30650208,23.3375686 C6.3327407,23.3449597 6.35934885,23.3519813 6.38669608,23.3575247 C6.39408733,23.3593725 6.40184801,23.359742 6.40923917,23.3612203 C6.4321517,23.3649159 6.45506432,23.368981 6.47834639,23.3715678 C6.50975886,23.3745243 6.54117124,23.3760026 6.57295316,23.3760026 L41.8634959,23.3760026 C41.8949083,23.3760026 41.9266903,23.3745243 41.9577332,23.3715678 C41.9810153,23.368981 42.0039279,23.3649159 42.0268404,23.3612203 C42.0342316,23.359742 42.0419923,23.3590029 42.049753,23.3575247 C42.0767307,23.3523509 42.1029693,23.3453293 42.129208,23.3375686 C42.1325339,23.3364599 42.1358599,23.3360903 42.1391859,23.3349817 C42.1657941,23.3272209 42.1916632,23.3176125 42.2171626,23.3072649 C42.2201191,23.3057866 42.2234452,23.3050476 42.2264017,23.3039389 C42.2504229,23.2935912 42.2740746,23.2821349 42.2973567,23.2703091 C42.3014218,23.2680917 42.3058565,23.2666136 42.3099216,23.2643962 C42.3313559,23.2529398 42.3516816,23.2403749 42.3716378,23.2274404 C42.3775507,23.2237448 42.3838332,23.2204188 42.3897461,23.2163537 C42.4078544,23.2041582 42.4252236,23.1908542 42.4425929,23.1771805 C42.4496144,23.1716372 42.4573752,23.1668329 42.4643967,23.16092 C42.4828746,23.1457682 42.5006134,23.1287685 42.5179827,23.1121384 C42.5227869,23.1077037 42.5279607,23.1036385 42.532765,23.0992038 L48.1614982,17.4730575 C48.3388859,17.2953002 48.4386665,17.0547181 48.4386665,16.8034189 L48.4386665,0.946806773 C48.4386665,0.423882702 48.0147838,1.68055384e-16 47.4922293,1.68055384e-16 Z M7.51939049,21.4827585 L7.51939049,15.0469112 L40.9166892,15.0469112 L40.9166892,21.4827585 L7.51939049,21.4827585 Z M46.5454224,16.4109487 L42.8099332,20.1449597 L42.8099332,14.1001043 C42.8099332,13.5771803 42.3864201,13.1536671 41.8634959,13.1536671 L6.57295316,13.1536671 C6.05002909,13.1536671 5.62614638,13.5771803 5.62614638,14.1001043 L5.62614638,20.1442205 L1.89324411,16.4113182 L1.89324411,1.89324411 L46.5454224,1.89324411 L46.5454224,16.4109487 Z" id="Shape" fill-rule="nonzero"></path>
                        <path d="M37.8408604,17.3182129 L28.0017563,17.3182129 C27.4792017,17.3182129 27.055319,17.7420955 27.055319,18.2646501 C27.055319,18.7875743 27.4792017,19.2114569 28.0017563,19.2114569 L37.8408604,19.2114569 C38.3637845,19.2114569 38.7872977,18.7875743 38.7872977,18.2646501 C38.7872977,17.7420955 38.3637845,17.3182129 37.8408604,17.3182129 Z" id="Path"></path>
                        <path d="M20.4343234,17.3182129 L10.5978061,17.3182129 C10.0752515,17.3182129 9.65136882,17.7420955 9.65136882,18.2646501 C9.65136882,18.7875743 10.074882,19.2114569 10.5978061,19.2114569 L20.4343234,19.2114569 C20.9568779,19.2114569 21.3807606,18.7875743 21.3807606,18.2646501 C21.3807606,17.7420955 20.9568779,17.3182129 20.4343234,17.3182129 Z" id="Path"></path>
                        <path d="M6.57295316,6.32867554 L9.6646729,6.32867554 C10.1875971,6.32867554 10.6114797,5.90479284 10.6114797,5.3822383 C10.6114797,4.85931414 10.1875971,4.43543144 9.6646729,4.43543144 L6.57295316,4.43543144 C6.05002909,4.43543144 5.62614638,4.85931414 5.62614638,5.3822383 C5.62614638,5.90479284 6.05002909,6.32867554 6.57295316,6.32867554 Z" id="Path"></path>
                        <path d="M30.203581,26.3527898 C30.203581,25.8298657 29.7796984,25.405983 29.2567742,25.405983 C28.7342196,25.405983 28.310337,25.8298657 28.310337,26.3527898 C28.310337,27.0272327 27.9599962,27.7918475 27.5889604,28.6011788 C27.1499257,29.5598116 26.696109,30.5509653 26.696109,31.638204 C26.696109,32.7258123 27.1499257,33.7169661 27.5889604,34.6752292 C27.9599962,35.4849301 28.310337,36.2495449 28.310337,36.9239877 C28.310337,37.5984306 27.9599962,38.3626759 27.5889604,39.1723768 C27.1499257,40.1310095 26.696109,41.1217936 26.696109,42.209402 C26.696109,42.7323261 27.1199916,43.1562087 27.6425462,43.1562087 C28.1654704,43.1562087 28.589353,42.7323261 28.589353,42.209402 C28.589353,41.5349592 28.9393242,40.7703442 29.3103601,39.9610129 C29.7497642,39.0023802 30.203581,38.0112265 30.203581,36.9239877 C30.203581,35.8363795 29.7493946,34.8452257 29.3103601,33.8869626 C28.9393242,33.0772617 28.589353,32.3126468 28.589353,31.638204 C28.589353,30.9641308 28.9393242,30.199516 29.3103601,29.389815 C29.7493946,28.4311823 30.203581,27.4400286 30.203581,26.3527898 Z" id="Path"></path>
                        <path d="M13.2796863,26.3527898 C13.2796863,25.8298657 12.8558036,25.405983 12.3328795,25.405983 C11.8099553,25.405983 11.3864422,25.8298657 11.3864422,26.3527898 C11.3864422,27.0272327 11.0361015,27.7918475 10.6650656,28.6011788 C10.2260311,29.5598116 9.77184458,30.5509653 9.77184458,31.638204 C9.77184458,32.7258123 10.2260311,33.7169661 10.6650656,34.6752292 C11.0361015,35.4849301 11.3864422,36.2495449 11.3864422,36.9239877 C11.3864422,37.5984306 11.0361015,38.3626759 10.6650656,39.1723768 C10.2260311,40.1310095 9.77184458,41.1217936 9.77184458,42.209402 C9.77184458,42.7323261 10.1957273,43.1562087 10.7186515,43.1562087 C11.241206,43.1562087 11.6650887,42.7323261 11.6650887,42.209402 C11.6650887,41.5349592 12.0154294,40.7703442 12.3864653,39.9610129 C12.8254999,39.0023802 13.2796863,38.0112265 13.2796863,36.9239877 C13.2796863,35.8363795 12.8254999,34.8452257 12.3864653,33.8869626 C12.0154294,33.0772617 11.6650887,32.3126468 11.6650887,31.638204 C11.6650887,30.9641308 12.0154294,30.199516 12.3864653,29.389815 C12.8254999,28.4311823 13.2796863,27.4400286 13.2796863,26.3527898 Z" id="Path"></path>
                        <path d="M21.7429271,26.3527898 C21.7429271,25.8298657 21.3190444,25.405983 20.7961203,25.405983 C20.2735657,25.405983 19.849683,25.8298657 19.849683,26.3527898 C19.849683,27.026863 19.4989728,27.7911084 19.1271977,28.6008093 C18.6874241,29.5594419 18.2324986,30.5505957 18.2324986,31.638204 C18.2324986,32.7261819 18.6874241,33.7173356 19.1271977,34.6759683 C19.4989728,35.4852996 19.849683,36.2495449 19.849683,36.9236182 C19.849683,37.598061 19.4989728,38.3623064 19.1271977,39.1716377 C18.6874241,40.1302704 18.2324986,41.1214241 18.2324986,42.209402 C18.2324986,42.7319566 18.6563813,43.1558392 19.1793053,43.1558392 C19.70186,43.1558392 20.1257427,42.7323261 20.1257427,42.209402 C20.1257427,41.5353287 20.4764529,40.7707139 20.848228,39.9613825 C21.2880016,39.0027498 21.7429271,38.011596 21.7429271,36.9236182 C21.7429271,35.8360099 21.2880016,34.8448562 20.848228,33.8862235 C20.4764529,33.0768921 20.1257427,32.3122773 20.1257427,31.638204 C20.1257427,30.9641308 20.4764529,30.199516 20.8478584,29.3901845 C21.2880016,28.4315519 21.7429271,27.4403981 21.7429271,26.3527898 Z" id="Path"></path>
                        <path d="M38.6668219,26.3527898 C38.6668219,25.8298657 38.2429392,25.405983 37.7203846,25.405983 C37.1974605,25.405983 36.7735778,25.8298657 36.7735778,26.3527898 C36.7735778,27.026863 36.4228676,27.7911084 36.051462,28.6008093 C35.6113188,29.5594419 35.1567629,30.5505957 35.1567629,31.638204 C35.1567629,32.7261819 35.6113188,33.7173356 36.051462,34.6759683 C36.4228676,35.4852996 36.7735778,36.2495449 36.7735778,36.9236182 C36.7735778,37.598061 36.4228676,38.3623064 36.051462,39.1716377 C35.6113188,40.1302704 35.1567629,41.1214241 35.1567629,42.209402 C35.1567629,42.7319566 35.580276,43.1558392 36.1032001,43.1558392 C36.6261243,43.1558392 37.0496374,42.7323261 37.0496374,42.209402 C37.0496374,41.5353287 37.4007172,40.7707139 37.7721227,39.9613825 C38.2118964,39.0027498 38.6668219,38.011596 38.6668219,36.9236182 C38.6668219,35.8360099 38.2118964,34.8448562 37.7721227,33.8862235 C37.4007172,33.0768921 37.0496374,32.3122773 37.0496374,31.638204 C37.0496374,30.9641308 37.4007172,30.199516 37.7721227,29.3901845 C38.2118964,28.4315519 38.6668219,27.4403981 38.6668219,26.3527898 Z" id="Path"></path>
                        <path d="M24.2182246,17.3182129 C23.6978873,17.3182129 23.2714178,17.7446824 23.2714178,18.2650196 C23.2714178,18.7849873 23.6978873,19.2114569 24.2182246,19.2114569 C24.7407792,19.2114569 25.1646619,18.7849873 25.1646619,18.2650196 C25.1646619,17.7446824 24.7407792,17.3182129 24.2182246,17.3182129 Z" id="Path"></path>
                    </g>
                </g>
            </g>
        </g>
    </g>
</svg>