<?xml version="1.0" encoding="UTF-8"?>
<svg width="11px" height="7px" viewBox="0 0 11 7" version="1.1" xmlns="http://www.w3.org/2000/svg" xmlns:xlink="http://www.w3.org/1999/xlink">
    <!-- Generator: Sketch 52.5 (67469) - http://www.bohemiancoding.com/sketch -->
    <title>check</title>
    <desc>Created with Sketch.</desc>
    <g id="Pages" stroke="none" stroke-width="1" fill="none" fill-rule="evenodd">
        <g id="dto03_spisok_tovarov" transform="translate(-467.000000, -1002.000000)" fill="#FFFFFF" fill-rule="nonzero">
            <g id="Filter" transform="translate(375.000000, 262.000000)">
                <g id="Цвет" transform="translate(0.000000, 667.000000)">
                    <g id="цвета" transform="translate(15.000000, 64.000000)">
                        <g id="check" transform="translate(77.000000, 9.000000)">
                            <path d="M10.7899074,0.977920588 L9.82578104,0.178520588 C9.69358239,0.0688264706 9.53280361,0.0139588235 9.34381716,0.0139588235 C9.15465688,0.0139588235 8.9938781,0.0688264706 8.86167946,0.178520588 L4.21103837,4.0404 L2.12677427,2.30635588 C1.99442664,2.19662059 1.83374718,2.14181471 1.64476072,2.14181471 C1.45565011,2.14181471 1.29497065,2.19662059 1.16262302,2.30635588 L0.198496614,3.10577647 C0.0661489842,3.21549118 0,3.34875882 0,3.50553824 C0,3.66219412 0.0661489842,3.79558529 0.198496614,3.90527941 L2.76477427,6.03305294 L3.72897517,6.83245294 C3.86124831,6.94222941 4.02197743,6.99703529 4.21103837,6.99703529 C4.40002483,6.99703529 4.56075395,6.94208529 4.69310158,6.83245294 L5.65727765,6.03305294 L10.7899074,1.77738235 C10.9221309,1.66764706 10.9884041,1.5344 10.9884041,1.37762059 C10.9885034,1.22092353 10.9221309,1.08765588 10.7899074,0.977920588 Z" id="Shape"></path>
                        </g>
                    </g>
                </g>
            </g>
        </g>
    </g>
</svg>