<?xml version="1.0" encoding="UTF-8"?>
<svg width="26px" height="19px" viewBox="0 0 26 19" version="1.1" xmlns="http://www.w3.org/2000/svg" xmlns:xlink="http://www.w3.org/1999/xlink">
    <!-- Generator: Sketch 52.5 (67469) - http://www.bohemiancoding.com/sketch -->
    <title>delivery</title>
    <desc>Created with Sketch.</desc>
    <g id="Pages" stroke="none" stroke-width="1" fill="none" fill-rule="evenodd">
        <g id="dto04_card" transform="translate(-1295.000000, -840.000000)" fill="#C81C1C" fill-rule="nonzero">
            <g id="Доп-Информация" transform="translate(1275.000000, 667.000000)">
                <g id="delivery" transform="translate(20.000000, 173.000000)">
                    <path d="M22.4191673,4.76830548 L18.8791141,4.76830548 L18.8791141,0.0312036554 L2.36001901,0.0312036554 C1.06209506,0.0312036554 0,1.09822977 0,2.39975457 L0,15.425718 L2.36001901,15.425718 C2.36001901,17.3915483 3.94132319,18.9763864 5.89898479,18.9763864 C7.85882129,18.9763864 9.43903802,17.3904569 9.43903802,15.425718 L16.5180076,15.425718 C16.5180076,17.3915483 18.0993118,18.9763864 20.0580608,18.9763864 C22.0168099,18.9763864 23.5970266,17.3904569 23.5970266,15.425718 L25.9581331,15.425718 L25.9581331,9.50431593 L22.4191673,4.76830548 Z M5.89898479,17.2026893 C4.92012928,17.2026893 4.1295019,16.4081123 4.1295019,15.425718 C4.1295019,14.4422324 4.91904183,13.6487467 5.89898479,13.6487467 C6.87892776,13.6487467 7.66955513,14.441141 7.66955513,15.425718 C7.66955513,16.4070209 6.87887833,17.2026893 5.89898479,17.2026893 Z M21.8285817,6.54418538 L24.141,9.50431593 L18.8780266,9.50431593 L18.8780266,6.54418538 L21.8285817,6.54418538 Z M20.0591483,17.2026893 C19.0792053,17.2026893 18.2885779,16.4081123 18.2885779,15.425718 C18.2885779,14.4422324 19.0781179,13.6487467 20.0591483,13.6487467 C21.0380038,13.6487467 21.8286312,14.441141 21.8286312,15.425718 C21.8285817,16.4070209 21.0379544,17.2026893 20.0591483,17.2026893 Z" id="Shape"></path>
                </g>
            </g>
        </g>
    </g>
</svg>