<?xml version="1.0" encoding="UTF-8"?>
<svg width="58px" height="44px" viewBox="0 0 58 44" version="1.1" xmlns="http://www.w3.org/2000/svg" xmlns:xlink="http://www.w3.org/1999/xlink">
    <!-- Generator: Sketch 52.5 (67469) - http://www.bohemiancoding.com/sketch -->
    <title>download</title>
    <desc>Created with Sketch.</desc>
    <g id="Pages" stroke="none" stroke-width="1" fill="none" fill-rule="evenodd">
        <g id="dto01_main-copy" transform="translate(-1292.000000, -888.000000)" fill="#333333">
            <g id="Category" transform="translate(375.000000, 548.000000)">
                <g id="See-all" transform="translate(900.000000, 322.000000)">
                    <g id="download" transform="translate(46.000000, 40.000000) rotate(-90.000000) translate(-46.000000, -40.000000) translate(24.000000, 11.000000)">
                        <path d="M12.9047526,27.7070039 C12.5221213,27.3243726 11.9036483,27.3243726 11.5210171,27.7070039 C11.1383858,28.0896351 11.1383858,28.7081081 11.5210171,29.0907394 L21.286432,38.8561543 C21.4684509,39.041109 21.7170144,39.1438617 21.9773211,39.1438617 C21.9841713,39.1438617 21.9910215,39.1399473 21.9978717,39.1399473 C22.0047218,39.1399473 22.0105934,39.1438617 22.0184222,39.1438617 C22.3442948,39.1438617 22.6183019,38.9745645 22.7964064,38.7299153 L32.4757048,29.0506169 C32.8583361,28.6679857 32.8583361,28.0495127 32.4757048,27.6668814 C32.0930736,27.2842502 31.4746006,27.2842502 31.0919693,27.6668814 L22.9970187,35.761832 L22.9970187,0.978596541 C22.9970187,0.437432654 22.5595861,0 22.0184222,0 C21.4772583,0 21.0398256,0.437432654 21.0398256,0.978596541 L21.0398256,35.8440341 L12.9047526,27.7070039 Z" id="Path"></path>
                        <path d="M28.868598,15.6575447 C28.3274341,15.6575447 27.8900014,16.0949773 27.8900014,16.6361412 C27.8900014,17.1773051 28.3274341,17.6147377 28.868598,17.6147377 L41.590353,17.6147377 L41.590353,55.7800029 L2.44649135,55.7800029 L2.44649135,17.6147377 L15.1682464,17.6147377 C15.7094103,17.6147377 16.1468429,17.1773051 16.1468429,16.6361412 C16.1468429,16.0949773 15.7094103,15.6575447 15.1682464,15.6575447 L0.489298271,15.6575447 L0.489298271,57.7371959 L43.5475461,57.7371959 L43.5475461,15.6575447 L28.868598,15.6575447 Z" id="Path"></path>
                    </g>
                </g>
            </g>
        </g>
    </g>
</svg>