<?xml version="1.0" encoding="UTF-8"?>
<svg width="14px" height="14px" viewBox="0 0 14 14" version="1.1" xmlns="http://www.w3.org/2000/svg" xmlns:xlink="http://www.w3.org/1999/xlink">
    <!-- Generator: Sketch 52.5 (67469) - http://www.bohemiancoding.com/sketch -->
    <title>grid 3</title>
    <desc>Created with Sketch.</desc>
    <g id="Pages" stroke="none" stroke-width="1" fill="none" fill-rule="evenodd">
        <g id="dto03_spisok_tovarov" transform="translate(-1488.000000, -270.000000)" fill="#999999" fill-rule="nonzero">
            <g id="Отображение" transform="translate(1480.000000, 262.000000)">
                <g id="grid-3" transform="translate(8.000000, 8.000000)">
                    <path d="M0,0 L0,3.5 L3.5,3.5 L3.5,0 L0,0 Z M5.25,0 L5.25,3.5 L8.75,3.5 L8.75,0 L5.25,0 Z M10.5,0 L10.5,3.5 L14,3.5 L14,0 L10.5,0 Z M0,5.25 L0,8.75 L3.5,8.75 L3.5,5.25 L0,5.25 Z M5.25,5.25 L5.25,8.75 L8.75,8.75 L8.75,5.25 L5.25,5.25 Z M10.5,5.25 L10.5,8.75 L14,8.75 L14,5.25 L10.5,5.25 Z M0,10.5 L0,14 L3.5,14 L3.5,10.5 L0,10.5 Z M5.25,10.5 L5.25,14 L8.75,14 L8.75,10.5 L5.25,10.5 Z M10.5,10.5 L10.5,14 L14,14 L14,10.5 L10.5,10.5 Z" id="Shape"></path>
                </g>
            </g>
        </g>
    </g>
</svg>