<?xml version="1.0" encoding="UTF-8"?>
<svg width="19px" height="17px" viewBox="0 0 19 17" version="1.1" xmlns="http://www.w3.org/2000/svg" xmlns:xlink="http://www.w3.org/1999/xlink">
    <!-- Generator: Sketch 52.5 (67469) - http://www.bohemiancoding.com/sketch -->
    <title>heart-empty</title>
    <desc>Created with Sketch.</desc>
    <g id="heart-empty" stroke="none" stroke-width="1" fill="none" fill-rule="evenodd">
        <path d="M2.35183507,2.36090468 C3.22224739,1.48465267 4.38151337,1 5.6139556,1 C6.84639783,1 8.00951518,1.48465267 8.88377889,2.36478191 L9.16878115,2.65169628 C9.25736294,2.74087237 9.37675578,2.79127625 9.50385138,2.79127625 C9.6270956,2.79127625 9.75033983,2.74087237 9.83892161,2.65169628 L10.1162211,2.37253635 C10.9904848,1.49240711 12.1497508,1.00775444 13.3860444,1.00775444 C14.6184866,1.00775444 15.7777526,1.49240711 16.6481649,2.36865913 C17.5224286,3.24878837 18,4.41583199 18,5.65654281 C18,6.89725363 17.5185773,8.06429725 16.6443135,8.94442649 L9.71952877,15.9156704 C9.6078387,16.0281099 9.40371545,16.0281099 9.28817399,15.9156704 L2.35568645,8.93667205 C1.48142275,8.05654281 1,6.88949919 1,5.64878837 C1,4.40807754 1.48142275,3.24103393 2.35183507,2.36090468 Z" id="Path" stroke="#C81C1C" fill-rule="nonzero"></path>
    </g>
</svg>