<?xml version="1.0" encoding="UTF-8"?>
<svg width="17px" height="15px" viewBox="0 0 17 15" version="1.1" xmlns="http://www.w3.org/2000/svg" xmlns:xlink="http://www.w3.org/1999/xlink">
    <!-- Generator: Sketch 52.5 (67469) - http://www.bohemiancoding.com/sketch -->
    <title>heart-icon</title>
    <desc>Created with Sketch.</desc>
    <g id="Pages" stroke="none" stroke-width="1" fill="none" fill-rule="evenodd">
        <g id="dto01_main-copy" transform="translate(-1310.000000, -97.000000)" fill="#FFFFFF" fill-rule="nonzero">
            <g id="Header" transform="translate(0.000000, 7.000000)">
                <g id="Liked" transform="translate(1310.000000, 88.000000)">
                    <g id="Like/white" transform="translate(0.000000, 2.000000)">
                        <path d="M1.31866235,1.31866235 C2.16771561,0.469609101 3.29853432,2.66453526e-15 4.50073362,2.66453526e-15 C5.70293292,2.66453526e-15 6.83750851,0.469609101 7.69031863,1.32241923 L7.96832722,1.60042782 C8.0547353,1.68683589 8.17119835,1.73567524 8.29517516,1.73567524 C8.41539509,1.73567524 8.53561501,1.68683589 8.62202309,1.60042782 L8.89251793,1.32993297 C9.74532806,0.477122846 10.8761468,0.00751374561 12.0821029,0.00751374561 C13.2843022,0.00751374561 14.415121,0.477122846 15.2641742,1.3261761 C16.1169843,2.17898623 16.5828366,3.30980494 16.5828366,4.51200424 C16.5828366,5.71420354 16.1132275,6.84502225 15.2604173,7.69783238 L8.50556003,14.4526897 C8.39661072,14.561639 8.19749646,14.561639 8.08479028,14.4526897 L1.32241923,7.69031863 C0.469609101,6.83750851 1.4033219e-13,5.70668979 1.4033219e-13,4.50449049 C1.40065248e-13,3.3022912 0.469609101,2.17147248 1.31866235,1.31866235 Z" id="Path"></path>
                    </g>
                </g>
            </g>
        </g>
    </g>
</svg>