<?xml version="1.0" encoding="UTF-8"?>
<svg width="16px" height="14px" viewBox="0 0 16 14" version="1.1" xmlns="http://www.w3.org/2000/svg" xmlns:xlink="http://www.w3.org/1999/xlink">
    <!-- Generator: Sketch 52.5 (67469) - http://www.bohemiancoding.com/sketch -->
    <title>list</title>
    <desc>Created with Sketch.</desc>
    <g id="Pages" stroke="none" stroke-width="1" fill="none" fill-rule="evenodd">
        <g id="dto03_spisok_tovarov" transform="translate(-1522.000000, -270.000000)" fill="#999999" fill-rule="nonzero">
            <g id="Отображение" transform="translate(1480.000000, 262.000000)">
                <g id="list" transform="translate(42.000000, 8.000000)">
                    <path d="M1,0 C0.44,0 0,0.44 0,1 C0,1.56 0.44,2 1,2 C1.56,2 2,1.56 2,1 C2,0.44 1.56,0 1,0 Z M4,0 L4,2 L16,2 L16,0 L4,0 Z M1,4 C0.44,4 0,4.44 0,5 C0,5.56 0.44,6 1,6 C1.56,6 2,5.56 2,5 C2,4.44 1.56,4 1,4 Z M4,4 L4,6 L16,6 L16,4 L4,4 Z M1,8 C0.44,8 0,8.44 0,9 C0,9.56 0.44,10 1,10 C1.56,10 2,9.56 2,9 C2,8.44 1.56,8 1,8 Z M4,8 L4,10 L16,10 L16,8 L4,8 Z M1,12 C0.44,12 0,12.44 0,13 C0,13.56 0.44,14 1,14 C1.56,14 2,13.56 2,13 C2,12.44 1.56,12 1,12 Z M4,12 L4,14 L16,14 L16,12 L4,12 Z" id="Shape"></path>
                </g>
            </g>
        </g>
    </g>
</svg>