<?xml version="1.0" encoding="UTF-8"?>
<svg width="14px" height="10px" viewBox="0 0 14 10" version="1.1" xmlns="http://www.w3.org/2000/svg" xmlns:xlink="http://www.w3.org/1999/xlink">
    <!-- Generator: Sketch 52.5 (67469) - http://www.bohemiancoding.com/sketch -->
    <title>correo</title>
    <desc>Created with Sketch.</desc>
    <g id="Pages" stroke="none" stroke-width="1" fill="none" fill-rule="evenodd">
        <g id="dto01_main-copy" transform="translate(-385.000000, -10.000000)" fill="#C81C1C">
            <g id="Header" transform="translate(0.000000, 7.000000)">
                <g id="Contacts" transform="translate(385.000000, 0.000000)">
                    <g id="correo" transform="translate(0.000000, 3.000000)">
                        <path d="M13.0306957,1.99303318 C12.912273,1.99303318 12.8234161,2.04838863 12.7907716,2.07218009 L7.03625403,6.58691943 C6.92446635,6.67677725 6.78459905,6.7242654 6.63178009,6.7242654 C6.47853649,6.7242654 6.3334673,6.67563981 6.22088341,6.58530806 L0.641372512,2.22175355 C0.594661611,2.18222749 0.484200948,2.10393365 0.343855924,2.10393365 C0.308663507,2.10393365 5.30805687e-05,2.11469194 5.30805687e-05,2.48635071 L5.30805687e-05,9.18516588 C5.30805687e-05,9.6214218 0.394229384,9.97635071 0.878801896,9.97635071 L12.5139033,9.97635071 C12.9975204,9.97635071 13.3763564,9.62881517 13.3763564,9.18516588 L13.3763564,2.38265403 C13.3763033,2.00398104 13.0660474,1.99303318 13.0306957,1.99303318 Z" id="Path"></path>
                        <path d="M0.530009479,0.638436019 L6.14481896,4.9636019 C6.19678483,5.00824645 6.36961517,5.13734597 6.63162085,5.13734597 C6.8820019,5.13734597 7.05923791,5.0092891 7.09236019,4.9835545 L12.7734673,0.558151659 L12.7805801,0.552417062 C12.8578654,0.487677725 13.0186464,0.352985782 12.9421043,0.18014218 C12.8999583,0.0851184834 12.796982,0.0237440758 12.6796209,0.0237440758 L0.712925118,0.0237440758 C0.569129858,0.0237440758 0.441418009,0.0966824645 0.387435071,0.20957346 C0.35091564,0.286066351 0.319651185,0.442464455 0.521304265,0.630331754 L0.530009479,0.638436019 Z" id="Path"></path>
                    </g>
                </g>
            </g>
        </g>
    </g>
</svg>