<?xml version="1.0" encoding="UTF-8"?>
<svg width="13px" height="12px" viewBox="0 0 13 12" version="1.1" xmlns="http://www.w3.org/2000/svg" xmlns:xlink="http://www.w3.org/1999/xlink">
    <!-- Generator: Sketch 52.5 (67469) - http://www.bohemiancoding.com/sketch -->
    <title>phone</title>
    <desc>Created with Sketch.</desc>
    <g id="Pages" stroke="none" stroke-width="1" fill="none" fill-rule="evenodd">
        <g id="dto01_main-copy" transform="translate(-532.000000, -9.000000)" fill="#C81C1C">
            <g id="Header" transform="translate(0.000000, 7.000000)">
                <g id="Contacts" transform="translate(385.000000, 0.000000)">
                    <path d="M159.709361,11.4914217 L157.701587,9.63380253 C157.301676,9.26532629 156.639415,9.27652155 156.225573,9.65951018 L155.214048,10.5950749 C155.150141,10.5624912 155.083994,10.5284562 155.014447,10.492348 C154.37568,10.1649211 153.501418,9.71614301 152.581439,8.86443906 C151.658734,8.01093834 151.173178,7.20090566 150.818162,6.60959527 C150.7807,6.54695016 150.744806,6.48655102 150.70936,6.42919257 L151.388242,5.80208498 L151.722005,5.49293673 C152.136483,5.10939525 152.147913,4.4969037 151.748935,4.12735631 L149.741162,2.26952977 C149.342185,1.90050068 148.679625,1.91169594 148.265147,2.29523742 L147.699288,2.82172584 L147.714751,2.83592724 C147.525011,3.05990164 147.366458,3.31822201 147.248468,3.5967906 C147.139704,3.86195252 147.071987,4.11498623 147.041024,4.36853824 C146.77591,6.40179181 147.780264,8.26003298 150.50595,10.7816281 C154.273676,14.266949 157.309968,14.003653 157.440956,13.9907991 C157.726239,13.959252 157.999644,13.8961922 158.277494,13.7963678 C158.575999,13.6884924 158.855044,13.5420211 159.097,13.3668705 L159.109363,13.3770291 L159.682618,12.8577278 C160.096236,12.4742554 160.108151,11.8615565 159.709361,11.4914217 Z" id="phone"></path>
                </g>
            </g>
        </g>
    </g>
</svg>