<?xml version="1.0" encoding="UTF-8"?>
<svg width="70px" height="70px" viewBox="0 0 70 70" version="1.1" xmlns="http://www.w3.org/2000/svg" xmlns:xlink="http://www.w3.org/1999/xlink">
    <!-- Generator: Sketch 52.5 (67469) - http://www.bohemiancoding.com/sketch -->
    <title>preloader</title>
    <desc>Created with Sketch.</desc>
    <g id="Website" stroke="none" stroke-width="1" fill="none" fill-rule="evenodd">
        <g id="baltimor01_main_MO" transform="translate(-925.000000, -1589.000000)" fill="">
            <g id="Войти-с-паролем-Copy-3" transform="translate(800.000000, 1390.000000)">
                <g id="preloader" transform="translate(125.000000, 199.000000)">
                    <g transform="translate(35.000000, 35.000000) rotate(360.000000) translate(-35.000000, -35.000000) " id="Combined-Shape">
                        <path d="M66.6099065,31.9167675 C68.3618692,31.9167675 69.7818224,33.3335068 69.7818224,35.0807751 C69.7818224,36.8280434 68.3615421,38.2447827 66.6099065,38.2447827 L53.922243,38.2447827 C52.1706075,38.2447827 50.7503271,36.8280434 50.7503271,35.0807751 C50.7503271,33.3335068 52.1706075,31.9167675 53.922243,31.9167675 L66.6099065,31.9167675 Z M15.8595794,31.9167675 C17.611215,31.9167675 19.0314953,33.3335068 19.0314953,35.0807751 C19.0314953,36.8280434 17.611215,38.2447827 15.8595794,38.2447827 L3.17191589,38.2447827 C1.42028037,38.2447827 0,36.8280434 0,35.0807751 C0,33.3335068 1.42028037,31.9167675 3.17191589,31.9167675 L15.8595794,31.9167675 Z M55.0769159,10.4705583 C56.3156542,9.2349084 58.3240654,9.2349084 59.5624766,10.4705583 C60.801215,11.7062081 60.801215,13.7096119 59.5624766,14.9449355 L50.5907009,23.8943425 C49.9714953,24.5126569 49.1596262,24.8213247 48.347757,24.8213247 C47.536215,24.8213247 46.7243458,24.5123306 46.1051402,23.8943425 C44.8664019,22.6586927 44.8664019,20.6552889 46.1051402,19.4199653 L55.0769159,10.4705583 Z M34.8910748,50.9537095 C36.6427103,50.9537095 38.0629907,52.5794401 38.0629907,54.584458 L38.0629907,66.3085164 C38.0629907,68.3135343 36.6427103,69.9392649 34.8910748,69.9392649 C33.1394393,69.9392649 31.7191589,68.3135343 31.7191589,66.3085164 L31.7191589,54.584458 C31.7191589,52.5794401 33.1394393,50.9537095 34.8910748,50.9537095 Z M19.1907944,46.2672076 C20.4295327,45.0315577 22.4379439,45.0315577 23.6763551,46.2672076 C24.9150935,47.5028575 24.9150935,49.505935 23.6763551,50.7415848 L14.7049065,59.6909919 C14.086028,60.3086537 13.2741589,60.6176477 12.4622897,60.6176477 C11.6504206,60.6176477 10.8385514,60.3086537 10.2193458,59.6909919 C8.98060748,58.455342 8.98060748,56.4522645 10.2193458,55.2166146 L19.1907944,46.2672076 Z M34.8910748,0.276691599 C36.6427103,0.276691599 38.0629907,1.69343089 38.0629907,3.44069919 L38.0629907,16.0967295 C38.0629907,17.8439978 36.6427103,19.2607371 34.8910748,19.2607371 C33.1394393,19.2607371 31.7191589,17.8439978 31.7191589,16.0967295 L31.7191589,3.44069919 C31.7191589,1.69343089 33.1394393,0.276691599 34.8910748,0.276691599 Z M14.7052336,10.4705583 L23.6766822,19.4199653 C24.9154206,20.6556152 24.9154206,22.659019 23.6766822,23.8943425 C23.0578037,24.5123306 22.2456075,24.8213247 21.4340654,24.8213247 C20.6221963,24.8213247 19.8103271,24.5123306 19.1911215,23.8943425 L10.2196729,14.9449355 C8.98093458,13.7092856 8.98093458,11.7062081 10.2196729,10.4705583 C11.4584112,9.2349084 13.4668224,9.2349084 14.7052336,10.4705583 Z" fill-rule="nonzero"></path>
                    </g>
                </g>
            </g>
        </g>
    </g>
</svg>