<?xml version="1.0" encoding="UTF-8"?>
<svg width="107px" height="22px" viewBox="0 0 107 22" version="1.1" xmlns="http://www.w3.org/2000/svg" xmlns:xlink="http://www.w3.org/1999/xlink">
    <!-- Generator: Sketch 52.5 (67469) - http://www.bohemiancoding.com/sketch -->
    <title>ps_logo</title>
    <desc>Created with Sketch.</desc>
    <g id="Pages" stroke="none" stroke-width="1" fill="none" fill-rule="evenodd">
        <g id="dto01_main-copy" transform="translate(-1438.000000, -3354.000000)" fill="#C4C4C4">
            <g id="Footer" transform="translate(0.000000, 3130.000000)">
                <g id="PS" transform="translate(1368.000000, 224.000000)">
                    <g id="ps_logo" transform="translate(70.000000, 0.000000)">
                        <path d="M25.1273983,10.3180473 L23.0571052,10.3180473 L23.0571052,7.00303076 L25.0946044,7.01091427 C26.1315332,7.01091427 26.6744148,7.83509956 26.6744148,8.64996797 C26.6744148,9.34945045 26.1365236,10.3180473 25.1273983,10.3180473 Z M22.367364,5.49728006 C21.8626231,5.49728006 21.5614183,5.79577847 21.5614183,6.29494809 L21.5614183,14.9033843 C21.5614183,15.378545 21.8433745,15.6623514 22.3156779,15.6623514 C22.7797829,15.6623514 23.0571052,15.378545 23.0571052,14.9033843 L23.0571052,11.8327566 L25.1327451,11.8298898 C27.1303213,11.820573 28.208599,10.1643189 28.208599,8.61090876 C28.208599,6.86506931 26.7966791,5.49728006 24.9937275,5.49728006 L22.367364,5.49728006 Z" id="Fill-1"></path>
                        <path d="M31.5317973,14.1582133 L31.5317973,6.24245107 C31.5317973,5.76800701 31.249841,5.4842006 30.7775376,5.4842006 C30.3130762,5.4842006 30.0361103,5.76800701 30.0361103,6.24245107 L30.0361103,14.6444826 C30.0361103,15.2916472 30.3672574,15.6621723 30.9450716,15.6621723 L35.3943482,15.6621723 C35.8666517,15.6621723 36.1489644,15.3787242 36.1489644,14.9032051 C36.1489644,14.4370029 35.8666517,14.1582133 35.3943482,14.1582133 L31.5317973,14.1582133 Z" id="Fill-3"></path>
                        <path d="M53.481538,13.5395368 C53.0053136,14.018281 52.1034814,14.3526135 51.2882678,14.3526135 C49.2347281,14.3526135 48.1603715,12.4444454 48.1603715,10.5602861 C48.1603715,8.78327099 49.1349206,6.87151945 51.275079,6.87151945 C52.002248,6.87151945 52.9974716,7.13275035 53.4954398,7.63407002 C53.6515673,7.78851517 53.9128491,7.86985868 54.0903639,7.86985868 C54.51312,7.86985868 54.8317912,7.52764261 54.8317912,7.07254899 C54.8317912,6.8149015 54.7162996,6.58627967 54.4988618,6.40209218 C53.6041587,5.56285654 52.2670944,5.26399979 51.3139326,5.26399979 C48.1938783,5.26399979 46.5616689,7.97377769 46.5616689,10.6509465 C46.5616689,13.1829871 48.024562,15.9081737 51.2365818,15.9081737 C52.4143105,15.9081737 53.6465769,15.4699221 54.4571565,14.7596894 C54.6460779,14.5869688 54.741608,14.3561969 54.741608,14.0741822 C54.741608,13.620522 54.4436112,13.3159317 54.0001807,13.3159317 C53.801635,13.3159317 53.6319622,13.3890334 53.481538,13.5395368 Z" id="Fill-5"></path>
                        <path d="M58.1441889,14.1582133 L58.1441889,11.149937 L61.5793498,11.149937 C62.0516532,11.149937 62.3336095,10.8758058 62.3336095,10.4174871 C62.3336095,9.93408449 62.0516532,9.64597798 61.5793498,9.64597798 L58.1441889,9.64597798 L58.1441889,7.01396017 L62.1977999,7.01396017 C62.6704598,7.01396017 62.9527725,6.73517054 62.9527725,6.26860999 C62.9527725,5.79416594 62.6704598,5.51035952 62.1977999,5.51035952 L57.4540912,5.51035952 C56.9497067,5.51035952 56.6485019,5.83250847 56.6485019,6.37252901 L56.6485019,14.7996444 C56.6485019,15.3590154 56.7768259,15.6621723 57.4540912,15.6621723 L62.301172,15.6621723 C62.8219534,15.6621723 63.1327825,15.383741 63.1327825,14.9164638 C63.1327825,14.6885586 63.0518671,14.1582133 62.301172,14.1582133 L58.1441889,14.1582133 Z" id="Fill-7"></path>
                        <path d="M68.9488874,9.91613159 L68.5585688,9.71080195 C67.681332,9.2528416 66.8529295,8.82032349 66.8529295,8.25593574 C66.8529295,7.45862605 67.5719001,6.91788883 68.2434622,6.91358873 L68.2623543,6.91358873 C69.1445815,6.91358873 69.8033111,7.27873865 70.2217898,7.6008876 L70.2884469,7.64353023 C70.4659617,7.75819949 70.6495363,7.87716884 70.8683999,7.87716884 C71.2744026,7.87716884 71.6048368,7.52527756 71.6048368,7.09275945 C71.6048368,6.72725119 71.3560309,6.46888702 71.1289688,6.27538265 C70.927215,6.11986246 69.8496503,5.34512829 68.4512757,5.34512829 C66.5506553,5.34512829 65.2228589,6.56313082 65.2228589,8.3075369 C65.2228589,9.81149589 66.7299524,10.5862301 68.1012364,11.2907293 C68.3136839,11.4010985 68.5371814,11.5000007 68.7581838,11.5963946 C69.6878195,12.0041871 70.2217898,12.295877 70.2577918,13.1017869 C70.3037745,14.1309435 68.3158226,14.977346 66.4907708,13.856454 C66.2868783,13.7313928 66.0794213,13.6561411 65.8805192,13.6561411 C65.4278208,13.6561411 65.1572711,13.9252555 65.1572711,14.376049 C65.1572711,14.5985791 65.2403252,14.918578 65.6399117,15.1812422 C66.3592388,15.640636 67.1683926,15.8735579 68.0449165,15.8735579 C70.5147961,15.8735579 71.8746736,14.8655434 71.8746736,13.0365688 C71.8746736,11.3075714 70.6473975,10.7292083 69.5648424,10.2192884 C69.3545337,10.1200279 69.1460073,10.0218423 68.9488874,9.91613159 Z" id="Fill-9"></path>
                        <path d="M74.130074,5.55260798 C73.6256895,5.55260798 73.3369606,5.82888922 73.3369606,6.31157513 C73.3369606,6.77813567 73.6335316,7.05656697 74.130074,7.05656697 L76.5714372,7.05656697 L76.5714372,14.8945691 C76.5714372,15.4098641 76.8583838,15.717321 77.3392421,15.717321 C77.8033471,15.717321 78.0806694,15.4098641 78.0806694,14.8945691 L78.0806694,7.05656697 L80.5352215,7.05656697 C81.0160798,7.05656697 81.30267,6.77813567 81.30267,6.31157513 C81.30267,5.83641439 81.0160798,5.55260798 80.5352215,5.55260798 L74.130074,5.55260798 Z" id="Fill-11"></path>
                        <path d="M86.5586052,11.4389035 L84.0801707,11.4389035 L85.3359631,7.98735883 L86.5586052,11.4389035 Z M86.3351077,6.33182142 C86.1547412,5.83766859 85.79686,5.56568744 85.3266953,5.56568744 C84.856887,5.56568744 84.4990058,5.83766859 84.31757,6.33468815 L81.4006952,14.6378175 C81.3700401,14.7306279 81.3351074,14.8538973 81.3351074,14.9854086 C81.3351074,15.4236602 81.6124298,15.7175002 82.0252051,15.7175002 C82.2483462,15.7175002 82.6547054,15.6297065 82.8671528,15.0391599 L83.6071543,12.9399958 L87.0501572,12.9399958 L87.9819317,15.2254974 C88.1006314,15.5426296 88.3576357,15.7175002 88.7055362,15.7175002 C89.127223,15.7175002 89.4212987,15.4215102 89.4212987,14.9975923 C89.4212987,14.9209072 89.4120309,14.7714788 89.3507206,14.6231255 L86.3351077,6.33182142 Z" id="Fill-13"></path>
                        <path d="M94.6613717,10.36155 L92.6245854,10.36155 L92.6245854,7.05656697 L94.6620846,7.05656697 C95.8127227,7.05656697 96.241895,8.06207302 96.241895,8.69562067 C96.241895,9.33991857 95.8127227,10.36155 94.6613717,10.36155 Z M95.9203722,11.5354765 C97.1925616,11.0208982 97.7760792,9.72226887 97.7760792,8.65656146 C97.7760792,7.15152745 96.6486107,5.55260798 94.5587125,5.55260798 L92.1412318,5.55260798 C91.4407969,5.55260798 91.1288984,5.91023273 91.1288984,6.71112583 L91.1288984,14.8519265 C91.1288984,15.6331108 91.6564525,15.717321 91.8831581,15.717321 C92.3472631,15.717321 92.6245854,15.3951721 92.6245854,14.8555099 L92.6245854,11.8647923 L94.346978,11.8647923 L96.3356428,15.3177703 C96.4293906,15.5055412 96.6247282,15.7305797 97.0218195,15.7305797 C97.4349513,15.7305797 97.7119172,15.4467732 97.7119172,15.0239303 C97.7119172,14.8365178 97.661657,14.6372799 97.5597107,14.432667 L95.9203722,11.5354765 Z" id="Fill-15"></path>
                        <path d="M99.8305457,5.55260798 C99.3261612,5.55260798 99.0374323,5.82888922 99.0374323,6.31157513 C99.0374323,6.77813567 99.3340032,7.05656697 99.8305457,7.05656697 L102.272265,7.05656697 L102.272265,14.8945691 C102.272265,15.4098641 102.559212,15.717321 103.039714,15.717321 C103.503819,15.717321 103.781141,15.4098641 103.781141,14.8945691 L103.781141,7.05656697 L106.23605,7.05656697 C106.716552,7.05656697 107.003142,6.77813567 107.003142,6.31157513 C107.003142,5.83641439 106.716552,5.55260798 106.23605,5.55260798 L99.8305457,5.55260798 Z" id="Fill-17"></path>
                        <path d="M42.6879609,11.4062944 L40.2098828,11.4062944 L41.4656752,7.95474976 L42.6879609,11.4062944 Z M42.4648198,6.29992903 C42.2851663,5.8057762 41.9265721,5.53379505 41.4564074,5.53379505 C40.9858862,5.53379505 40.628005,5.8057762 40.4469256,6.30279577 L37.5307638,14.6052084 C37.4997522,14.6973021 37.4648196,14.8205716 37.4648196,14.9527996 C37.4648196,15.3910511 37.7421419,15.6848911 38.1549173,15.6848911 C38.3784148,15.6848911 38.784774,15.5970975 38.9965085,15.0065508 L39.7368664,12.9073867 L43.1798694,12.9073867 L44.1116438,15.1928883 C44.2303435,15.5100205 44.4873479,15.6848911 44.8356048,15.6848911 C45.2569351,15.6848911 45.5510108,15.3889011 45.5510108,14.9656999 C45.5510108,14.8890148 45.541743,14.7388697 45.4804327,14.5905164 L42.4648198,6.29992903 Z" id="Fill-19"></path>
                        <path d="M8.61495726,16.4566511 C8.05639161,16.4512759 6.89612921,16.2348377 5.99714863,16.0330915 C5.70806328,15.96644 5.39545188,16.057817 5.18300444,16.2674468 L1.33150359,20.0712411 C1.32972131,15.5593641 1.32865195,9.18232 1.33007777,9.01819963 C1.3746347,4.98005004 4.66935218,1.69549248 8.67341595,1.69549248 L8.72225034,1.69549248 C10.6649324,1.70803443 12.5006778,2.49781895 13.8912104,3.91792604 C15.2774656,5.33194133 16.0313688,7.18062477 16.0142589,9.12355201 C15.9789699,13.0982752 12.6208033,16.4566511 8.68125797,16.4566511 L8.61495726,16.4566511 Z M8.73044882,0.358162261 L8.67341595,0.358162261 C3.94396539,0.358162261 0.0536108957,4.23684991 0.000855493018,9.00243261 C-0.00128323952,9.19880371 0.000855493018,16.6859896 0.00156840387,19.8838285 L0.00192485929,21.1021894 C0.00192485929,21.3562534 0.102801744,21.5898921 0.286376287,21.7608209 C0.454623247,21.9184912 0.673486878,22.0059265 0.902687715,22.0059265 C1.13901766,22.0059265 1.36215876,21.9134744 1.53183154,21.7461289 L5.94403677,17.3904888 C6.65908635,17.5435006 7.89705604,17.7868145 8.60390714,17.7936229 L8.68125797,17.7936229 C13.3354964,17.7936229 17.3021324,13.8278583 17.3434812,9.13466059 C17.3637992,6.83554197 16.4740864,4.64894256 14.838669,2.97942983 C13.1982611,1.30490032 11.0292298,0.373929283 8.73044882,0.358162261 Z" id="Fill-21"></path>
                        <path d="M10.0094822,5.62692799 C9.83767066,5.67852916 9.6958014,5.79355676 9.6102521,5.95086865 C9.52434634,6.10925556 9.50509775,6.29165135 9.55607087,6.46437192 C9.60668754,6.63673415 9.72110973,6.77935403 9.87866303,6.86535598 C10.694233,7.31113272 11.2007562,8.16792708 11.2007562,9.10033148 C11.2007562,10.5025215 10.0661586,11.6424056 8.67170497,11.6424056 C7.2776078,11.6424056 6.14301019,10.5025215 6.14301019,9.10033148 C6.14301019,8.22490337 6.58323264,7.42114354 7.32038245,6.9520746 C7.63156804,6.75247843 7.7246029,6.33501066 7.5271266,6.02110357 C7.43124009,5.86880846 7.28188527,5.76345608 7.10686566,5.72403852 C6.93255895,5.68677101 6.75290542,5.71723003 6.60212478,5.81290719 C5.47465627,6.53138176 4.80166843,7.76013453 4.80166843,9.10033148 C4.80166843,11.2457216 6.5379628,12.9912027 8.67170497,12.9912027 C10.8058036,12.9912027 12.542098,11.2457216 12.542098,9.10033148 C12.542098,7.67377425 11.7671639,6.36331963 10.5195699,5.68139589 C10.3627295,5.59539395 10.1812937,5.57532683 10.0094822,5.62692799 Z" id="Fill-24"></path>
                        <path d="M7.92008306,5.41758493 L7.92008306,8.27714955 C7.92008306,8.64910795 8.22093144,8.95154812 8.59057571,8.95154812 C8.96021999,8.95154812 9.26106836,8.64910795 9.26106836,8.27714955 L9.26106836,5.41758493 C9.26106836,5.04562652 8.96021999,4.74318635 8.59057571,4.74318635 C8.22093144,4.74318635 7.92008306,5.04562652 7.92008306,5.41758493 Z" id="Fill-26"></path>
                    </g>
                </g>
            </g>
        </g>
    </g>
</svg>