<?xml version="1.0" encoding="UTF-8"?>
<svg width="15px" height="16px" viewBox="0 0 15 16" version="1.1" xmlns="http://www.w3.org/2000/svg" xmlns:xlink="http://www.w3.org/1999/xlink">
    <!-- Generator: Sketch 52.5 (67469) - http://www.bohemiancoding.com/sketch -->
    <title>Shape</title>
    <desc>Created with Sketch.</desc>
    <g id="Pages" stroke="none" stroke-width="1" fill="none" fill-rule="evenodd">
        <g id="dto01_main-copy" transform="translate(-1518.000000, -51.000000)" fill="#FFFFFF" fill-rule="nonzero">
            <g id="Header" transform="translate(0.000000, 7.000000)">
                <g id="Search" transform="translate(1310.000000, 37.000000)">
                    <path d="M222.507679,20.8983036 L218.876071,17.12125 C219.809821,16.01125 220.321429,14.6146429 220.321429,13.1607143 C220.321429,9.76375 217.557679,7 214.160714,7 C210.76375,7 208,9.76375 208,13.1607143 C208,16.5576786 210.76375,19.3214286 214.160714,19.3214286 C215.435982,19.3214286 216.65125,18.9367857 217.690268,18.2066071 L221.349464,22.0123214 C221.502411,22.1711607 221.708125,22.25875 221.928571,22.25875 C222.137232,22.25875 222.335179,22.1791964 222.485446,22.0345536 C222.804732,21.7273214 222.814911,21.2178571 222.507679,20.8983036 Z M214.160714,8.60714286 C216.671607,8.60714286 218.714286,10.6498214 218.714286,13.1607143 C218.714286,15.6716071 216.671607,17.7142857 214.160714,17.7142857 C211.649821,17.7142857 209.607143,15.6716071 209.607143,13.1607143 C209.607143,10.6498214 211.649821,8.60714286 214.160714,8.60714286 Z" id="Shape"></path>
                </g>
            </g>
        </g>
    </g>
</svg>