<?xml version="1.0" encoding="UTF-8"?>
<svg width="11px" height="11px" viewBox="0 0 11 11" version="1.1" xmlns="http://www.w3.org/2000/svg" xmlns:xlink="http://www.w3.org/1999/xlink">
    <!-- Generator: Sketch 52.5 (67469) - http://www.bohemiancoding.com/sketch -->
    <title>user</title>
    <desc>Created with Sketch.</desc>
    <g id="Pages" stroke="none" stroke-width="1" fill="none" fill-rule="evenodd">
        <g id="dto01_main-copy" transform="translate(-1414.000000, -10.000000)" fill="#C81C1C" fill-rule="nonzero">
            <g id="Header" transform="translate(0.000000, 7.000000)">
                <g id="Login" transform="translate(1414.000000, 1.000000)">
                    <g id="user" transform="translate(0.000000, 2.000000)">
                        <path d="M5.5,0 C3.9875,0 2.75,1.54 2.75,3.4375 C2.75,5.335 3.9875,6.875 5.5,6.875 C7.0125,6.875 8.25,5.335 8.25,3.4375 C8.25,1.54 7.0125,0 5.5,0 Z M2.62625,6.875 C1.16875,6.94375 0,8.14 0,9.625 L0,11 L11,11 L11,9.625 C11,8.14 9.845,6.94375 8.37375,6.875 C7.63125,7.71375 6.61375,8.25 5.5,8.25 C4.38625,8.25 3.36875,7.71375 2.62625,6.875 Z" id="Shape"></path>
                    </g>
                </g>
            </g>
        </g>
    </g>
</svg>