<?xml version="1.0" encoding="UTF-8"?>
<svg width="26px" height="19px" viewBox="0 0 26 19" version="1.1" xmlns="http://www.w3.org/2000/svg" xmlns:xlink="http://www.w3.org/1999/xlink">
    <!-- Generator: Sketch 52.5 (67469) - http://www.bohemiancoding.com/sketch -->
    <title>wallet</title>
    <desc>Created with Sketch.</desc>
    <g id="Pages" stroke="none" stroke-width="1" fill="none" fill-rule="evenodd">
        <g id="dto04_card" transform="translate(-1295.000000, -688.000000)" fill="#C81C1C" fill-rule="nonzero">
            <g id="Доп-Информация" transform="translate(1275.000000, 667.000000)">
                <g id="wallet" transform="translate(20.000000, 21.000000)">
                    <path d="M1.5821501,18.9882555 L22.672211,18.9882555 C23.5450568,18.9882555 24.2543611,18.2861951 24.2543611,17.4223214 L24.2543611,13.8885302 L16.6837728,13.8885302 C16.1168357,13.8885302 15.5630832,13.7789409 15.0436105,13.5596841 C14.5425963,13.3508929 14.0916836,13.0481456 13.7066937,12.6671277 C13.3217039,12.2860838 13.0158215,11.8397665 12.8048682,11.3438874 C12.5860041,10.829739 12.4726166,10.2816621 12.4726166,9.72053571 L12.4726166,9.27946429 C12.4726166,8.71833791 12.5833671,8.17026099 12.8048682,7.65611264 C13.0158215,7.16023352 13.3217302,6.71394231 13.7066937,6.33289835 C14.0917099,5.9518544 14.5425963,5.64910714 15.0436105,5.44031593 C15.5630832,5.22369505 16.1168357,5.11146978 16.6837728,5.11146978 L24.2543611,5.11146978 L24.2543611,1.57767857 C24.2543611,0.713804945 23.5450568,0.0117445055 22.672211,0.0117445055 L1.5821501,0.0117445055 C0.709330629,0.0117445055 0,0.713804945 0,1.57767857 L0,17.4223214 C0,18.286169 0.709330629,18.9882555 1.5821501,18.9882555 Z" id="Shape"></path>
                    <path d="M26,7.8518544 C26,7.20199176 25.4699797,6.67740385 24.8133874,6.67740385 L24.2543611,6.67740385 L16.6837728,6.67740385 C15.2308053,6.67740385 14.0547667,7.84141484 14.0547667,9.27946429 L14.0547667,9.72053571 C14.0547667,11.1585852 15.2308316,12.3225701 16.6837728,12.3225701 L24.2543611,12.3225701 L24.8133874,12.3225701 C25.4699797,12.3225701 26,11.7979821 26,11.1481195 L26,7.8518544 Z M17.1135903,10.8819368 C16.3409736,10.8819368 15.7160243,10.263419 15.7160243,9.49869505 C15.7160243,8.73399725 16.3409736,8.1154533 17.1135903,8.1154533 C17.8862069,8.1154533 18.5111562,8.73399725 18.5111562,9.49869505 C18.5111562,10.263419 17.8862069,10.8819368 17.1135903,10.8819368 Z" id="Shape"></path>
                </g>
            </g>
        </g>
    </g>
</svg>