<?xml version="1.0" encoding="UTF-8"?>
<svg width="208px" height="84px" viewBox="0 0 208 84" version="1.1" xmlns="http://www.w3.org/2000/svg" xmlns:xlink="http://www.w3.org/1999/xlink">
    <!-- Generator: Sketch 52.5 (67469) - http://www.bohemiancoding.com/sketch -->
    <title>Logo_white</title>
    <desc>Created with Sketch.</desc>
    <g id="Pages" stroke="none" stroke-width="1" fill="none" fill-rule="evenodd">
        <g id="dto01_main-copy" transform="translate(-375.000000, -37.000000)" fill="#FFFFFF">
            <g id="Header" transform="translate(0.000000, 7.000000)">
                <g id="Logo/white" transform="translate(375.000000, 31.000000)">
                    <g id="Group" transform="translate(0.000000, -0.920573)">
                        <path d="M207.261228,26.0350428 L87.1199048,26.0350428 C86.7947277,26.0350428 86.5310292,25.7700258 86.5310292,25.4432229 C86.5310292,25.1164199 86.7947277,24.851403 87.1199048,24.851403 L207.261228,24.851403 C207.586523,24.851403 207.850103,25.1164199 207.850103,25.4432229 C207.850103,25.7700258 207.586523,26.0350428 207.261228,26.0350428" id="Fill-1"></path>
                        <path d="M207.261228,74.6402757 L87.1199048,74.6402757 C86.7947277,74.6402757 86.5310292,74.3753771 86.5310292,74.0484558 C86.5310292,73.7215345 86.7947277,73.4566359 87.1199048,73.4566359 L207.261228,73.4566359 C207.586523,73.4566359 207.850103,73.7215345 207.850103,74.0484558 C207.850103,74.3753771 207.586523,74.6402757 207.261228,74.6402757" id="Fill-4"></path>
                        <path d="M109.607494,20.851825 L46.8270043,0.75965787 C46.8165223,0.756343679 46.8060403,0.755751859 46.7955584,0.753029487 C46.7749477,0.747703108 46.7543371,0.742968549 46.7332553,0.739772722 C46.7148824,0.737168714 46.696745,0.735629982 46.6786077,0.734683071 C46.6591748,0.733736159 46.6398597,0.733381067 46.6204268,0.734327979 C46.6012294,0.735156526 46.5823854,0.737287078 46.5635414,0.74000945 C46.5450507,0.742613457 46.5267956,0.746046013 46.5085404,0.750543844 C46.4892253,0.755278403 46.4704991,0.761314966 46.4517728,0.767943349 C46.434931,0.773979912 46.4184425,0.780371566 46.4018362,0.788065225 C46.3821677,0.797179251 46.3635593,0.80783201 46.3450686,0.819076588 C46.3358821,0.824521331 46.3261068,0.82807225 46.3172737,0.834108813 L0.257903922,32.2872057 C-0.0109766397,32.4709066 -0.0809350512,32.8389002 0.10185191,33.1093619 C0.21585821,33.2777938 0.401000673,33.368579 0.589440838,33.368579 C0.703329364,33.368579 0.818513415,33.3354371 0.919917779,33.2661942 L46.7425596,1.97490084 L109.250047,21.979597 C109.309523,21.9986536 109.369706,22.0077676 109.42883,22.0077676 C109.678513,22.0077676 109.910059,21.8470293 109.98991,21.5952691 C110.088606,21.2838535 109.917361,20.951014 109.607494,20.851825" id="Fill-7"></path>
                        <path d="M19.2814686,30.8435203 L20.6082052,30.211575 L20.6005498,32.0442045 L19.2814686,32.5872584 L19.2814686,30.8435203 Z M12.1472417,33.9447749 L12.9183153,33.4974774 L12.9183153,34.9133473 L12.1472417,35.223816 L12.1472417,33.9447749 Z M27.2842869,20.958826 L27.3085486,26.8419892 L26.7188487,27.033147 C26.4093357,27.1335197 26.2393862,27.4670694 26.3392595,27.7781299 C26.4196999,28.0288248 26.6507746,28.1883795 26.8996334,28.1883795 C26.9594632,28.1883795 27.0204707,28.1790287 27.080536,28.159617 L27.3136129,28.0839824 L27.4589474,63.3060252 C27.4602429,63.6321179 27.7237058,63.8953594 28.0477052,63.8953594 L28.0501784,63.8953594 C28.3754733,63.8940574 28.637994,63.6278568 28.6366984,63.3011722 L28.4899507,27.7026137 L31.5191263,26.7205478 C31.3527101,27.724511 31.2303418,28.8287286 31.1539057,30.0354494 C30.9054003,33.9563745 31.2052557,37.7860411 31.3443481,39.2391957 L30.6785654,39.2877249 C30.3542128,39.3112793 30.1101828,39.5947611 30.1337378,39.9207354 C30.1562328,40.2321511 30.4145136,40.4698259 30.7204934,40.4698259 C30.7347441,40.4698259 30.7491127,40.4692341 30.763599,40.4681689 L45.7367013,39.3779182 L45.3065866,68.9795658 L5.99867468,60.0962308 L5.9872505,43.0657847 L24.5378893,41.4572183 C24.8618886,41.429166 25.1019143,41.1423701 25.0740016,40.8167508 C25.0459711,40.4911315 24.7607198,40.2493139 24.4366027,40.2780763 L19.2814686,40.7250187 L19.2814686,33.8665363 L20.5952499,33.3254945 L20.5706349,39.2280694 C20.5693394,39.5549908 20.8318601,39.8209546 21.1571549,39.822375 L21.1595104,39.822375 C21.4836275,39.822375 21.7470904,39.5590151 21.748386,39.2330407 L21.7750031,32.8397288 L22.2848516,32.6298694 C22.5858847,32.5059423 22.7298059,32.1603195 22.6064954,31.8577812 C22.4833026,31.5554796 22.1396349,31.4107204 21.8383661,31.5345292 L21.7804208,31.5584387 L21.7881939,29.6494644 L22.7239171,29.2038241 C23.017766,29.0637995 23.1430787,28.7109564 23.0037508,28.41552 C22.8644228,28.1200835 22.5129819,27.9943809 22.2193686,28.1342871 L18.4403189,29.9343665 C18.4285413,29.940048 18.418766,29.9479784 18.4074596,29.9542517 C18.3882623,29.9651412 18.3690649,29.9755572 18.3512809,29.9883405 C18.3357346,29.9994667 18.3220726,30.0120133 18.3078219,30.0244415 C18.2934533,30.0369881 18.2790847,30.049298 18.2660117,30.0631465 C18.2525853,30.0773502 18.2409256,30.0926192 18.2290303,30.1081249 C18.2176061,30.1229204 18.2060642,30.1374791 18.1960533,30.1534583 C18.1860424,30.1694374 18.1777981,30.1861267 18.1694361,30.2029344 C18.160603,30.2202155 18.1518876,30.23726 18.1448211,30.255488 C18.1378724,30.2734793 18.1330436,30.2918257 18.1278615,30.3104089 C18.1227972,30.3284002 18.1174973,30.3461548 18.1141996,30.3649747 C18.110313,30.3867537 18.1090175,30.4087694 18.1074864,30.4310218 C18.106662,30.4439235 18.1037176,30.456115 18.1037176,30.469135 L18.1037176,40.8271668 L12.1028405,41.3474949 C12.1311066,41.2782519 12.1472417,41.2026173 12.1472417,41.1231951 L12.1472417,36.4988328 L12.9183153,36.1883641 L12.9183153,40.3419929 C12.9183153,40.6687958 13.181896,40.9338127 13.5071909,40.9338127 C13.8323679,40.9338127 14.0960664,40.6687958 14.0960664,40.3419929 L14.0960664,35.7140796 L14.8740887,35.4007702 C15.1760641,35.2793287 15.3226941,34.9347712 15.2017391,34.631286 C15.0806662,34.3280374 14.7380585,34.1803192 14.4360831,34.3021157 L14.0960664,34.4390628 L14.0960664,32.8143989 L14.9494648,32.3195191 C15.2310651,32.1560584 15.3277584,31.7942197 15.1652288,31.5110931 C15.0024636,31.2279665 14.6423073,31.1307896 14.3608248,31.2943687 L11.2640462,33.0904237 C11.258393,33.0937379 11.2539176,33.0982357 11.2483822,33.1017866 C11.2302448,33.1130312 11.2134029,33.1259329 11.1966789,33.1391896 C11.1823103,33.1503158 11.1680595,33.1613237 11.1551043,33.1736335 C11.141089,33.1868903 11.1287226,33.2013307 11.1161207,33.2158895 C11.1035188,33.2304483 11.0909168,33.2445336 11.0799638,33.2599209 C11.0690107,33.2754266 11.0598242,33.2921159 11.0502844,33.3086868 C11.0409802,33.3249027 11.0314404,33.3408819 11.023785,33.3578079 C11.0156585,33.3754441 11.0098876,33.3936722 11.0035277,33.412137 C10.9974034,33.4301283 10.9910435,33.4478829 10.9866859,33.466466 C10.9825637,33.4841023 10.980326,33.5020936 10.977735,33.5202033 C10.9747906,33.5413904 10.9720818,33.5623409 10.9713751,33.5836464 C10.9711396,33.5902748 10.9694907,33.5964297 10.9694907,33.6029397 L10.9694907,36.0870445 L10.9694907,36.0879914 L10.9694907,41.1231951 C10.9694907,41.2390734 11.003881,41.3464296 11.0612375,41.4376882 L5.98642607,41.8777655 L5.98171507,34.8094237 L27.2842869,20.958826 Z M48.1748815,23.5070841 L48.0510998,38.3124057 L46.9312942,38.2242245 L47.1470582,23.3735695 L48.1748815,23.5070841 Z M58.1709256,18.4559013 C58.9816894,18.3006078 60.0033885,18.6489529 60.9733842,19.4118088 C62.2234492,20.3950584 63.5883448,22.2598829 64.1329369,24.7942924 L63.4304084,24.7098989 C63.1062913,24.6708387 62.8144446,24.9028321 62.7759322,25.2272678 C62.7374197,25.5518218 62.9679056,25.8464298 63.2908449,25.8851348 L64.3223193,26.0090619 C64.3378656,26.1673145 64.3510564,26.3269875 64.3601251,26.4895013 L64.4357367,39.6028098 L54.5281417,38.8225545 L54.5281417,27.3587663 C54.5281417,27.3456279 54.5251973,27.3334365 54.5243729,27.3204164 C54.5230773,27.3001762 54.521664,27.280291 54.5182486,27.2605242 C54.5151864,27.2412309 54.5103576,27.2228845 54.5052933,27.2043014 C54.500229,27.1854815 54.4950469,27.1668983 54.4883337,27.148907 C54.481385,27.1307973 54.4732585,27.1136345 54.4646609,27.0964718 C54.4562989,27.0795457 54.447819,27.0629748 54.4379259,27.0469956 C54.4277973,27.0307798 54.4166086,27.0156292 54.4051845,27.0004786 C54.3936425,26.9854464 54.3821005,26.9707692 54.3693808,26.9569206 C54.3565433,26.9430721 54.3428814,26.9306438 54.328984,26.9180973 C54.3147332,26.9054323 54.3004824,26.8930041 54.2849361,26.8816411 C54.2698609,26.8705149 54.2539612,26.8609275 54.2379438,26.8512216 C54.2214553,26.8413974 54.2049668,26.8320466 54.1875361,26.8238795 C54.1699876,26.815594 54.151968,26.809084 54.1335951,26.802574 C54.1156933,26.7963007 54.0979092,26.7901458 54.079183,26.7855296 C54.0596323,26.780795 54.0396105,26.7778359 54.0192354,26.7749952 C54.0067513,26.7733381 53.994856,26.7694321 53.9821363,26.7684852 L49.3282531,26.4274786 L49.3514548,23.6597736 L55.4990796,24.4579019 C55.5246368,24.4612161 55.5500762,24.4627549 55.5751623,24.4627549 C55.8668913,24.4627549 56.1201077,24.2450835 56.1585024,23.9466879 C56.2001948,23.6226073 55.9724178,23.3258689 55.6499495,23.283968 L54.6022222,23.1479678 C55.0038353,20.5927262 56.3588379,18.8029445 58.1709256,18.4559013 Z M67.4241622,26.3815533 C67.3571482,26.4775465 67.3171046,26.5940167 67.3171046,26.720311 L67.3171046,39.8297135 L65.6139588,39.6956072 L65.5377584,26.4659469 C65.5377584,26.4607388 65.536345,26.4561226 65.5361095,26.451033 C65.5359917,26.4462984 65.5370517,26.4418006 65.5368161,26.437066 C65.531634,26.3414279 65.5246853,26.2469735 65.5172655,26.152519 L67.4241622,26.3815533 Z M71.3553774,22.5453768 C71.8342509,22.4696238 72.4417349,22.694397 73.0220129,23.1622898 C73.8580983,23.8364911 74.4957327,24.8799879 74.8500002,26.1051734 L73.3787536,25.9890584 C73.0548721,25.9643203 72.7710341,26.2068481 72.7455947,26.5328225 C72.7200375,26.8585602 72.9623009,27.1434623 73.2865357,27.1691473 L75.0965035,27.3118942 C75.1180564,27.4819832 75.136076,27.6532559 75.1471468,27.8270142 L75.1471468,40.4463899 L68.4948557,39.9225109 L68.4948557,26.720311 C68.4948557,26.6440846 68.4794271,26.572001 68.4533988,26.5051253 L69.7172435,26.656868 C69.7409162,26.6597087 69.764589,26.6611291 69.7877907,26.6611291 C70.0818752,26.6611291 70.3360338,26.4401435 70.3718375,26.139499 C70.4103499,25.814945 70.1798641,25.520337 69.8569247,25.481632 L68.796831,25.3542724 C69.1064618,24.0630397 69.9692822,22.7648236 71.3553774,22.5453768 Z M49.31836,27.6134856 L53.3503906,27.9090405 L53.3503906,38.7297571 L49.228262,38.4050847 L49.31836,27.6134856 Z M47.5884792,63.4543352 L47.4716463,69.2239874 C47.4651687,69.5507903 47.7233317,69.8210153 48.0485088,69.8276437 C48.0525131,69.827762 48.0566353,69.827762 48.0606396,69.827762 C48.0697083,69.827762 48.0780703,69.8256315 48.0867857,69.825158 L54.0841295,71.8245624 L54.0901361,72.2409669 C54.0802429,72.3042916 54.0778874,72.3697469 54.0897827,72.4363858 C54.0906072,72.4407653 54.092256,72.4445529 54.0930804,72.448814 L54.2335861,82.2774037 L46.3260479,79.8749701 L46.5681935,63.2095585 L47.5884792,63.4543352 Z M53.986494,64.9889242 L53.9996848,65.9134653 L48.7005118,66.7144343 L48.7608126,63.7354497 L53.986494,64.9889242 Z M67.1445641,65.1238592 L74.5897173,67.1716744 C74.5973726,67.1738049 74.605028,67.1745151 74.6126834,67.1762906 C74.6221054,67.1785395 74.6315274,67.1804333 74.641185,67.1822088 C74.6761642,67.1886004 74.7111434,67.1928615 74.7456515,67.1928615 C74.7823973,67.1928615 74.8185543,67.188482 74.8541224,67.1817353 C74.8658999,67.179368 74.8770885,67.1759355 74.8886305,67.1729764 C74.9114788,67.1671765 74.9339739,67.1604298 74.9558801,67.1520259 C74.9689531,67.1469363 74.9816728,67.1413732 74.994157,67.135455 C75.014061,67.1261042 75.0331405,67.1154515 75.0519845,67.1039702 C75.063291,67.0969867 75.0745974,67.0902399 75.0853149,67.0826646 C75.1060433,67.0678691 75.1253584,67.0512982 75.1440847,67.0338987 C75.1509156,67.027507 75.158571,67.0220623 75.1649309,67.0154339 C75.1895459,66.9902224 75.2123942,66.9628803 75.2322982,66.9332893 C75.2355959,66.9284364 75.2378337,66.9229916 75.2410136,66.9180204 C75.2565599,66.8934006 75.2708107,66.8679524 75.282706,66.8407287 C75.2883592,66.8280637 75.2923635,66.8144519 75.2970745,66.8013135 C75.3023744,66.786518 75.3089698,66.772551 75.3132097,66.7571637 C75.3148586,66.7513639 75.3147408,66.745564 75.3160363,66.7398826 C75.3208651,66.7199974 75.3235739,66.6995204 75.3262828,66.6789251 C75.3289916,66.6588032 75.3317004,66.6387997 75.3324071,66.6187962 C75.3325248,66.6126413 75.3341737,66.6069598 75.3341737,66.6009233 L75.3341737,61.2378514 L78.1932821,61.9176157 L78.1932821,67.5085382 L73.4548364,68.5619777 L69.553065,67.3341881 C69.2426098,67.2361827 68.9121328,67.4104145 68.8150862,67.7220669 C68.7179217,68.0340743 68.8908155,68.3660853 69.2010352,68.4637356 L72.5617478,69.5211993 L72.5930759,76.1167954 C72.4519814,75.9444574 72.2205533,75.8589986 71.9917163,75.9184173 L63.8116464,78.0468384 L63.8105865,77.4448392 C63.84957,77.4430637 63.8889069,77.4384475 63.9282438,77.428505 L71.6526417,75.4781033 C71.9680435,75.3984444 72.1595458,75.0768494 72.0802831,74.7597523 C72.0009027,74.442892 71.6812611,74.2507872 71.365506,74.3299727 L63.8085843,76.2382368 L63.8072888,75.4946743 C63.8435635,75.4932539 63.8803093,75.4891112 63.9169374,75.4807073 L70.7394136,73.899838 C71.0563464,73.8264524 71.253973,73.5086451 71.1809524,73.190246 C71.1078141,72.8716101 70.7914702,72.6729954 70.4748907,72.7464994 L63.8052866,74.2919779 L63.79928,70.7991752 C63.79928,70.7923101 63.7975134,70.7859185 63.7972779,70.7790533 C63.7965712,70.7603518 63.794569,70.7422422 63.7922135,70.7238957 C63.7910358,70.7146633 63.7918602,70.7055493 63.7900936,70.6961986 C63.7896225,70.6937129 63.7885625,70.691464 63.7880914,70.6890967 C63.7863248,70.6798643 63.783616,70.6708687 63.781496,70.6617546 C63.7773739,70.6445919 63.7717207,70.6279025 63.7660675,70.6112132 C63.7620631,70.5993768 63.7593543,70.5869486 63.7547611,70.5755857 C63.7515811,70.5676553 63.747459,70.5605534 63.7439257,70.5527414 C63.7368592,70.5374725 63.7284972,70.5230321 63.7200174,70.5084733 C63.7135398,70.4968736 63.7081221,70.4844454 63.7008201,70.4733192 C63.6965802,70.4670459 63.6917514,70.4614828 63.6873937,70.4553279 C63.677265,70.4413609 63.6659586,70.4284592 63.65477,70.4152025 C63.6460546,70.4052599 63.6386348,70.3943704 63.6294483,70.3849013 C63.624384,70.3798116 63.618613,70.3755505 63.6133132,70.3705793 C63.6007112,70.3585061 63.5869315,70.347735 63.5729163,70.3367272 C63.5627876,70.3287968 63.553719,70.3196827 63.5430014,70.3123442 C63.5365238,70.3078463 63.5293395,70.3044138 63.5226263,70.3001527 C63.5087289,70.2913938 63.4942425,70.2840552 63.4796384,70.2763615 C63.4675076,70.2702066 63.4562012,70.2626313 63.4435992,70.2570682 C63.4350017,70.2533989 63.4256974,70.2512684 63.4168643,70.2478358 C63.4105044,70.2454685 63.4052045,70.2416809 63.3987269,70.2395503 L58.7851228,68.675252 C58.4771409,68.5709733 58.1427774,68.7371563 58.0388997,69.0467965 C57.9349043,69.356555 58.1004961,69.6922353 58.4085958,69.7967507 L60.8463049,70.623168 L56.5380916,71.3959664 C56.5369138,71.3956113 56.5359716,71.3949011 56.5347939,71.394546 L55.249632,70.9660684 L55.1919222,66.9302118 L67.1445641,65.1238592 Z M74.1564227,45.5691829 L74.1564227,59.7416123 L69.5525939,58.6471006 C69.2348366,58.5715844 68.9187282,58.7687788 68.8439411,59.0867044 C68.7691539,59.4048668 68.9650139,59.7237393 69.2813578,59.7989005 L74.1564227,60.9579205 L74.1564227,65.8254025 L67.7687721,64.0684076 L67.7687721,45.2343312 L74.1564227,45.5691829 Z M78.1932821,76.7300391 L73.7782468,77.651266 L73.7407943,69.8152155 C73.8604538,69.7910692 73.9701024,69.7303485 74.0540761,69.6408653 L78.1932821,68.7207038 L78.1932821,76.7300391 Z M55.2762491,72.824738 L62.6228245,71.5068735 L62.637782,80.3355243 L55.4079217,82.0448185 L55.2762491,72.824738 Z M48.676839,67.8868295 C48.7058116,67.8913274 48.7350199,67.8948783 48.7650525,67.8948783 C48.794143,67.8948783 48.8235867,67.8927477 48.8532661,67.8882499 L54.0167622,67.1078762 L54.0663455,70.5715613 L48.6589372,68.7687595 L48.676839,67.8868295 Z M45.153479,79.5186945 L6.00362124,67.6245349 L5.99949911,61.3094616 L45.2889203,70.1886538 L45.153479,79.5186945 Z M44.7906139,38.2322733 L44.9155733,23.7595545 L45.9684827,23.4308577 L45.7538964,38.189899 L44.7874339,38.2603256 C44.7880228,38.2508564 44.7904961,38.2418608 44.7906139,38.2322733 Z M45.9865023,22.1856686 L44.4719144,22.6586511 C44.4282199,22.64788 44.3832298,22.6405414 44.3362375,22.640068 L44.3310554,22.640068 C44.156866,22.640068 44.001874,22.7178331 43.893992,22.8390378 L41.6920687,23.5264958 C41.6871221,23.2539036 41.6661582,22.9398839 41.6144549,22.6065709 C41.4278991,21.4070704 40.9132219,20.4616973 40.1258953,19.872363 C38.4037878,18.5831426 36.0445169,19.429445 35.3625991,19.7194368 C33.674293,20.4373143 32.4755779,22.340252 31.7785849,25.3927407 L28.4847686,26.4606205 L28.458858,20.1951416 L46.1828334,8.67110623 L45.9865023,22.1856686 Z M32.5192725,39.1536185 C32.3846556,37.7569235 32.0840935,33.9779168 32.3293013,30.1108472 C32.4243458,28.6110572 32.5908798,27.2781605 32.82537,26.1186669 C32.8742467,26.025041 32.8963884,25.9185134 32.8901463,25.8098553 C33.4856172,23.0860634 34.4770481,21.381267 35.8215686,20.809569 C36.3579165,20.5814816 38.2022746,19.9082273 39.4224247,20.8215238 C40.4721542,21.6073422 40.5421126,23.1644204 40.5113733,23.8950812 L39.9603036,24.0671825 C39.6497306,24.1641226 39.4762479,24.4957784 39.5725879,24.8079042 C39.6510261,25.0615582 39.8837497,25.2243087 40.1348463,25.2243087 C40.1926738,25.2243087 40.2515614,25.2156681 40.3097423,25.1975585 L41.2256793,24.9115911 C41.2277992,24.9109993 41.2299192,24.9101707 41.2321569,24.9095789 L43.7345245,24.1282583 L43.6128628,38.2219756 C43.6125095,38.2641132 43.6168672,38.3051855 43.6248759,38.3449558 L32.5192725,39.1536185 Z M106.043914,21.8230014 L46.9384784,3.24755035 C46.9288209,3.24459125 46.9191633,3.24411779 46.9095058,3.24163215 C46.8885418,3.2361874 46.8678134,3.23180794 46.8464961,3.22861211 C46.828712,3.22612647 46.8113991,3.22446937 46.7938506,3.22352246 C46.7734755,3.22245718 46.753336,3.22233882 46.7329609,3.2234041 C46.7150591,3.22435101 46.6973928,3.2260081 46.6798443,3.22849375 C46.6599403,3.23133448 46.6402719,3.23524049 46.6204857,3.24021178 C46.6028194,3.24470961 46.5858598,3.24991763 46.5686646,3.25583583 C46.5502917,3.26234584 46.5322721,3.26968441 46.5143703,3.27808825 C46.4962329,3.28661046 46.47892,3.29619794 46.4617248,3.30649561 C46.4525384,3.31205872 46.4426453,3.31560963 46.4336943,3.3216462 L5.18072659,31.2556636 C5.09663517,31.2880954 5.0222013,31.3389919 4.96178267,31.4039737 L3.44601709,32.4303078 C3.1763121,32.6129434 3.10494039,32.9808186 3.28666737,33.2518721 C3.40043812,33.4214877 3.58628724,33.5129831 3.7756696,33.5129831 C3.88885148,33.5129831 4.00309333,33.4803146 4.10414437,33.4119002 L4.80278628,32.9387994 L4.80879281,41.9797952 L3.52598638,42.0910574 C3.20198707,42.119228 2.96196141,42.4060239 2.98987411,42.7316432 C3.01625574,43.0399814 3.27347656,43.2725666 3.57580525,43.2725666 C3.59288264,43.2725666 3.60996003,43.2718564 3.6271552,43.2703177 L4.80961724,43.1678145 L4.82622353,68.0646122 C4.82622353,68.0719508 4.82810793,68.0789343 4.82834348,68.0862728 C4.82928568,68.1119578 4.83187673,68.1372877 4.83611664,68.1624992 C4.83847214,68.1769396 4.84153429,68.1911433 4.84494977,68.2052286 C4.8504852,68.2277178 4.8570806,68.24926 4.86520709,68.2708023 C4.87086029,68.2860712 4.87686682,68.3009851 4.88381555,68.3155439 C4.89288424,68.3348372 4.90289512,68.353302 4.91408375,68.3716484 C4.92279911,68.3860888 4.9318678,68.3999374 4.9417609,68.4134309 C4.95412729,68.4303569 4.9673181,68.4462177 4.98133334,68.461605 C4.99299307,68.4745067 5.00477058,68.4865798 5.01760807,68.4984162 C5.03221218,68.5119097 5.04752295,68.5245746 5.06354036,68.5365294 C5.07885112,68.5480107 5.09439744,68.5586635 5.11076818,68.568606 C5.12619672,68.5779568 5.14174303,68.586479 5.15823154,68.5944094 C5.17801776,68.6041152 5.19827508,68.6125191 5.21923905,68.619976 C5.22771886,68.6230535 5.23513869,68.6276697 5.24397182,68.6302737 L54.0705854,83.4644761 C54.127353,83.4817572 54.1847095,83.4899243 54.2412415,83.4899243 C54.263501,83.4899243 54.2854072,83.4870836 54.3073133,83.484598 C54.3281595,83.4868469 54.348888,83.4899243 54.3702053,83.4899243 C54.414842,83.4899243 54.4600677,83.4848347 54.5054111,83.4740636 L63.3622166,81.3802048 C63.3759963,81.3770089 63.3881272,81.370854 63.4014357,81.3667113 C63.4235775,81.3597278 63.4456014,81.3534545 63.4665654,81.3441038 C63.4834072,81.3366468 63.4984824,81.326941 63.5141465,81.3180637 C63.5315772,81.3082395 63.5492435,81.2991254 63.5654965,81.2877625 C63.5813961,81.2765179 63.5952936,81.2633795 63.6098977,81.2507146 C63.6240307,81.2385231 63.638517,81.2269234 63.6513545,81.2135483 C63.6644276,81.1999364 63.6753806,81.1847858 63.6869226,81.1701087 C63.6989357,81.1549581 63.711302,81.140281 63.721784,81.1239468 C63.7315594,81.1086778 63.7392147,81.0922252 63.747459,81.0762461 C63.7566455,81.0584915 63.766303,81.0414471 63.7737228,81.0227456 C63.7809071,81.0047542 63.7853826,80.985816 63.7908002,80.9671145 C63.7959823,80.9491232 63.8019889,80.9317237 63.8054044,80.9132589 C63.8096443,80.8908881 63.8105865,80.8681622 63.8122353,80.845318 C63.8131775,80.8311143 63.8163574,80.8175024 63.8163574,80.803062 L63.8136486,79.2690648 L72.2868607,77.0644174 C72.4146466,77.0311571 72.5199376,76.9570612 72.596727,76.8610681 L72.6039112,78.3779024 L72.6039112,78.380033 L72.6039112,78.3807432 C72.604029,78.4112811 72.6086222,78.440517 72.6132155,78.4697529 C72.6147465,78.4793404 72.6142754,78.4885728 72.6162776,78.4981602 L72.6162776,78.4982786 C72.6176909,78.5052621 72.6206353,78.5115354 72.6221664,78.5184005 C72.6295862,78.5479915 72.6379482,78.5769907 72.6492547,78.6044511 C72.6539657,78.6156957 72.6602077,78.625875 72.6655076,78.6367645 C72.6762252,78.6588985 72.687296,78.6806775 72.7003691,78.7009177 C72.7075533,78.7118072 72.7156798,78.7217498 72.7235707,78.7321658 C72.7373504,78.7505123 72.7514834,78.7685036 72.7671475,78.7849562 C72.7768051,78.7950171 72.7869338,78.8042495 72.7971802,78.8136003 C72.8130798,78.8282774 72.8295683,78.842126 72.8471168,78.8549093 C72.8588943,78.8635499 72.8709074,78.871717 72.8833916,78.879529 C72.9014112,78.8907736 72.9201374,78.9007161 72.9393347,78.9099485 C72.9524078,78.9163402 72.9652453,78.9226135 72.9790249,78.9280582 C73.0010489,78.9366988 73.0238973,78.9432088 73.047099,78.9492454 C73.0587587,78.9522045 73.0700651,78.9561105 73.0820782,78.9584778 C73.1178818,78.9655796 73.1547454,78.9698407 73.1921979,78.9698407 C73.1925512,78.9698407 73.1929045,78.9697223 73.1933756,78.9697223 L73.1956134,78.9697223 C73.2276482,78.969604 73.2585053,78.9648694 73.2891268,78.9597798 C73.2970177,78.9584778 73.3046731,78.9589512 73.312564,78.9572941 L73.3131529,78.9571758 C73.3138596,78.9570574 73.3145662,78.9568207 73.3152729,78.9567023 L78.8996972,77.7915273 C78.9392696,77.7833602 78.9774287,77.7712871 79.0138213,77.755663 C79.028072,77.7493897 79.040674,77.7406308 79.0543359,77.7334106 C79.0744754,77.7228762 79.0950861,77.7131703 79.1138123,77.700387 C79.129712,77.6894975 79.1432561,77.6761224 79.157978,77.6638126 C79.1723465,77.6516211 79.1876573,77.6406132 79.2008481,77.6272381 C79.2134501,77.6144548 79.2238143,77.5995409 79.2351207,77.5854556 C79.2477226,77.5700683 79.2613845,77.5553912 79.2724554,77.5387018 C79.2817596,77.5247349 79.2884728,77.5091108 79.2964815,77.4943153 C79.3066102,77.4758506 79.3177988,77.4578592 79.3259253,77.4382108 C79.333934,77.4190358 79.3384094,77.3985589 79.344416,77.3785554 C79.3492447,77.361866 79.3558402,77.3460053 79.3592556,77.3286058 C79.3671466,77.2897824 79.3712687,77.2498937 79.3710331,77.2095316 L79.3710331,61.4494862 C79.3710331,61.4345723 79.3678532,61.4206053 79.3666755,61.4060466 C79.3650266,61.3840309 79.3640844,61.3620152 79.3600801,61.3404729 C79.3565468,61.3214163 79.3504225,61.3036617 79.3451226,61.2851969 C79.3398227,61.2669689 79.3353473,61.2485041 79.3283986,61.2308679 C79.3208609,61.2119296 79.3112034,61.1946485 79.3018992,61.1767755 C79.2936549,61.1609148 79.2861173,61.1446989 79.2764597,61.1296667 C79.2659777,61.1132141 79.2534936,61.0984186 79.2413628,61.0831496 C79.2298208,61.0684725 79.2189855,61.0535586 79.2060302,61.0400651 C79.193075,61.0265717 79.1784708,61.0148536 79.1643378,61.0026621 C79.1498515,60.9899972 79.1358363,60.9770955 79.1200544,60.9658509 C79.1039192,60.954488 79.0862529,60.9452556 79.0688222,60.9354314 C79.0531581,60.9266725 79.0379651,60.9169666 79.0212411,60.909628 C79.0003949,60.9002773 78.9781354,60.8937673 78.9559937,60.8869022 C78.9429206,60.8828778 78.9312609,60.8768412 78.9177168,60.8736454 L75.3341737,60.0216615 L75.3341737,45.0074275 C75.3341737,44.9922769 75.3307582,44.9781915 75.3296982,44.9633961 C75.3282849,44.9431558 75.3271072,44.9229156 75.3236917,44.9032671 C75.3202762,44.8838555 75.3147408,44.8656274 75.3094409,44.8470443 C75.3042588,44.8283428 75.29943,44.8097596 75.2923635,44.7918866 C75.2854148,44.7736586 75.2763461,44.7567325 75.267513,44.739333 C75.2590332,44.7227621 75.2510245,44.7060728 75.2411314,44.6903304 C75.2307672,44.6741145 75.2187541,44.6592006 75.2069766,44.64405 C75.1954346,44.6293729 75.184246,44.6145774 75.1715263,44.6008472 C75.158571,44.587117 75.1442024,44.5751622 75.1299517,44.562734 C75.1157009,44.5501874 75.1018034,44.5375225 75.0862571,44.5265146 C75.0710641,44.5155068 75.0548111,44.5065111 75.0384404,44.497042 C75.0218341,44.4874545 75.0056989,44.4776303 74.9880327,44.4694632 C74.9706019,44.4615328 74.952229,44.4557329 74.9337383,44.4493413 C74.9157187,44.4431864 74.8979347,44.4367947 74.8789729,44.4324152 C74.85954,44.427799 74.8395183,44.4256685 74.8192609,44.4231829 C74.8047746,44.421289 74.7908771,44.4172647 74.7759197,44.4164361 L53.9700055,43.3258304 C53.6454173,43.3068922 53.3680569,43.5595993 53.3512151,43.8859287 C53.3343732,44.2123766 53.5838209,44.490887 53.9086446,44.5078131 L66.5910211,45.1726636 L66.5910211,64.0105276 L64.2794491,64.359938 L64.3735515,47.5941539 C64.3736692,47.5775829 64.3702537,47.5620772 64.3689582,47.5458613 C64.3674271,47.5256211 64.366956,47.5053809 64.363305,47.4857324 C64.3598895,47.4664391 64.3540008,47.4484478 64.3487009,47.4301014 C64.343401,47.4112815 64.3389256,47.3922249 64.3318591,47.3741152 C64.3247926,47.3561239 64.3154883,47.3395529 64.306773,47.3225085 C64.2981754,47.3055825 64.2902845,47.2885381 64.2801558,47.2726773 C64.2697916,47.2564614 64.2576607,47.242021 64.2458832,47.2268704 C64.2344591,47.2121933 64.223506,47.1970427 64.2105507,47.1834308 C64.1975954,47.1697006 64.1828736,47.1578642 64.1686228,47.145436 C64.154372,47.1330078 64.1408278,47.1201061 64.1253993,47.1090983 C64.1099708,47.0979721 64.0930112,47.0892131 64.0766404,47.0796256 C64.0601519,47.0701565 64.04437,47.0602139 64.0270571,47.0522836 C64.0091553,47.0441164 63.9903113,47.0385533 63.971585,47.03228 C63.953801,47.0262435 63.9362525,47.0194967 63.9177618,47.0151173 C63.8980934,47.0106194 63.8776005,47.008844 63.8571076,47.0063583 C63.8415613,47.0043461 63.8264861,47.0002034 63.8103509,46.9994932 L54.5943313,46.5948068 C54.2716275,46.5829704 53.9946204,46.8336653 53.9803697,47.1603499 C53.9661189,47.4867977 54.2181576,47.7630592 54.5428636,47.7772629 L57.3891345,47.9022553 L57.3078697,64.3438405 C57.3062208,64.6706435 57.5686237,64.9369624 57.8939186,64.9386195 L57.896863,64.9386195 C58.2206267,64.9386195 58.4839718,64.6754964 58.4856207,64.3496404 L58.5667677,47.9540987 L63.1926205,48.1570929 L63.1007559,64.5380758 L55.1749625,65.7359193 L55.157414,64.5114439 C55.1571785,64.4980688 55.1539986,64.4855222 55.1529386,64.4722655 C55.1512897,64.4504865 55.1497587,64.4285891 55.1456365,64.4071653 C55.1419855,64.3889372 55.1365679,64.3716561 55.131268,64.3539015 C55.1258503,64.3352 55.120786,64.3166168 55.1134839,64.2986255 C55.1061819,64.2803974 55.0969954,64.2634714 55.0879267,64.2461903 C55.0794469,64.229856 55.0714382,64.2136402 55.0614273,64.1981345 C55.0510631,64.1821553 55.0390501,64.1675966 55.0272726,64.1526827 C55.015495,64.1378872 55.0040709,64.1229733 54.9909978,64.1092431 C54.9782781,64.0959864 54.9640273,64.0843867 54.9501299,64.0723136 C54.935408,64.059767 54.9211572,64.0469837 54.9053753,64.0357391 C54.8893579,64.0244945 54.872045,64.0153805 54.8550854,64.005793 C54.8391857,63.9969157 54.823875,63.9874466 54.8070331,63.9798713 C54.7865402,63.9707573 54.7647519,63.9643656 54.743199,63.9576189 C54.7303615,63.9534761 54.7187018,63.9476763 54.7053932,63.9443621 L48.7851921,62.5244678 L49.1673723,43.6329849 C49.1739677,43.306182 48.9156869,43.035957 48.5905098,43.0292103 C48.2673349,43.0218717 47.9964522,43.2821541 47.9898568,43.608957 L47.6129765,62.243235 L46.5858598,61.9969196 L46.9139812,39.4101132 L80.2373868,42.0344794 C80.2529331,42.0357814 80.2684794,42.0363732 80.2840257,42.0363732 C80.5883566,42.0363732 80.8461663,41.8008289 80.870428,41.4907153 C80.8957496,41.1648592 80.653604,40.8799571 80.3293692,40.8545089 L76.3248979,40.5390689 L76.3248979,27.8038149 C76.3248979,27.7975416 76.3231312,27.7916234 76.3230135,27.7853501 C76.3227779,27.7790768 76.3240734,27.773277 76.3237201,27.7668853 C76.3163003,27.6459174 76.3052294,27.5260146 76.2930986,27.4063487 L77.9291125,27.5353654 C77.9448944,27.5366674 77.9604407,27.5372592 77.9758693,27.5372592 C78.2800824,27.5372592 78.5381276,27.3018333 78.5622715,26.9917196 C78.5878287,26.6658636 78.3455653,26.3809615 78.0213305,26.3553949 L76.0908787,26.2029421 C75.701632,24.5640744 74.8789729,23.1420496 73.7590495,22.2390508 C72.9084777,21.5532499 71.9900674,21.2466872 71.1720015,21.3761774 C69.6954551,21.6099462 68.0910048,22.8824774 67.6171956,25.2125907 L65.3616846,24.9417739 C64.8129704,21.8983993 63.1849651,19.6483 61.6991144,18.4796925 C60.4432785,17.491945 59.1113598,17.0705693 57.9503329,17.2932119 C55.626159,17.7383789 53.9086446,19.9158026 53.4341287,22.9963435 L47.1643711,22.1823544 L47.3651776,8.35696823 L97.5862484,22.9563365 C97.6408961,22.9721973 97.6960148,22.9797726 97.7501914,22.9797726 C98.0057634,22.9797726 98.241078,22.8113406 98.3156297,22.5522419 C98.4059632,22.2382222 98.2260028,21.9101173 97.9135455,21.8192138 L46.9513159,7.00442304 C46.9455449,7.00276595 46.9396562,7.00276595 46.9338852,7.00122722 C46.9265832,6.99933339 46.91987,6.99625593 46.9124501,6.9947172 C46.8984349,6.99163973 46.8840663,6.99152137 46.8699333,6.98950918 C46.8519137,6.98690517 46.8340119,6.98406444 46.8161101,6.98323589 C46.8097503,6.9828808 46.8036259,6.98146043 46.7972661,6.98134207 C46.7969128,6.98134207 46.7966772,6.9812237 46.7963239,6.9812237 C46.7890218,6.98110534 46.7820731,6.9828808 46.774771,6.98311753 C46.7693534,6.98323589 46.763818,6.98406444 46.7584003,6.98430117 C46.7393207,6.98536644 46.7204767,6.98595826 46.7017505,6.98868063 C46.6950373,6.98974591 46.6883241,6.98986427 46.6816109,6.99104791 C46.6666535,6.99377029 46.6526383,6.9989783 46.6380342,7.00276595 C46.6220167,7.00702705 46.6061171,7.01105143 46.5905708,7.0167329 C46.584682,7.01874509 46.5786755,7.019692 46.5730223,7.02194091 C46.5561805,7.02845093 46.5407519,7.03732823 46.5247345,7.04525862 C46.5134281,7.05105845 46.5020039,7.05662156 46.490933,7.06301321 C46.4790378,7.07011505 46.4666714,7.07638834 46.4552472,7.08431873 L5.98077287,33.4003006 L5.98006622,32.1417364 L46.8570958,4.4622015 L105.692355,22.9525489 C105.75089,22.9710136 105.810013,22.9797726 105.868311,22.9797726 C106.118937,22.9797726 106.351425,22.8176139 106.430217,22.5644334 C106.527263,22.2524259 106.354252,21.9205333 106.043914,21.8230014 Z" id="Fill-9"></path>
                        <path d="M36.3202049,51.1772801 L33.7518832,51.1772801 L33.7518832,47.4167381 L36.3808591,47.247596 L36.3202049,51.1772801 Z M36.1523753,62.0425015 L33.7518832,61.6376967 L33.7518832,52.3609199 L36.3019497,52.3609199 L36.1523753,62.0425015 Z M32.5816698,62.2136558 C32.5839075,62.2314104 32.5850852,62.2492834 32.5887363,62.2665645 C32.5930939,62.2856211 32.5999249,62.3036125 32.6060492,62.3220772 C32.6120557,62.340542 32.6170023,62.3591252 32.6246577,62.376643 C32.631842,62.3928589 32.641264,62.4076544 32.6497438,62.4231601 C32.6596369,62.4409147 32.66847,62.4591427 32.680012,62.4757137 C32.6902584,62.4903908 32.7023892,62.5032925 32.7139312,62.5171411 C32.7265331,62.5322917 32.7385462,62.5480341 32.7525614,62.5618827 C32.7656345,62.5747843 32.7807097,62.5854371 32.7950782,62.5970368 C32.8101535,62.6093466 32.824522,62.6222483 32.840775,62.6330194 C32.8554969,62.6426069 32.8717498,62.6500638 32.8872962,62.6583493 C32.9056691,62.6681735 32.9234531,62.6787079 32.9430038,62.6865199 C32.958079,62.6926749 32.974332,62.6963441 32.9901138,62.7013154 C33.0117844,62.7080622 33.0333373,62.7152824 33.0560679,62.7194251 C33.0593656,62.7201353 33.06231,62.7214373 33.0656077,62.7220291 L38.7283524,63.6769897 C38.7613294,63.6826712 38.7941887,63.6853936 38.8264591,63.6853936 C39.1088838,63.6853936 39.3583314,63.4805055 39.4065015,63.1913423 C39.4603247,62.8690372 39.2439718,62.5638949 38.9232702,62.5098025 L37.327182,62.2406428 L37.4797008,52.3609199 L38.6998508,52.3609199 C39.0251457,52.3609199 39.2887264,52.0960213 39.2887264,51.7691 C39.2887264,51.4421786 39.0251457,51.1772801 38.6998508,51.1772801 L37.4980737,51.1772801 L37.5597878,47.1717246 L39.2718845,47.0616461 C39.5963549,47.0406957 39.8426227,46.7593445 39.8218943,46.4331334 C39.8011658,46.1069223 39.5200367,45.8595416 39.1966262,45.8802553 L33.1254374,46.2708564 C33.1114222,46.2718033 33.0985847,46.2757093 33.0849228,46.2774848 C33.0650188,46.2803255 33.0452326,46.2826928 33.0260352,46.287309 C33.0070734,46.2920436 32.9891716,46.2981985 32.9710343,46.3045901 C32.9526613,46.3109818 32.9346417,46.3171367 32.917211,46.3253038 C32.8996625,46.3333526 32.8832918,46.3429401 32.8669211,46.3526459 C32.8505503,46.3622334 32.8344151,46.3717025 32.8192221,46.3827104 C32.8039114,46.3939549 32.7897784,46.4063832 32.7755276,46.4190481 C32.7615123,46.4314763 32.7474971,46.4439045 32.7346596,46.4576348 C32.7217044,46.471365 32.7105157,46.4860421 32.6989738,46.500956 C32.687314,46.5161066 32.6758898,46.5311388 32.6656434,46.5473547 C32.6557503,46.5633338 32.6472705,46.5800231 32.6389085,46.5970675 C32.6303109,46.6141119 32.6219488,46.631038 32.6148823,46.6490293 C32.6078158,46.667139 32.6028693,46.6860772 32.5976872,46.7051338 C32.5926228,46.7233619 32.5876763,46.7413532 32.5842608,46.7604098 C32.5808453,46.7805317 32.5795498,46.8010087 32.5782543,46.8217224 C32.5773121,46.8350975 32.5741322,46.8478808 32.5741322,46.8614927 L32.5741322,62.1383763 C32.5741322,62.1420456 32.5751921,62.1453598 32.5751921,62.1489107 C32.5756632,62.1709264 32.5788432,62.192232 32.5816698,62.2136558 Z" id="Fill-11"></path>
                        <path d="M20.1982418,51.5117885 L18.7963648,51.5117885 L18.7963648,48.2292003 L20.1982418,48.141966 L20.1982418,51.5117885 Z M20.1982418,59.2954038 L18.7963648,59.0462476 L18.7963648,52.6954283 L20.1982418,52.6954283 L20.1982418,59.2954038 Z M22.8453551,46.7916697 L18.6562124,47.0519521 C18.5827207,47.05645 18.5139401,47.07598 18.4504593,47.1049792 C18.376261,47.0708904 18.2944073,47.0508869 18.2074892,47.0508869 C17.8821944,47.0508869 17.6186137,47.3157854 17.6186137,47.6427068 L17.6186137,59.5427845 C17.6186137,59.5453885 17.6193204,59.5477558 17.6194382,59.5503598 C17.6195559,59.5739142 17.6233247,59.5966401 17.6262691,59.6196027 C17.6283891,59.6358186 17.6290957,59.6522712 17.6323934,59.6680136 C17.6367511,59.6881355 17.6440532,59.7069553 17.650413,59.726367 C17.6560662,59.7438849 17.6605417,59.7617578 17.6677259,59.7784472 C17.6749102,59.7951365 17.6848033,59.8102871 17.6935187,59.8262662 C17.7030585,59.8436657 17.7114205,59.861657 17.7224914,59.8778729 C17.7330911,59.8933786 17.7461642,59.9067537 17.7580595,59.9210758 C17.7703081,59.9356345 17.7813789,59.9510219 17.7946875,59.9642786 C17.808585,59.9780088 17.8246024,59.9893718 17.8399132,60.0016816 C17.8540462,60.0131629 17.8673548,60.0257095 17.8826655,60.0360072 C17.8977407,60.0460681 17.9144648,60.0534067 17.9306,60.0620473 C17.9485018,60.0717531 17.965697,60.0822875 17.984541,60.0900995 C17.9996162,60.0961361 18.0159869,60.0998054 18.031651,60.1047767 C18.0534394,60.1115234 18.0748745,60.1190987 18.0974873,60.1234782 C18.1001961,60.1239516 18.1024339,60.1251353 18.1050249,60.1254904 L22.4237202,60.8926073 C22.4582283,60.8987622 22.4927364,60.9017213 22.5267734,60.9017213 C22.8070781,60.9017213 23.0555836,60.6997924 23.1059914,60.4127597 C23.1626412,60.0909281 22.9488794,59.7838919 22.6286489,59.7269588 L21.3759929,59.5044346 L21.3759929,52.6954283 L21.6164896,52.6954283 C21.9417845,52.6954283 22.2053651,52.4305297 22.2053651,52.1036084 C22.2053651,51.7766871 21.9417845,51.5117885 21.6164896,51.5117885 L21.3759929,51.5117885 L21.3759929,48.0688171 L22.9180223,47.9730606 C23.2426105,47.9529387 23.4894671,47.672061 23.4693276,47.3458499 C23.4493058,47.0196388 23.1724165,46.7691806 22.8453551,46.7916697 Z" id="Fill-13"></path>
                        <path d="M12.91828,50.8093575 L11.7180339,50.8093575 L11.7180339,48.5521564 L12.91828,48.4635018 L12.91828,50.8093575 Z M12.91828,58.2375257 L11.7180339,58.0513392 L11.7180339,51.9929973 L12.91828,51.9929973 L12.91828,58.2375257 Z M14.7449719,58.5210074 L14.096031,58.4203981 L14.096031,51.9929973 L14.3272236,51.9929973 C14.6525184,51.9929973 14.9160991,51.7280987 14.9160991,51.4011774 C14.9160991,51.0742561 14.6525184,50.8093575 14.3272236,50.8093575 L14.096031,50.8093575 L14.096031,48.3765042 L14.6982152,48.3319994 C15.0225678,48.3080899 15.2662445,48.0244898 15.2423361,47.6985154 C15.2184278,47.372541 14.9361209,47.1255153 14.6120038,47.1516738 L11.085935,47.4120745 C11.073333,47.4130215 11.0616733,47.4168091 11.0493069,47.4185846 C11.028814,47.4213069 11.0085567,47.424266 10.9887705,47.429119 C10.9703976,47.4336168 10.9529669,47.4396533 10.9351828,47.4459266 C10.9165744,47.452555 10.8982014,47.4591834 10.8804174,47.4675872 C10.86334,47.475636 10.8472048,47.4848684 10.8309519,47.4944559 C10.8145811,47.5042801 10.7983281,47.5141043 10.7830174,47.5254672 C10.7678244,47.5365934 10.7539269,47.5486666 10.7399117,47.5612132 C10.7256609,47.5739965 10.7117634,47.5866614 10.6986904,47.6008651 C10.6862062,47.6144769 10.6748998,47.628799 10.6635934,47.6434761 C10.6518159,47.6589818 10.6405095,47.6743691 10.6301453,47.6908217 C10.6204877,47.7065641 10.6122435,47.7230167 10.6039992,47.7395877 C10.5951661,47.7571055 10.5869218,47.7743867 10.5799731,47.7928515 C10.5732599,47.8107244 10.5680778,47.8290708 10.5630135,47.8477723 C10.5580669,47.8663555 10.5533559,47.8848203 10.550176,47.9041136 C10.5467605,47.9238804 10.5453472,47.9440023 10.5440517,47.9642425 C10.5432273,47.9770258 10.5402829,47.9892173 10.5402829,48.0022373 L10.5402829,58.5587655 C10.5402829,58.5636185 10.5414606,58.5679979 10.5415784,58.5727325 C10.5420495,58.5946298 10.5453472,58.6159353 10.5480561,58.6373592 C10.5505293,58.6549955 10.5520604,58.6729868 10.5558292,58.6901496 C10.5603047,58.7096796 10.5671356,58.7282628 10.5736132,58.747201 C10.5796198,58.7649556 10.5849197,58.7829469 10.5924573,58.8001097 C10.5999949,58.8170357 10.6096524,58.8327782 10.6188389,58.848994 C10.6283787,58.8658017 10.6373296,58.8830828 10.6484004,58.8989436 C10.6590002,58.9140942 10.6716021,58.9275877 10.6834974,58.941673 C10.6959816,58.9562318 10.7076413,58.971264 10.7215388,58.9845208 C10.7350829,58.9976592 10.7501581,59.008667 10.76488,59.0205034 C10.7798375,59.0324582 10.794206,59.0446497 10.8102234,59.0550657 C10.8254164,59.0650083 10.8420227,59.0728203 10.8583935,59.0814609 C10.8762953,59.0908116 10.893726,59.1005175 10.9126878,59.1079744 C10.9287052,59.1144844 10.9460181,59.1186272 10.9627422,59.1237168 C10.9835884,59.1298717 11.0040813,59.1362634 11.0257519,59.140051 C11.0304629,59.140998 11.034585,59.1428918 11.039296,59.143602 L14.5652471,59.6907986 C14.5957508,59.6955332 14.6259012,59.6979005 14.6558161,59.6979005 C14.9414207,59.6979005 15.1921639,59.488633 15.2370363,59.1961556 C15.2867373,58.8732586 15.0663801,58.570957 14.7449719,58.5210074 Z" id="Fill-15"></path>
                        <path d="M29.0130959,24.9760639 C29.0130959,25.3028669 29.2766766,25.5678838 29.6019714,25.5678838 C29.9272663,25.5678838 30.1908469,25.3028669 30.1908469,24.9760639 L30.1908469,21.3184986 L32.0541668,20.1083453 C32.3274051,19.9309177 32.4057255,19.5645812 32.2291807,19.2900951 C32.0528713,19.015609 31.6882396,18.9367786 31.4150014,19.1143246 L29.2823298,20.4993015 C29.2807987,20.5003668 29.2798565,20.5015504 29.2783254,20.5026157 C29.2566548,20.5169378 29.2373397,20.5341005 29.2179068,20.5510266 C29.2077781,20.5597855 29.1964717,20.5672424 29.1871675,20.5765932 C29.1724456,20.5912703 29.1604326,20.6084331 29.1473595,20.6245306 C29.1362887,20.6381425 29.1238045,20.6505707 29.1141469,20.6648927 C29.1035472,20.6806351 29.095774,20.6985081 29.0867053,20.7153158 C29.0778722,20.7317684 29.0673902,20.7473924 29.0600882,20.7644368 C29.053375,20.7806527 29.0496062,20.7982889 29.0441885,20.815215 C29.0378287,20.834745 29.0302911,20.85392 29.0259334,20.8740419 C29.0232246,20.8871803 29.0231068,20.9012656 29.0212224,20.9146407 C29.0178069,20.940089 29.0139203,20.9653005 29.0136848,20.9911039 C29.0136848,20.9928793 29.0130959,20.9945364 29.0130959,20.9963119 L29.0130959,24.9760639 Z" id="Fill-17"></path>
                        <path d="M42.2193125,21.3448109 C42.222728,21.6694833 42.4857198,21.9303575 42.8080702,21.9303575 C42.8101902,21.9303575 42.8123101,21.9303575 42.8144301,21.9303575 C43.1394894,21.926925 43.4003612,21.6591857 43.3970635,21.3323827 L43.3187431,13.8566322 L44.4834211,13.2208992 C44.7691435,13.0648955 44.8750233,12.7056608 44.7196779,12.4183914 C44.5645681,12.1313588 44.207474,12.0247129 43.9211627,12.1808349 L42.4450874,12.9866569 C42.436372,12.9913915 42.4291877,12.9980199 42.4208257,13.0032279 C42.4030416,13.0141174 42.3859643,13.025717 42.3694757,13.038382 C42.3542828,13.0499816 42.3399142,13.0620548 42.3262523,13.0749564 C42.3125904,13.0877397 42.2998707,13.1011149 42.2873865,13.1150818 C42.2743135,13.1298773 42.2619471,13.1450279 42.2505229,13.1608887 C42.2396876,13.1759209 42.23003,13.1914266 42.220608,13.2072874 C42.2109505,13.2239767 42.2018818,13.240666 42.1938731,13.2581839 C42.1858644,13.2753467 42.1789156,13.2929829 42.1726735,13.3109742 C42.1663137,13.3292023 42.1607783,13.3475487 42.156185,13.3662502 C42.1518273,13.3842415 42.1482941,13.4023512 42.1455853,13.4209344 C42.1425231,13.4417664 42.1407565,13.4624801 42.1399321,13.4836673 C42.1395787,13.4934915 42.1372232,13.5029606 42.137341,13.5129032 L42.2193125,21.3448109 Z" id="Fill-19"></path>
                        <path d="M52.075852,21.230495 C52.0819763,21.2306134 52.0881006,21.2307317 52.0942249,21.2307317 C52.4111577,21.2307317 52.6726185,20.9776695 52.6825116,20.6571399 L52.9091109,13.252171 C52.909582,13.2374939 52.9067554,13.2237636 52.9061665,13.2093232 C52.9052243,13.1873075 52.904871,13.1652918 52.9015733,13.1438679 C52.8986289,13.1250481 52.893329,13.1072935 52.8887358,13.0890654 C52.8840248,13.0702456 52.8799026,13.0513073 52.8733072,13.0331976 C52.8667118,13.0144961 52.8578787,12.997215 52.8492811,12.9795787 C52.8413902,12.9628894 52.8340881,12.9460817 52.8246661,12.930221 C52.814773,12.9138867 52.8033488,12.8989729 52.7920424,12.8837039 C52.780736,12.8683166 52.7700185,12.8528109 52.757181,12.8386072 C52.7449324,12.8247587 52.7310349,12.8128039 52.7174908,12.8002573 C52.70324,12.7871189 52.6894603,12.7735071 52.6736784,12.7616707 C52.6581321,12.7498343 52.6411725,12.7402468 52.6243307,12.7300675 C52.6086666,12.72048 52.5935914,12.7103007 52.5768673,12.7021336 C52.5567278,12.6924277 52.5352927,12.6854443 52.5140932,12.677869 C52.5010201,12.6733711 52.4892426,12.6667427 52.4758163,12.6630735 L50.1690731,12.0292344 C49.8553202,11.9424736 49.5314387,12.1286601 49.4456984,12.4439817 C49.3599581,12.7593034 49.5447473,13.0848043 49.8585001,13.1709733 L51.7175802,13.6818322 L51.5052316,20.6208021 C51.4953385,20.9474867 51.750675,21.2204341 52.075852,21.230495" id="Fill-21"></path>
                        <path d="M66.5012294,24.2435211 C66.8265242,24.2435211 67.0901049,23.9785042 67.0901049,23.6517012 L67.0901049,16.9752626 C67.0901049,16.9721851 67.0892805,16.9693444 67.0891627,16.9662669 C67.0888094,16.9427125 67.0853939,16.9197499 67.0822139,16.8965506 C67.080094,16.8805714 67.0792696,16.8643556 67.0759719,16.8488499 C67.071732,16.8295565 67.0646655,16.8113285 67.0585412,16.7927454 C67.0527702,16.7746357 67.0481769,16.7561709 67.0406393,16.7390081 C67.0334551,16.7224371 67.0236797,16.7072866 67.0149644,16.6913074 C67.0054246,16.6741446 66.9970625,16.6562717 66.9859917,16.6400558 C66.9749208,16.6239583 66.9613767,16.6097546 66.9487748,16.5947224 C66.937115,16.5808738 66.9265153,16.5661967 66.9137956,16.5535317 C66.900487,16.540275 66.8848229,16.5293855 66.8702188,16.5174307 C66.8550258,16.5051209 66.8406572,16.4919825 66.8242865,16.481093 C66.8110957,16.4724524 66.796256,16.465824 66.7822408,16.4581304 C66.7617479,16.4468858 66.7417261,16.4354045 66.71982,16.4266456 C66.7171111,16.4254619 66.7147556,16.4236865 66.711929,16.4226212 L64.5526403,15.5912326 C64.2490161,15.4744074 63.9084105,15.6269785 63.7920487,15.9321209 C63.6756869,16.2373816 63.8276167,16.5795718 64.131241,16.6965154 L65.9123538,17.3823163 L65.9123538,23.6517012 C65.9123538,23.9785042 66.1759345,24.2435211 66.5012294,24.2435211" id="Fill-23"></path>
                        <path d="M79.9407113,26.1497612 L79.9423602,26.1497612 C80.2668306,26.1497612 80.5302935,25.8859278 80.5312357,25.5595984 L80.5443087,20.780416 C80.5443087,20.7762732 80.543131,20.7723672 80.5430132,20.7682245 C80.5426599,20.7452619 80.5395977,20.7230094 80.5365356,20.7005203 C80.5342978,20.683831 80.5330023,20.6669049 80.5294691,20.650689 C80.5252292,20.6313957 80.5183982,20.6130493 80.5122739,20.5943478 C80.5063851,20.5763565 80.5014386,20.5581284 80.4937832,20.5409656 C80.4863634,20.5239212 80.476588,20.5081788 80.4676371,20.491963 C80.4582151,20.4751553 80.4497353,20.4579925 80.4389,20.4422501 C80.4278291,20.4261526 80.4144028,20.4118305 80.4018008,20.3967983 C80.3900233,20.3830681 80.3793058,20.3686277 80.3663505,20.3560811 C80.3526886,20.3424692 80.3369068,20.3311063 80.3218316,20.3187965 C80.3069919,20.3069601 80.2927411,20.2944135 80.2768415,20.2838791 C80.2624729,20.2745283 80.2468088,20.2671898 80.2313803,20.2590226 C80.2120652,20.2486066 80.1928678,20.2379539 80.1721394,20.2296684 C80.1682528,20.2281296 80.1648373,20.225644 80.160833,20.2241053 L78.1806802,19.4836202 C77.8756427,19.3696357 77.5368037,19.5255211 77.4232685,19.831847 C77.3098511,20.138173 77.4649609,20.4789429 77.7697628,20.5929274 L79.3653799,21.1896002 L79.3534847,25.5562842 C79.3525425,25.8832055 79.6154165,26.1488142 79.9407113,26.1497612" id="Fill-25"></path>
                        <path d="M91.015705,42.4660818 C90.9519886,43.5978782 90.7395223,44.0889703 90.3569888,44.4519926 L93.4166682,44.4519926 L93.4166682,33.7325956 L91.4406375,33.7325956 L91.015705,42.4660818 Z M94.500317,48.5517658 L94.500317,46.5446678 L89.5071237,46.5446678 L89.5071237,48.5517658 L87.2337108,48.5517658 L87.2337108,44.4519926 L88.1474101,44.4519926 C88.5510254,43.9394766 88.678458,43.3843496 88.7210926,42.5086928 L89.2521406,31.5971911 L95.7963142,31.5971911 L95.7963142,44.4519926 L96.8162466,44.4519926 L96.8162466,48.5517658 L94.500317,48.5517658 Z" id="Fill-27"></path>
                        <path d="M100.363986,43.1067979 C100.363986,44.1744409 100.831435,44.5800743 101.575067,44.5800743 C102.318817,44.5800743 102.786149,44.1744409 102.786149,43.1067979 L102.786149,35.0350847 C102.786149,33.9674416 102.318817,33.5616899 101.575067,33.5616899 C100.831435,33.5616899 100.363986,33.9674416 100.363986,35.0350847 L100.363986,43.1067979 Z M98.0268569,35.1845784 C98.0268569,32.7930342 99.2803373,31.4264037 101.575067,31.4264037 C103.869798,31.4264037 105.123278,32.7930342 105.123278,35.1845784 L105.123278,42.9571858 C105.123278,45.34873 103.869798,46.7154789 101.575067,46.7154789 C99.2803373,46.7154789 98.0268569,45.34873 98.0268569,42.9571858 L98.0268569,35.1845784 Z" id="Fill-29"></path>
                        <polygon id="Fill-31" points="111.688463 42.209812 113.28196 31.5971792 116.532788 31.5971792 116.532788 46.544656 114.323092 46.544656 114.323092 35.8252589 112.708277 46.544656 110.498581 46.544656 108.756334 35.9746343 108.756334 46.544656 106.716587 46.544656 106.716587 31.5971792 109.967533 31.5971792"></polygon>
                        <path d="M122.778979,44.4092632 C123.522611,44.4092632 123.926344,44.0675464 123.926344,43.0000217 L123.926344,40.7578529 C123.926344,39.6902098 123.522611,39.348493 122.778979,39.348493 L121.674131,39.348493 L121.674131,44.4092632 L122.778979,44.4092632 Z M117.658353,31.5971911 L121.674131,31.5971911 L121.674131,37.2132068 L122.778979,37.2132068 C125.116108,37.2132068 126.263473,38.515684 126.263473,40.9073466 L126.263473,42.8504096 C126.263473,45.2419538 125.116108,46.5446678 122.778979,46.5446678 L119.336766,46.5446678 L119.336766,33.7325956 L117.658353,33.7325956 L117.658353,31.5971911 Z" id="Fill-33"></path>
                        <polygon id="Fill-35" points="133.890554 31.5972266 141.114643 31.5972266 141.114643 33.7326311 138.671281 33.7326311 138.671281 46.5447033 136.333916 46.5447033 136.333916 33.7326311 133.890554 33.7326311"></polygon>
                        <path d="M144.386341,43.1067979 C144.386341,44.1744409 144.853791,44.5800743 145.597187,44.5800743 C146.340937,44.5800743 146.808268,44.1744409 146.808268,43.1067979 L146.808268,35.0350847 C146.808268,33.9674416 146.340937,33.5616899 145.597187,33.5616899 C144.853791,33.5616899 144.386341,33.9674416 144.386341,35.0350847 L144.386341,43.1067979 Z M142.048976,35.1845784 C142.048976,32.7930342 143.302692,31.4264037 145.597187,31.4264037 C147.892035,31.4264037 149.145633,32.7930342 149.145633,35.1845784 L149.145633,42.9571858 C149.145633,45.34873 147.892035,46.7154789 145.597187,46.7154789 C143.302692,46.7154789 142.048976,45.34873 142.048976,42.9571858 L142.048976,35.1845784 Z" id="Fill-37"></path>
                        <path d="M153.097329,33.7325719 L153.097329,38.7933422 L154.202178,38.7933422 C154.94581,38.7933422 155.349543,38.4516254 155.349543,37.3839823 L155.349543,35.1419318 C155.349543,34.0741704 154.94581,33.7325719 154.202178,33.7325719 L153.097329,33.7325719 Z M157.686672,35.2913072 L157.686672,37.2344886 C157.686672,39.6261512 156.539307,40.9286284 154.202178,40.9286284 L153.097329,40.9286284 L153.097329,46.5446441 L150.759965,46.5446441 L150.759965,31.5971674 L154.202178,31.5971674 C156.539307,31.5971674 157.686672,32.899763 157.686672,35.2913072 Z" id="Fill-39"></path>
                        <polygon id="Fill-41" points="158.897518 46.5446678 158.897518 31.5971911 165.05904 31.5971911 165.05904 33.7325956 161.234647 33.7325956 161.234647 46.5446678"></polygon>
                        <path d="M168.883327,43.1067979 C168.883327,44.1744409 169.350777,44.5800743 170.094173,44.5800743 C170.837923,44.5800743 171.305254,44.1744409 171.305254,43.1067979 L171.305254,35.0350847 C171.305254,33.9674416 170.837923,33.5616899 170.094173,33.5616899 C169.350777,33.5616899 168.883327,33.9674416 168.883327,35.0350847 L168.883327,43.1067979 Z M166.545962,35.1845784 C166.545962,32.7930342 167.799678,31.4264037 170.094173,31.4264037 C172.389021,31.4264037 173.642619,32.7930342 173.642619,35.1845784 L173.642619,42.9571858 C173.642619,45.34873 172.389021,46.7154789 170.094173,46.7154789 C167.799678,46.7154789 166.545962,45.34873 166.545962,42.9571858 L166.545962,35.1845784 Z" id="Fill-43"></path>
                        <path d="M177.594315,39.8182678 L177.594315,44.4092514 L178.932829,44.4092514 C179.719096,44.4092514 180.143911,44.0463475 180.143911,42.935975 L180.143911,41.633261 C180.143911,40.245325 179.697661,39.8182678 178.635447,39.8182678 L177.594315,39.8182678 Z M177.594315,33.7325838 L177.594315,37.6828632 L178.508015,37.6828632 C179.379079,37.6828632 179.910245,37.2985354 179.910245,36.1028224 L179.910245,35.2700135 C179.910245,34.2023704 179.549147,33.7325838 178.720363,33.7325838 L177.594315,33.7325838 Z M182.247374,35.035061 L182.247374,35.5690009 C182.247374,37.1064306 181.779925,38.0886149 180.738793,38.5798254 C181.992509,39.0709176 182.48104,40.202714 182.48104,41.7827547 L182.48104,43.0000099 C182.48104,45.3060953 181.269959,46.544656 178.932829,46.544656 L175.256951,46.544656 L175.256951,31.5971792 L178.784079,31.5971792 C181.206242,31.5971792 182.247374,32.7289756 182.247374,35.035061 Z" id="Fill-45"></path>
                        <path d="M186.135319,43.1067979 C186.135319,44.1744409 186.602768,44.5800743 187.346165,44.5800743 C188.089914,44.5800743 188.557246,44.1744409 188.557246,43.1067979 L188.557246,35.0350847 C188.557246,33.9674416 188.089914,33.5616899 187.346165,33.5616899 C186.602768,33.5616899 186.135319,33.9674416 186.135319,35.0350847 L186.135319,43.1067979 Z M183.797954,35.1845784 C183.797954,32.7930342 185.05167,31.4264037 187.346165,31.4264037 C189.641012,31.4264037 190.894611,32.7930342 190.894611,35.1845784 L190.894611,42.9571858 C190.894611,45.34873 189.641012,46.7154789 187.346165,46.7154789 C185.05167,46.7154789 183.797954,45.34873 183.797954,42.9571858 L183.797954,35.1845784 Z" id="Fill-47"></path>
                        <polygon id="Fill-49" points="192.530366 46.5446678 192.530366 31.5971911 198.691888 31.5971911 198.691888 33.7325956 194.867495 33.7325956 194.867495 46.5446678"></polygon>
                        <polygon id="Fill-49" points="194.2684 67.2342665 194.2684 55.7867898 196.605529 55.7867898 196.605529 67.2342665"></polygon>
                        <polygon id="Fill-49" points="194.2684 54.8023563 194.2684 52.4690229 196.605529 52.4690229 196.605529 54.8023563"></polygon>
                        <path d="M202.516175,43.1067979 C202.516175,44.1744409 202.983624,44.5800743 203.727021,44.5800743 C204.470771,44.5800743 204.938102,44.1744409 204.938102,43.1067979 L204.938102,35.0350847 C204.938102,33.9674416 204.470771,33.5616899 203.727021,33.5616899 C202.983624,33.5616899 202.516175,33.9674416 202.516175,35.0350847 L202.516175,43.1067979 Z M200.17881,35.1845784 C200.17881,32.7930342 201.432526,31.4264037 203.727021,31.4264037 C206.021869,31.4264037 207.275467,32.7930342 207.275467,35.1845784 L207.275467,42.9571858 C207.275467,45.34873 206.021869,46.7154789 203.727021,46.7154789 C201.432526,46.7154789 200.17881,45.34873 200.17881,42.9571858 L200.17881,35.1845784 Z" id="Fill-51"></path>
                        <path d="M90.1223559,63.8925815 C90.1223559,64.9472045 90.5841521,65.3479849 91.3185977,65.3479849 C92.0533965,65.3479849 92.5149572,64.9472045 92.5149572,63.8925815 L92.5149572,55.9193471 C92.5149572,54.864724 92.0533965,54.4638252 91.3185977,54.4638252 C90.5841521,54.4638252 90.1223559,54.864724 90.1223559,55.9193471 L90.1223559,63.8925815 Z M87.8136106,56.066947 C87.8136106,53.7045203 89.051898,52.3545791 91.3185977,52.3545791 C93.5852973,52.3545791 94.8238203,53.7045203 94.8238203,56.066947 L94.8238203,63.7449816 C94.8238203,66.1074082 93.5852973,67.4573494 91.3185977,67.4573494 C89.051898,67.4573494 87.8136106,66.1074082 87.8136106,63.7449816 L87.8136106,56.066947 Z" id="Fill-53"></path>
                        <path d="M102.207992,65.1560685 C102.942555,65.1560685 103.383388,64.8184944 103.383388,63.7638713 L103.383388,61.8865003 C103.383388,60.8318772 102.942555,60.4944215 102.207992,60.4944215 L100.864767,60.4944215 L100.864767,65.1560685 L102.207992,65.1560685 Z M98.5560217,67.2653146 L98.5560217,52.5 L105.020462,52.5 L105.020462,54.6093645 L100.864767,54.6093645 L100.864767,58.385057 L102.207992,58.385057 C104.516855,58.385057 105.692015,59.6717919 105.692015,62.0342185 L105.692015,63.6161531 C105.692015,65.9785798 104.516855,67.2653146 102.207992,67.2653146 L98.5560217,67.2653146 Z" id="Fill-55"></path>
                        <path d="M111.140523,63.8926051 C111.140523,64.9472282 111.602319,65.3480086 112.336883,65.3480086 C113.071564,65.3480086 113.533242,64.9472282 113.533242,63.8926051 L113.533242,55.9193708 C113.533242,54.8647477 113.071564,54.4638489 112.336883,54.4638489 C111.602319,54.4638489 111.140523,54.8647477 111.140523,55.9193708 L111.140523,63.8926051 Z M108.831778,56.0669707 C108.831778,53.704544 110.070183,52.3546028 112.336883,52.3546028 C114.603582,52.3546028 115.841987,53.704544 115.841987,56.0669707 L115.841987,63.7450053 C115.841987,66.1074319 114.603582,67.4573731 112.336883,67.4573731 C110.070183,67.4573731 108.831778,66.1074319 108.831778,63.7450053 L108.831778,56.0669707 Z" id="Fill-57"></path>
                        <path d="M121.883052,54.6752879 L121.883052,59.6743906 L122.974592,59.6743906 C123.709037,59.6743906 124.107941,59.3369349 124.107941,58.2823118 L124.107941,56.067485 C124.107941,55.012862 123.709037,54.6752879 122.974592,54.6752879 L121.883052,54.6752879 Z M126.416451,56.2152033 L126.416451,58.1347119 C126.416451,60.4971386 125.283101,61.7838734 122.974592,61.7838734 L121.883052,61.7838734 L121.883052,67.3313564 L119.574189,67.3313564 L119.574189,52.5660418 L122.974592,52.5660418 C125.283101,52.5660418 126.416451,53.8526583 126.416451,56.2152033 Z" id="Fill-59"></path>
                        <path d="M134.913273,63.5340215 C134.367385,66.1917662 133.464992,67.5206386 130.253736,67.3095957 L130.253736,65.2426055 C131.429014,65.3268806 132.100685,65.115956 132.289597,64.0401458 L132.310678,63.9137331 L129.120386,52.5233307 L131.40805,52.5233307 L132.667537,57.5645709 L133.381018,61.0238766 L133.926671,57.5856397 L134.976047,52.5233307 L137.38973,52.5233307 L134.913273,63.5340215 Z" id="Fill-61"></path>
                        <path d="M143.205968,63.2054644 C143.142959,64.3234122 142.933201,64.8085861 142.555261,65.167229 L145.577605,65.167229 L145.577605,54.578269 L143.625719,54.578269 L143.205968,63.2054644 Z M146.647946,69.2171709 L146.647946,67.2343375 L141.715878,67.2343375 L141.715878,69.2171709 L139.470024,69.2171709 L139.470024,65.167229 L140.372417,65.167229 C140.771321,64.6609862 140.897105,64.1124876 140.939269,63.247602 L141.463957,52.4690229 L147.928279,52.4690229 L147.928279,65.167229 L148.935727,65.167229 L148.935727,69.2171709 L146.647946,69.2171709 Z" id="Fill-63"></path>
                        <path d="M154.37685,63.9139607 C154.37685,64.9685838 154.838764,65.3693642 155.57321,65.3693642 C156.307891,65.3693642 156.769569,64.9685838 156.769569,63.9139607 L156.769569,55.9407263 C156.769569,54.8861033 156.307891,54.4852045 155.57321,54.4852045 C154.838764,54.4852045 154.37685,54.8861033 154.37685,55.9407263 L154.37685,63.9139607 Z M152.068222,56.0883262 C152.068222,53.7258996 153.30651,52.3759584 155.57321,52.3759584 C157.839909,52.3759584 159.078432,53.7258996 159.078432,56.0883262 L159.078432,63.7663608 C159.078432,66.1287875 157.839909,67.4787287 155.57321,67.4787287 C153.30651,67.4787287 152.068222,66.1287875 152.068222,63.7663608 L152.068222,56.0883262 Z" id="Fill-65"></path>
                        <path d="M165.042027,60.6441649 L165.042027,65.1792808 L166.364288,65.1792808 C167.140779,65.1792808 167.560647,64.8206379 167.560647,63.7238773 L167.560647,62.4371425 C167.560647,61.0660141 167.119933,60.6441649 166.070439,60.6441649 L165.042027,60.6441649 Z M165.042027,54.6325768 L165.042027,58.5349188 L165.94442,58.5349188 C166.805002,58.5349188 167.32969,58.1552072 167.32969,56.9739346 L167.32969,56.151305 C167.32969,55.0966819 166.97295,54.6325768 166.154413,54.6325768 L165.042027,54.6325768 Z M169.638436,55.9193116 L169.638436,56.4466231 C169.638436,57.9653513 169.176757,58.9355809 168.148345,59.4207548 C169.386633,59.9059288 169.869393,61.0238766 169.869393,62.5848607 L169.869393,63.787202 C169.869393,66.0652352 168.673033,67.2886452 166.364288,67.2886452 L162.733164,67.2886452 L162.733164,52.5233307 L166.217422,52.5233307 C168.610024,52.5233307 169.638436,53.6412784 169.638436,55.9193116 Z" id="Fill-67"></path>
                        <path d="M174.930116,62.5825988 L177.155005,62.5825988 L176.042502,55.1156072 L174.930116,62.5825988 Z M180.198196,67.2654329 L177.868487,67.2654329 L177.469818,64.586501 L174.636385,64.586501 L174.23748,67.2654329 L172.117764,67.2654329 L174.468437,52.5 L177.847523,52.5 L180.198196,67.2654329 Z" id="Fill-69"></path>
                        <polygon id="Fill-71" points="185.639555 67.3313564 183.330692 67.3313564 183.330692 52.5660418 185.639555 52.5660418 185.639555 58.8940169 188.262995 58.8940169 188.262995 52.5660418 190.613668 52.5660418 190.613668 67.3313564 188.262995 67.3313564 188.262995 61.0033813 185.639555 61.0033813"></polygon>
                        <path d="M203.768088,54.6325649 C202.949669,54.6325649 202.59281,55.0966701 202.59281,56.1512932 L202.59281,57.606815 C202.59281,58.7879692 203.117616,59.1676808 203.978081,59.1676808 L204.880474,59.1676808 L204.880474,54.6325649 L203.768088,54.6325649 Z M200.011297,67.2886334 C200.242254,66.7401347 200.263101,66.2128232 200.263101,65.4956558 L200.263101,63.2176227 C200.263101,61.6777073 200.640805,60.5597596 201.795355,60.074704 C200.766943,59.58953 200.284065,58.5981133 200.284065,57.0795035 L200.284065,55.9192998 C200.284065,53.6412666 201.312477,52.5233188 203.705314,52.5233188 L207.189337,52.5233188 L207.189337,67.2886334 L204.880474,67.2886334 L204.880474,61.2770453 L204.083018,61.2770453 C203.033642,61.2770453 202.571964,61.783288 202.571964,63.154298 L202.571964,65.4745871 C202.571964,66.6769284 202.48799,66.9089218 202.361971,67.2886334 L200.011297,67.2886334 Z" id="Fill-75"></path>
                        <path d="M129.905291,38.0685759 C130.49876,38.0685759 130.87199,38.1043218 131.024155,38.1753402 C131.176085,38.2467137 131.252168,38.4176313 131.252168,38.6878562 L131.252168,39.5418524 C131.252168,39.98335 131.027335,40.2038621 130.578494,40.2038621 L129.905291,40.2038621 C129.514278,40.2038621 129.318771,39.9903335 129.318771,39.5632762 L129.318771,38.6878562 C129.318771,38.275121 129.514278,38.0685759 129.905291,38.0685759" id="Fill-77"></path>
                    </g>
                </g>
            </g>
        </g>
    </g>
</svg>