<svg xmlns="http://www.w3.org/2000/svg" xmlns:xlink="http://www.w3.org/1999/xlink" width="0" height="0" style="position:absolute">
	
		<symbol id="amount-arrow" viewBox="0 0 6 10">
			<title>8:16:8:16</title><path d="M0 5l6-5v10z" fill-rule="evenodd"></path>
		</symbol>
	
		<symbol id="arrow-left" viewBox="0 0 8 5">
			<title>arrow left</title><path d="M3 0L0 2.53 3 5V3h5V2H3z" fill-rule="nonzero"></path>
		</symbol>
	
		<symbol id="cart-icon" viewBox="0 0 19 18">
			<title>cart-icon</title><g fill-rule="nonzero"><path d="M8.5 15c-.827 0-1.5.673-1.5 1.5S7.673 18 8.5 18s1.5-.673 1.5-1.5S9.327 15 8.5 15zM14.5 15c-.827 0-1.5.673-1.5 1.5s.673 1.5 1.5 1.5 1.5-.673 1.5-1.5-.673-1.5-1.5-1.5zM18.79 3.492a.916.916 0 0 0-.723-.357H3.536l-.294-1.479A.963.963 0 0 0 2.7.963L.652.04A.46.46 0 0 0 .04.292.491.491 0 0 0 .28.929l2.047.922 2.258 11.376a.946.946 0 0 0 .913.773h11.177a.476.476 0 0 0 .466-.484.476.476 0 0 0-.466-.485H5.5l-.275-1.383h11.537c.44 0 .825-.326.914-.774L18.98 4.3a.992.992 0 0 0-.191-.807z"></path></g>
		</symbol>
	
		<symbol id="category-icon-1" viewBox="0 0 46 52">
			<title>freezer</title><g fill-rule="evenodd"><path d="M42.48 0H13.395v1.52H42.48c.978 0 1.773.796 1.773 1.773v36.3H1.523v-36.3c0-.977.796-1.773 1.774-1.773h8.073V0H3.297A3.297 3.297 0 0 0 .003 3.293v44.241h2.702v3.639h40.366v-3.64h2.702V3.295A3.297 3.297 0 0 0 42.479 0zm1.772 46.006h-2.701v.008H9.974v1.52h31.577v2.119H4.225v-2.12h3.943v-1.52H4.225v-.007H1.523v-4.892h42.73v4.892z" fill-rule="nonzero"></path><path d="M41.213 9.88h1.52v7.972h-1.52zM41.213 19.878h1.52v18.45h-1.52zM7.826 13.072v-1.52h-3.77v18.015l3.775-.025-.01-1.52-2.244.015V13.072zM14.96 21.317h6.093l-2.045 2.045h-2.77v1.52h2.325v2.325h1.52v-2.77l2.045-2.045v6.093h1.52v-6.093l2.045 2.045v2.77h1.52v-2.325h2.325v-1.52h-2.77l-2.045-2.045h6.093v-1.52h-6.093l2.045-2.045h2.77v-1.52h-2.325v-2.325h-1.52v2.77l-2.045 2.045v-6.093h-1.52v6.093l-2.045-2.045v-2.77h-1.52v2.325h-2.325v1.52h2.77l2.045 2.045H14.96zM8.147 42.269h1.52v2.589h-1.52zM11.188 42.269h1.52v2.589h-1.52zM14.228 42.269h1.52v2.589h-1.52zM30.028 42.269h1.52v2.589h-1.52zM33.068 42.269h1.52v2.589h-1.52zM36.108 42.269h1.52v2.589h-1.52z"></path></g>
		</symbol>
	
		<symbol id="category-icon-10" viewBox="0 0 50 52">
			<title>mixer</title><g fill-rule="evenodd"><path d="M46.991 22.214h-1.709a.854.854 0 0 0-.854-.854h-6.472a7.335 7.335 0 0 1-2.039-4.443 2.563 2.563 0 0 0 1.676-2.393v-1.708h1.709a.854.854 0 0 0 .854-.855V9.398h1.709a2.563 2.563 0 0 0 0-5.126h-2.212A6.843 6.843 0 0 0 33.32 0H8.544a6.843 6.843 0 0 0-6.835 6.835v5.126c0 .472.382.855.854.855H4.07a3.6 3.6 0 0 1 3.238 2c.25.503.38 1.057.381 1.619v12.342A29.698 29.698 0 0 1 5.895 38.96l-.369 1.017a7.022 7.022 0 0 1-3.988 4.11A2.438 2.438 0 0 0 0 46.363V48.7a2.563 2.563 0 0 0 2.563 2.563h37.593a2.563 2.563 0 0 0 2.563-2.563V46.99a2.563 2.563 0 0 0-2.563-2.563h-2.563v-2.905a10.253 10.253 0 0 0 7.66-9.325l2.69-1.076a2.552 2.552 0 0 0 1.611-2.375v-3.97a2.563 2.563 0 0 0-2.563-2.563zM40.156 6.835v-.854h1.709a.854.854 0 0 1 0 1.708h-1.71v-.854zm0 39.302c.472 0 .854.382.854.854V48.7a.854.854 0 0 1-.854.854H2.563a.854.854 0 0 1-.854-.854v-2.336a.737.737 0 0 1 .466-.69 8.732 8.732 0 0 0 4.956-5.116L7.5 39.54a31.404 31.404 0 0 0 1.898-10.764V16.435a5.363 5.363 0 0 0-.562-2.383 5.296 5.296 0 0 0-4.766-2.945h-.652V6.835A5.131 5.131 0 0 1 8.544 1.71H33.32a5.131 5.131 0 0 1 5.126 5.126v4.272H21.561a5.297 5.297 0 0 0-4.765 2.946 5.357 5.357 0 0 0-.563 2.382v22.137a7.633 7.633 0 0 0 3.118 6.125 7.769 7.769 0 0 0 4.643 1.44h16.162zM35.03 15.379h-5.127a.854.854 0 0 1-.854-.855v-1.708h6.835v1.708a.854.854 0 0 1-.854.855zm.728 5.98H33.32v-4.271h.896a9.003 9.003 0 0 0 1.54 4.272zm-4.146-4.271v4.272h-2.437a9.006 9.006 0 0 0 1.539-4.272h.898zM28.195 41.71v2.718h-4.201a6.078 6.078 0 0 1-3.632-1.11 5.842 5.842 0 0 1-2.42-4.746V16.435c0-.562.131-1.115.382-1.618a3.598 3.598 0 0 1 3.237-2.001h5.78v1.708a2.563 2.563 0 0 0 1.675 2.393 7.335 7.335 0 0 1-2.039 4.443h-6.472a.854.854 0 0 0-.854.854v9.398a10.26 10.26 0 0 0 8.544 10.098zm1.708 2.718v-2.563h5.981v2.563h-5.98zm13.67-12.816a8.553 8.553 0 0 1-8.543 8.544h-5.127a8.527 8.527 0 0 1-6.818-3.418h1.692V35.03h-2.7a8.413 8.413 0 0 1-.545-1.71h1.536v-1.708H21.36v-1.709h1.708v-1.708H21.36v-1.71h1.708v-1.708H21.36v-1.709h22.213v8.544zm4.272-2.865a.85.85 0 0 1-.537.793l-2.026.81v-6.427h1.709c.472 0 .854.382.854.854v3.97z" fill-rule="nonzero"></path><path d="M5.126 7.69h31.612v1.708H5.126z"></path><path d="M11.534 39.302a2.99 2.99 0 1 0 0 5.98 2.99 2.99 0 0 0 0-5.98zm0 4.271a1.281 1.281 0 1 1 0-2.562 1.281 1.281 0 0 1 0 2.562z" fill-rule="nonzero"></path><path d="M21.36 6.835h1.708V5.126H35.03V3.418H17.942v1.708h3.418z"></path></g>
		</symbol>
	
		<symbol id="category-icon-11" viewBox="0 0 39 50">
			<title>plastic-bag</title><g fill-rule="evenodd"><path d="M37.927 28.5a.97.97 0 0 0-.68.282.97.97 0 0 0-.283.68.97.97 0 0 0 .282.681.97.97 0 0 0 .681.282.97.97 0 0 0 .68-.282.97.97 0 0 0 .283-.68.97.97 0 0 0-.282-.68.97.97 0 0 0-.681-.283z"></path><path d="M37.927 0H.963A.963.963 0 0 0 0 .963v45.435a2.891 2.891 0 0 0 2.888 2.888h33.114a2.891 2.891 0 0 0 2.888-2.888V33.306a.963.963 0 1 0-1.926 0v13.092c0 .53-.431.963-.962.963H5.212l23.976-23.976a.963.963 0 0 0-1.362-1.362L2.551 47.3a.963.963 0 0 1-.626-.901V1.925h35.04v23.777a.963.963 0 1 0 1.925 0V.962A.963.963 0 0 0 37.927 0z"></path><path d="M24.258 5.198h-9.626a3.277 3.277 0 0 0-3.273 3.273 3.277 3.277 0 0 0 3.273 3.273h9.626A3.277 3.277 0 0 0 27.53 8.47a3.277 3.277 0 0 0-3.273-3.273zm0 4.62h-9.626a1.35 1.35 0 0 1-1.348-1.347 1.35 1.35 0 0 1 1.348-1.348h9.626a1.35 1.35 0 0 1 1.348 1.348 1.35 1.35 0 0 1-1.348 1.348z" fill-rule="nonzero"></path><path d="M25.72 13.67L9.778 29.612a.963.963 0 0 0 1.36 1.362L27.083 15.03a.963.963 0 0 0-1.361-1.362zM7.289 32.1a.97.97 0 0 0-.282.682c0 .253.103.5.282.68a.97.97 0 0 0 .68.283.97.97 0 0 0 .681-.282.967.967 0 0 0 0-1.363.969.969 0 0 0-1.361 0z"></path></g>
		</symbol>
	
		<symbol id="category-icon-2" viewBox="0 0 50 50">
			<title>settings</title><g fill-rule="nonzero"><path d="M48.29 34.072a24.795 24.795 0 0 0 .457-1.27c.12-.365.232-.736.336-1.11.017-.059.038-.116.054-.175.001-.007 0-.014.002-.02.558-2.073.861-4.25.861-6.497C50 11.215 38.785 0 25 0S0 11.215 0 25c0 2.37.34 4.663.958 6.837.003.01.001.019.004.027.011.04.026.08.038.12.118.404.246.804.383 1.201.03.083.056.168.085.25.158.438.325.872.505 1.298.095.225.2.444.301.665.079.171.154.343.237.512.15.31.308.614.47.917l.076.14a24.86 24.86 0 0 0 12.462 11.16c.253.104.506.206.763.302.248.093.499.177.75.262.156.052.308.112.465.162.009.003.017.002.026.004A24.918 24.918 0 0 0 25 50c2.718 0 5.335-.443 7.787-1.248.008-.003.017-.001.026-.005.065-.021.127-.047.192-.069.35-.119.697-.245 1.04-.378.148-.057.295-.114.442-.174.27-.112.538-.23.804-.351a24.864 24.864 0 0 0 12.604-12.75c.052-.117.106-.232.156-.35.083-.198.16-.4.238-.602zm-44.403.849a22.664 22.664 0 0 1-.592-1.375c-.05-.127-.102-.252-.15-.38-.15-.405-.293-.815-.422-1.232.138-.106.275-.201.413-.297l2.627 4.55c-.29.233-.544.503-.779.79-.33-.551-.638-1.117-.924-1.696-.058-.12-.117-.24-.173-.36zm11.77-2.958l-3.523 3.912a5.439 5.439 0 0 0-4.926-.517L4.58 30.803a10.678 10.678 0 0 1 11.078 1.16zm2.742 3.124c.96 1.662 1.43 3.5 1.43 5.326l-.002.004.001.005c0 1.207-.213 2.409-.62 3.554l-4.803-2.139a5.41 5.41 0 0 0-.535-4.135 5.414 5.414 0 0 0-.497-.711l3.518-3.907c.567.597 1.079 1.26 1.508 2.003zm-1.243 11.886c-.15-.053-.296-.11-.444-.166a23.244 23.244 0 0 1-4.206-2.115c.487-.381.896-.833 1.218-1.334l4.803 2.139c-.3.551-.645 1.084-1.049 1.586-.106-.037-.215-.071-.322-.11zm-9.872-9.816a3.767 3.767 0 0 1 5.143 1.377 3.77 3.77 0 0 1-1.379 5.144l-.01.005c-.073-.054-.143-.113-.215-.168a23.42 23.42 0 0 1-.934-.757 23.28 23.28 0 0 1-1.41-1.297c-.18-.182-.356-.37-.532-.558a23.384 23.384 0 0 1-1.267-1.477c-.16-.204-.32-.409-.475-.619-.085-.114-.166-.232-.248-.349.325-.539.778-.985 1.327-1.301zm11.888 10.44c.485-.676.9-1.389 1.234-2.13.007-.013.017-.022.022-.035.004-.007.002-.015.005-.021.588-1.324.929-2.733 1.026-4.161H22.5a.833.833 0 1 0 0-1.667h-1.037a12.271 12.271 0 0 0-1.232-4.591l.899-.52a.833.833 0 1 0-.833-1.443l-.908.524a12.251 12.251 0 0 0-1.96-2.277c-.006-.006-.008-.014-.014-.02-.01-.008-.02-.01-.03-.017a12.105 12.105 0 0 0-1.355-1.042l.525-.91a.833.833 0 0 0-1.443-.833l-.52.9A12.412 12.412 0 0 0 10 28.124v-1.04a.833.833 0 1 0-1.667 0v1.05c-1.822.12-3.645.633-5.33 1.607-.25.144-.496.307-.74.476A23.26 23.26 0 0 1 1.667 25C1.667 12.134 12.134 1.667 25 1.667c12.866 0 23.333 10.467 23.333 23.333 0 1.668-.179 3.295-.514 4.865a12.326 12.326 0 0 0-6.152-2.148v-1.05a.833.833 0 1 0-1.667 0v1.042c-1.572.104-3.132.511-4.593 1.226l-.519-.9a.832.832 0 1 0-1.443.834l.524.908a12.22 12.22 0 0 0-3.357 3.359l-.909-.525a.833.833 0 0 0-.833 1.443l.9.52a12.412 12.412 0 0 0-1.23 4.591H27.5a.833.833 0 1 0 0 1.667h1.05c.037.566.107 1.133.225 1.696.002.012-.002.023 0 .035.002.008.008.015.01.024a12.3 12.3 0 0 0 1.372 3.575c.269.467.586.919.93 1.36a23.306 23.306 0 0 1-11.915.075zm28.171-15.879c-.093.312-.196.62-.301.925-.041.118-.077.236-.12.353-.101.28-.214.554-.326.829-.168.41-.344.815-.535 1.212l-.04.086c-.265.548-.555 1.08-.86 1.603a5.437 5.437 0 0 0-6.286-1.784l-2.623-4.543a10.61 10.61 0 0 1 4.565-1.054c2.331 0 4.65.763 6.56 2.252l-.034.121zm-11.358 13.86c-.272.146-.546.288-.823.423a22.24 22.24 0 0 1-.656.3c-.145.065-.287.134-.434.196-.399.168-.804.325-1.215.47l-.06.021a10.452 10.452 0 0 1-1.195-1.658 10.605 10.605 0 0 1-.98-2.307l5.143-1.094c.102.267.22.53.367.785a5.384 5.384 0 0 0 1.686 1.77 23.234 23.234 0 0 1-1.833 1.094zm-1.182-14.357l2.629 4.554a5.442 5.442 0 0 0-2.015 4.525l-5.15 1.094a10.675 10.675 0 0 1 4.536-10.173zm6.024 5.015a3.766 3.766 0 0 1 3.349 2.036c-.088.126-.178.25-.268.376a24.095 24.095 0 0 1-1.233 1.558c-.155.182-.312.363-.472.54-.2.217-.403.43-.61.639-.126.127-.255.25-.383.374-.354.343-.72.674-1.094.994-.14.12-.28.239-.423.355-.133.109-.269.213-.404.318a3.74 3.74 0 0 1-1.716-1.544 3.77 3.77 0 0 1 1.378-5.143 3.75 3.75 0 0 1 1.876-.503z"></path><path d="M32.243 26.108a7.449 7.449 0 0 0-.748-5.69c-.19-.33-.41-.635-.64-.927l6.32-6.32c.76.841 1.447 1.77 2.036 2.792a16.384 16.384 0 0 1 2.183 8.27c-.002.46.37.834.83.837h.004c.458 0 .83-.37.833-.83.007-1.33-.141-2.65-.42-3.937l1.894-.508a.833.833 0 1 0-.432-1.61l-1.89.507a17.964 17.964 0 0 0-1.167-2.828l1.691-.977a.833.833 0 1 0-.833-1.443l-1.704.984a18.034 18.034 0 0 0-1.85-2.434l1.382-1.38a.832.832 0 1 0-1.179-1.179l-1.377 1.377a17.865 17.865 0 0 0-2.434-1.852l.98-1.697a.833.833 0 1 0-1.444-.833l-.982 1.702A18.146 18.146 0 0 0 30.47 6.97l.51-1.907a.834.834 0 0 0-1.61-.431l-.51 1.906a18.092 18.092 0 0 0-3.027-.407V4.167a.833.833 0 1 0-1.666 0v1.96a17.89 17.89 0 0 0-3.035.387l-.504-1.881a.834.834 0 0 0-1.61.432l.505 1.885a18.11 18.11 0 0 0-2.819 1.183l-.983-1.703a.833.833 0 1 0-1.443.833l.977 1.691a17.901 17.901 0 0 0-2.425 1.864l-1.383-1.383a.832.832 0 1 0-1.179 1.178L11.655 12a18.154 18.154 0 0 0-1.857 2.428l-1.702-.983a.833.833 0 0 0-.833 1.443l1.704.985a18.252 18.252 0 0 0-1.17 2.822l-1.9-.51a.833.833 0 1 0-.432 1.61l1.9.51a18.022 18.022 0 0 0-.43 3.934c.002.46.375.831.834.831h.003a.834.834 0 0 0 .83-.836 16.485 16.485 0 0 1 4.23-11.056l6.309 6.309a7.477 7.477 0 0 0-1.386 2.739 7.449 7.449 0 0 0 .748 5.69 7.45 7.45 0 0 0 4.554 3.494c.646.172 1.301.26 1.953.26 1.3-.002 2.582-.342 3.737-1.01a7.443 7.443 0 0 0 3.496-4.552zM21.25 17.672a7.67 7.67 0 0 0-.926.64l-6.316-6.315a16.23 16.23 0 0 1 2.788-2.04c6.31-3.645 14.056-2.599 19.197 2.037l-6.314 6.314a7.48 7.48 0 0 0-2.738-1.386 7.462 7.462 0 0 0-5.691.75zM23.49 29.8a5.792 5.792 0 0 1-3.542-2.718 5.793 5.793 0 0 1-.582-4.425 5.794 5.794 0 0 1 2.717-3.541 5.796 5.796 0 0 1 4.426-.583 5.792 5.792 0 0 1 3.542 2.718c.779 1.349.986 2.92.582 4.426a5.794 5.794 0 0 1-2.717 3.54 5.78 5.78 0 0 1-4.426.583z"></path></g>
		</symbol>
	
		<symbol id="category-icon-3" viewBox="0 0 34 47">
			<title>water-cooler</title><g fill-rule="evenodd"><path d="M33.077 30.754h-2.86c.225-.447.352-.952.352-1.486v-3.287a3.326 3.326 0 0 0-2.633-3.248v-1.547a3.326 3.326 0 0 0 2.633-3.249v-3.286a3.326 3.326 0 0 0-2.633-3.249V9.855a3.326 3.326 0 0 0 2.633-3.248V3.32C30.57 1.49 29.08 0 27.25 0H6.746a3.324 3.324 0 0 0-3.32 3.32v3.287a3.326 3.326 0 0 0 2.632 3.248v1.547a3.326 3.326 0 0 0-2.633 3.25v3.285a3.326 3.326 0 0 0 2.633 3.249v1.547a3.326 3.326 0 0 0-2.633 3.248v3.287c0 .534.128 1.039.353 1.486H.918a.917.917 0 0 0-.918.917V46.04c0 .506.41.917.917.917h32.16c.506 0 .917-.41.917-.917V31.67a.917.917 0 0 0-.917-.917zM7.893 11.331V9.927h18.209v1.404H7.892zM5.259 6.607V3.32c0-.82.667-1.487 1.487-1.487h20.503c.82 0 1.486.667 1.486 1.487v3.286c0 .82-.667 1.486-1.486 1.486H6.746c-.82 0-1.487-.667-1.487-1.486zm0 11.33v-3.286c0-.82.667-1.486 1.487-1.486h20.503c.82 0 1.486.667 1.486 1.486v3.286c0 .82-.667 1.487-1.486 1.487h-6.583a.917.917 0 1 0 0 1.834h5.436v1.403H7.892v-1.403h5.437a.917.917 0 0 0 0-1.834H6.746c-.82 0-1.487-.667-1.487-1.487zm0 11.331v-3.287c0-.82.667-1.486 1.487-1.486h20.503c.82 0 1.486.667 1.486 1.486v3.287c0 .82-.667 1.486-1.486 1.486H6.746c-.82 0-1.487-.667-1.487-1.486zm9.875 3.32h3.726v2.878h-3.726v-2.877zM4.84 45.123V37.3h1.81v2.025a.917.917 0 0 0 1.835 0V37.3h1.811v7.822H4.84zm18.86 0V37.3h1.811v2.025a.917.917 0 1 0 1.834 0V37.3h1.811v7.822H23.7zm8.46 0h-1.17v-8.739a.917.917 0 0 0-.916-.917h-7.291a.917.917 0 0 0-.918.917v8.739H12.13v-8.739a.917.917 0 0 0-.917-.917h-7.29a.917.917 0 0 0-.917.917v8.739h-1.17V32.589H13.3v3.794c0 .507.41.917.917.917h5.56c.507 0 .917-.41.917-.917V32.59H32.16v12.533z" fill-rule="nonzero"></path><path d="M16.997 21.258a.92.92 0 0 0 .917-.917.92.92 0 0 0-.917-.917.919.919 0 0 0-.917.917c0 .505.412.917.917.917z"></path></g>
		</symbol>
	
		<symbol id="category-icon-4" viewBox="0 0 52 38">
			<title>table</title><g fill-rule="evenodd"><path d="M18.844 13.624a1.016 1.016 0 0 0-.714-.295c-.265 0-.526.107-.714.295a1.02 1.02 0 0 0-.296.715c0 .265.108.525.296.714.188.188.449.296.714.296.266 0 .527-.108.714-.296a1.02 1.02 0 0 0 .296-.714c0-.267-.108-.528-.296-.715z"></path><path d="M50.705 4.848a1.01 1.01 0 0 0-1.01 1.01v14.945H36.16a1.01 1.01 0 0 0-1.01 1.01V36.157a1.01 1.01 0 0 0 2.02 0V27.67h12.525v8.486a1.01 1.01 0 0 0 2.02 0V5.858a1.01 1.01 0 0 0-1.01-1.01zm-1.01 20.803H37.17v-2.828h12.525v2.828zM15.555 20.802H2.02V5.858a1.01 1.01 0 0 0-2.02 0v30.299a1.01 1.01 0 0 0 2.02 0V27.67h12.525v8.486a1.01 1.01 0 0 0 2.02 0V21.813a1.01 1.01 0 0 0-1.01-1.01zm-1.01 4.849H2.02v-2.828h12.525v2.828z" fill-rule="nonzero"></path><path d="M38.18 8.48h-1.01V6.698a3.035 3.035 0 0 0 2.02-2.857V1.013a1.01 1.01 0 0 0-1.01-1.01h-4.04a1.01 1.01 0 0 0-1.01 1.01v2.828c0 1.317.844 2.44 2.02 2.857V8.48h-4.447a5.024 5.024 0 0 0 1.013-3.03 1.01 1.01 0 0 0-1.01-1.01h-9.697A1.01 1.01 0 0 0 20 5.45c0 1.136.377 2.185 1.013 3.03h-4.447V6.698a3.035 3.035 0 0 0 2.02-2.857V1.013a1.01 1.01 0 0 0-1.01-1.01h-4.04a1.01 1.01 0 0 0-1.01 1.01v2.828c0 1.317.844 2.44 2.02 2.857V8.48h-1.01a3.438 3.438 0 0 0-3.434 3.434 3.438 3.438 0 0 0 3.434 3.434h.555a1.01 1.01 0 0 0 0-2.02h-.555c-.78 0-1.414-.634-1.414-1.414 0-.78.634-1.414 1.414-1.414H38.18c.78 0 1.414.634 1.414 1.414 0 .78-.634 1.414-1.414 1.414H21.867a1.01 1.01 0 0 0 0 2.02h.96v16.123a5.064 5.064 0 0 0-3.156 4.684c0 .558.452 1.01 1.01 1.01H31.06a1.01 1.01 0 0 0 1.01-1.01 5.064 5.064 0 0 0-3.181-4.694V15.348h9.292a3.438 3.438 0 0 0 3.434-3.434A3.438 3.438 0 0 0 38.18 8.48zM15.59 4.85l-.035-.002-.035.002a1.01 1.01 0 0 1-.975-1.009V2.023h2.02v1.818c0 .546-.435.99-.976 1.009zm11.075 3.63H25.05a3.035 3.035 0 0 1-2.857-2.02h7.33a3.035 3.035 0 0 1-2.857 2.02zm9.53-3.63l-.035-.002-.035.002a1.01 1.01 0 0 1-.975-1.009V2.023h2.02v1.818c0 .546-.435.99-.975 1.009zM24.847 15.348h2.02v15.723h-2.02V15.348zm5.03 19.797h-8.013a3.042 3.042 0 0 1 2.864-2.026h2.285c1.32 0 2.446.847 2.863 2.026z" fill-rule="nonzero"></path></g>
		</symbol>
	
		<symbol id="category-icon-5" viewBox="0 0 49 52">
			<title>grocery-weight-scale</title><g fill-rule="nonzero"><path d="M45.973 51.985h-43c-.881 0-1.71-.388-2.276-1.062a2.955 2.955 0 0 1-.65-2.424l5.43-30.84a2.964 2.964 0 0 1 2.925-2.456h13.751v-.574H6.013a2.975 2.975 0 0 1-2.97-2.971V2.97A2.974 2.974 0 0 1 6.012 0a2.974 2.974 0 0 1 2.97 2.97v5.717h32.282V2.97A2.974 2.974 0 0 1 44.236 0a2.974 2.974 0 0 1 2.971 2.97v8.687a2.974 2.974 0 0 1-2.97 2.972H28.094v.574h12.23a2.97 2.97 0 0 1 2.923 2.436l5.647 30.838a2.967 2.967 0 0 1-.64 2.437 2.963 2.963 0 0 1-2.282 1.071zM8.403 16.984c-.58 0-1.073.413-1.173.983L1.8 48.809c-.061.346.034.698.26.968.23.273.561.428.914.428h43a1.192 1.192 0 0 0 1.17-1.409L41.499 17.96a1.19 1.19 0 0 0-1.172-.975H26.315v-4.135h17.922c.655 0 1.19-.536 1.19-1.192V2.97a1.192 1.192 0 0 0-2.381 0v7.498H7.203V2.97a1.191 1.191 0 0 0-2.38 0v8.687c0 .657.534 1.192 1.19 1.192h17.921v4.135H8.402z"></path><path d="M24.473 40.33c-4.193 0-7.605-3.412-7.605-7.605 0-3.274 2.109-6.167 5.246-7.2l1.169-.384v7.584a1.191 1.191 0 0 0 2.38 0V25.14l1.168.385c3.138 1.032 5.247 3.925 5.247 7.199 0 4.194-3.412 7.605-7.605 7.605zm-2.97-12.583a5.782 5.782 0 0 0-2.854 4.977 5.831 5.831 0 0 0 5.824 5.825 5.832 5.832 0 0 0 5.824-5.825 5.782 5.782 0 0 0-2.853-4.977v4.977a2.974 2.974 0 0 1-2.971 2.97 2.974 2.974 0 0 1-2.971-2.97v-4.977z"></path></g>
		</symbol>
	
		<symbol id="category-icon-6" viewBox="0 0 49 44">
			<title>air-conditioner</title><g fill-rule="evenodd"><path d="M47.492 0H.946A.947.947 0 0 0 0 .947v15.856c0 .251.1.492.277.67l5.627 5.626a.826.826 0 0 0 .068.062l.02.015a.838.838 0 0 0 .055.04l.017.011a.8.8 0 0 0 .062.037l.012.006a.979.979 0 0 0 .072.034l.009.003c.025.01.051.02.078.028l.01.003.08.02.022.003c.023.004.046.008.07.01.03.004.062.005.094.005h35.29a1 1 0 0 0 .095-.004l.069-.01.023-.004a.832.832 0 0 0 .08-.02c.003-.002.006-.002.01-.003a.813.813 0 0 0 .077-.028l.01-.003c.023-.01.047-.022.07-.034.004-.002.009-.003.013-.006a.851.851 0 0 0 .062-.037l.018-.01a.887.887 0 0 0 .053-.04l.021-.016c.019-.015.037-.032.054-.049l.015-.013 5.628-5.626a.948.948 0 0 0 .278-.67V.947A.947.947 0 0 0 47.492 0zM7.52 21.483v-6.436h33.398v6.436H7.519zm39.026-5.072l-3.735 3.734V14.1a.946.946 0 0 0-.947-.946H6.573a.946.946 0 0 0-.947.946v6.044l-3.733-3.733V1.893h44.652v14.518z" fill-rule="nonzero"></path><path d="M37.84 17.318h-9.838a.947.947 0 0 0 0 1.893h9.839a.946.946 0 0 0 0-1.893zM20.434 17.318h-9.836a.947.947 0 0 0 0 1.893h9.836a.947.947 0 0 0 0-1.893zM6.573 6.329h3.092a.947.947 0 1 0 0-1.894H6.573a.947.947 0 1 0 0 1.894zM30.204 26.353a.947.947 0 1 0-1.894 0c0 .674-.35 1.439-.721 2.248-.44.959-.893 1.95-.893 3.037 0 1.088.454 2.079.893 3.037.371.81.721 1.575.721 2.249 0 .674-.35 1.439-.721 2.248-.44.959-.893 1.95-.893 3.037a.947.947 0 1 0 1.893 0c0-.674.35-1.439.721-2.248.44-.959.894-1.95.894-3.037 0-1.088-.455-2.079-.894-3.037-.37-.81-.72-1.574-.72-2.249 0-.674.35-1.438.72-2.248.44-.959.894-1.95.894-3.037zM13.28 26.353a.947.947 0 1 0-1.894 0c0 .674-.35 1.439-.72 2.248-.44.959-.894 1.95-.894 3.037 0 1.088.454 2.079.893 3.037.371.81.721 1.575.721 2.249 0 .674-.35 1.439-.72 2.248-.44.959-.894 1.95-.894 3.037a.947.947 0 1 0 1.893 0c0-.674.35-1.439.721-2.248.44-.959.894-1.95.894-3.037 0-1.088-.455-2.079-.894-3.037-.37-.81-.72-1.574-.72-2.249 0-.674.35-1.438.72-2.248.44-.959.894-1.95.894-3.037zM21.743 26.353a.947.947 0 1 0-1.893 0c0 .674-.351 1.438-.723 2.248-.44.958-.895 1.95-.895 3.037 0 1.088.455 2.08.895 3.038.372.81.723 1.574.723 2.248 0 .674-.351 1.438-.723 2.248-.44.958-.895 1.95-.895 3.037a.947.947 0 0 0 1.894 0c0-.674.35-1.438.722-2.248.44-.958.895-1.95.895-3.037 0-1.088-.455-2.08-.895-3.038-.372-.81-.722-1.574-.722-2.248 0-.674.35-1.438.722-2.248.44-.958.895-1.95.895-3.037zM38.667 26.353a.947.947 0 1 0-1.893 0c0 .674-.351 1.438-.723 2.248-.44.958-.894 1.95-.894 3.037 0 1.088.454 2.08.894 3.038.372.81.723 1.574.723 2.248 0 .674-.351 1.438-.723 2.248-.44.958-.894 1.95-.894 3.037a.946.946 0 1 0 1.893 0c0-.674.35-1.438.722-2.248.44-.958.895-1.95.895-3.037 0-1.088-.455-2.08-.895-3.038-.371-.81-.722-1.574-.722-2.248 0-.674.35-1.438.722-2.248.44-.958.895-1.95.895-3.037zM24.218 17.318a.95.95 0 0 0-.947.947c0 .52.427.946.947.946a.948.948 0 0 0 .947-.946.948.948 0 0 0-.947-.947z"></path></g>
		</symbol>
	
		<symbol id="category-icon-7" viewBox="0 0 52 52">
			<title>dish</title><g fill-rule="evenodd"><path d="M36.823 17.526l-.556-1.832a3.978 3.978 0 0 0-7.534 0l-.556 1.832a10.286 10.286 0 0 0-.287 4.766 4.483 4.483 0 0 0 2.309 3.125l-.623 13.93a2.745 2.745 0 0 0 .693 2.133 3.027 3.027 0 0 0 4.469 0 2.708 2.708 0 0 0 .693-2.075l-.627-13.99a4.482 4.482 0 0 0 2.306-3.123c.28-1.589.181-3.222-.287-4.766zm-1.42 4.465a2.748 2.748 0 0 1-1.799 2.07.867.867 0 0 0-.56.85l.658 14.63c.03.288-.064.574-.26.786a1.339 1.339 0 0 1-1.884 0 1.04 1.04 0 0 1-.255-.843l.654-14.573a.867.867 0 0 0-.561-.85 2.748 2.748 0 0 1-1.798-2.07 8.547 8.547 0 0 1 .238-3.957l.556-1.833a2.247 2.247 0 0 1 4.216 0l.556 1.833a8.558 8.558 0 0 1 .238 3.957z" fill-rule="nonzero"></path><path d="M23.4 13a.867.867 0 0 0-.867.867v7.44l-2.346 2.347a.867.867 0 0 0-.254.656l.759 15.167c.018.327-.101.647-.328.883a1.22 1.22 0 0 1-1.726.007l-.007-.007a1.18 1.18 0 0 1-.328-.883l.764-15.167a.867.867 0 0 0-.253-.656l-2.347-2.346v-7.441a.867.867 0 0 0-1.734 0v7.8c0 .23.092.45.254.612l2.328 2.33-.74 14.784a2.928 2.928 0 1 0 5.85 0l-.74-14.785 2.328-2.328a.867.867 0 0 0 .254-.613v-7.8A.867.867 0 0 0 23.4 13z"></path><path d="M18.2 13a.867.867 0 0 0-.867.867V20.8a.867.867 0 0 0 1.734 0v-6.933A.867.867 0 0 0 18.2 13zM20.8 13a.867.867 0 0 0-.867.867V20.8a.867.867 0 0 0 1.734 0v-6.933A.867.867 0 0 0 20.8 13z"></path><path d="M26 0C11.64 0 0 11.64 0 26s11.64 26 26 26 26-11.64 26-26C51.984 11.647 40.353.016 26 0zm0 50.267C12.598 50.267 1.733 39.402 1.733 26S12.598 1.733 26 1.733 50.267 12.598 50.267 26C50.25 39.396 39.396 50.251 26 50.267z" fill-rule="nonzero"></path><path d="M28.813 42.269a.867.867 0 0 0-.98-.775h.003a15.92 15.92 0 0 1-3.672 0 .867.867 0 1 0-.202 1.721c1.353.158 2.72.158 4.073 0a.867.867 0 0 0 .778-.946zM39.26 14.832a.867.867 0 0 0-1.22-.107l-.005.003a.867.867 0 0 0-.104 1.221c5.226 6.203 4.826 15.376-.92 21.101a.867.867 0 0 0 1.225 1.228c6.384-6.36 6.83-16.553 1.024-23.446zM20.192 11.456h-.004.004zM30.088 9.151a17.487 17.487 0 0 0-10.201.627.867.867 0 0 0 .607 1.621 15.744 15.744 0 0 1 9.187-.563.867.867 0 1 0 .407-1.685zM14.95 37.007A15.5 15.5 0 0 1 10.4 26a15.485 15.485 0 0 1 2.982-9.176.867.867 0 1 0-1.4-1.021 17.333 17.333 0 0 0 1.74 22.43.868.868 0 0 0 1.227-1.226z"></path></g>
		</symbol>
	
		<symbol id="category-icon-8" viewBox="0 0 52 52">
			<title>cash-machine</title><g fill-rule="evenodd"><path d="M26.697 34.448h1.723a.86.86 0 1 0 0-1.722h-1.723a.86.86 0 1 0 0 1.722zM27.558 46.505c0-.95-.772-1.723-1.722-1.723s-1.722.773-1.722 1.723c0 .95.772 1.722 1.722 1.722s1.722-.772 1.722-1.722z"></path><path d="M50.81 39.615H30.143a.86.86 0 0 0-.861.861v.862h-6.89v-.862a.86.86 0 0 0-.86-.86H4.305a.86.86 0 1 0 0 1.722h16.363c0 .95.772 1.722 1.722 1.722h6.89c.95 0 1.722-.773 1.722-1.722H49.95v6.028a2.587 2.587 0 0 1-2.584 2.583H4.306a2.587 2.587 0 0 1-2.584-2.583V16.363c0-1.57 1.015-2.584 2.584-2.584h3.445a.86.86 0 1 0 0-1.722H4.306C1.771 12.057 0 13.827 0 16.363v31.003a4.31 4.31 0 0 0 4.306 4.306h43.06a4.31 4.31 0 0 0 4.306-4.306v-6.89a.86.86 0 0 0-.861-.86zM43.921 29.28H42.2a.86.86 0 1 0 0 1.723h1.722a.86.86 0 1 0 0-1.722zM43.921 25.836H42.2a.86.86 0 1 0 0 1.722h1.722a.86.86 0 1 0 0-1.722z"></path><path d="M43.921 32.726H42.2a.86.86 0 1 0 0 1.722h1.722a.86.86 0 1 0 0-1.722zM11.196 27.558h3.444a.86.86 0 1 0 0-1.722h-3.444a.86.86 0 1 0 0 1.722z"></path><path d="M18.085 22.391H7.751a.86.86 0 0 0-.861.861v9.474h-.862a.86.86 0 1 0 0 1.722h13.78a.86.86 0 1 0 0-1.722h-.862v-9.474a.861.861 0 0 0-.86-.86zm-.861 10.335H8.612v-8.612h8.612v8.612z" fill-rule="nonzero"></path><path d="M6.028 10.334h4.306v6.029a.86.86 0 1 0 1.723 0v-6.89a.86.86 0 0 0-.861-.86H6.89v-6.89h12.056v6.89H14.64a.86.86 0 0 0-.86.86v6.89a.86.86 0 1 0 1.722 0v-6.029h4.306a.86.86 0 0 0 .86-.86V.86a.86.86 0 0 0-.86-.861H6.028a.86.86 0 0 0-.86.861v8.612a.86.86 0 0 0 .86.861zM11.196 31.003h3.444a.86.86 0 1 0 0-1.722h-3.444a.86.86 0 1 0 0 1.722z"></path><path d="M8.612 4.306v1.722a.86.86 0 1 0 1.722 0V4.306a.86.86 0 1 0-1.722 0zM33.587 32.726h-1.723a.86.86 0 1 0 0 1.722h1.723a.86.86 0 1 0 0-1.722zM33.587 25.836h-1.723a.86.86 0 1 0 0 1.722h1.723a.86.86 0 1 0 0-1.722zM47.366 12.057h-.861V9.473a.86.86 0 0 0-.861-.86h-20.67a.86.86 0 0 0-.86.86v2.584h-6.029a.86.86 0 1 0 0 1.722h6.89a.86.86 0 0 0 .861-.861v-2.584h18.946v2.584a.86.86 0 0 0 .862.861h1.722c1.594 0 2.584.99 2.584 2.584v20.669a.86.86 0 1 0 1.722 0v-20.67c0-2.575-1.731-4.305-4.306-4.305zM26.697 31.003h1.723a.86.86 0 1 0 0-1.722h-1.723a.86.86 0 1 0 0 1.722zM33.587 29.28h-1.723a.86.86 0 1 0 0 1.723h1.723a.86.86 0 1 0 0-1.722zM25.836 26.697a.86.86 0 0 0 .861.861h1.723a.86.86 0 1 0 0-1.722h-1.723a.86.86 0 0 0-.861.861z"></path><path d="M38.754 29.28h-1.722a.86.86 0 1 0 0 1.723h1.722a.86.86 0 1 0 0-1.722zM38.754 25.836h-1.722a.86.86 0 1 0 0 1.722h1.722a.86.86 0 1 0 0-1.722z"></path><path d="M42.199 12.057h-13.78a.86.86 0 0 0-.86.861v6.89a.86.86 0 0 0 .86.86H42.2a.86.86 0 0 0 .86-.86v-6.89a.86.86 0 0 0-.86-.861zm-.861 6.89H29.28v-5.168h12.057v5.167z" fill-rule="nonzero"></path><path d="M38.754 32.726h-1.722a.86.86 0 1 0 0 1.722h1.722a.86.86 0 1 0 0-1.722z"></path></g>
		</symbol>
	
		<symbol id="category-icon-9" viewBox="0 0 56 50">
			<title>recycle</title><g fill-rule="nonzero"><path d="M44.626 10.83c-.24-.299-.659-.418-1.078-.239l-1.557.6-4.79-10.6c-.18-.359-.48-.539-.839-.539H20.793c-.299 0-.539.12-.718.36L11.272 10.95c-.18.18-.24.479-.18.718.06.24.18.48.36.659l8.802 6.527c.42.3 1.018.24 1.318-.18l5.748-7.784 2.755 4.91-1.737.898c-.359.18-.539.539-.479.898.06.36.3.719.719.779l9.82 2.395h.24c.3 0 .599-.18.778-.42l5.27-8.442c.24-.36.18-.779-.06-1.078zM20.614 16.76l-7.246-5.39 7.904-9.46h1.258l3.892 7.245-5.808 7.605zm17.485 2.096l-6.647-1.617.36-.18c.239-.12.419-.299.478-.539.06-.24.06-.479-.06-.718l-3.952-7.066-3.712-6.886h11.138l4.91 10.898c.18.36.599.599.958.539l-3.473 5.569zM23.907 35.022l-9.7-.419 2.515-5.03 1.676.958c.36.18.779.18 1.078-.12a.83.83 0 0 0 .24-1.017l-3.533-9.461c-.12-.36-.48-.6-.899-.6l-10 .36c-.419 0-.718.3-.838.659-.12.36.06.778.36 1.018l1.377.958-6.048 9.94c-.18.3-.18.719 0 1.018l6.706 9.88 2.575 3.892c.18.24.48.42.779.42h13.652c.54 0 .958-.42.958-.959V35.981c0-.48-.419-.899-.898-.959zM8.278 41.97l-6.227-9.222 6.287-10.18c.24-.359.18-.778-.12-1.077l6.528-.3 2.395 6.467-.36-.18c-.24-.12-.479-.18-.718-.06-.24.06-.42.24-.539.48l-3.593 7.185-3.653 6.887zM22.89 45.62H10.674l-1.198-1.856 3.832-7.305 9.581.419v8.742zM55.644 31.909l-5.988-12.336c-.12-.24-.3-.419-.54-.479-.239-.06-.478-.06-.718.12l-9.58 5.33c-.42.239-.6.838-.36 1.257l4.67 8.443-5.628.48-.06-1.917c0-.42-.3-.719-.659-.838a.943.943 0 0 0-1.018.299l-6.227 7.964c-.24.3-.24.778-.06 1.078l5.569 8.263c.18.24.479.42.778.42.06 0 .18 0 .24-.06.36-.12.659-.48.659-.839l.06-1.676h11.616c.36 0 .719-.24.839-.54l6.407-14.19a.888.888 0 0 0 0-.78zM47.919 45.62H36.003c-.42 0-.778.3-.898.659l-3.653-5.45 4.252-5.448v.419c0 .24.12.479.299.659.18.18.42.24.719.24l8.024-.72 7.784-.538-4.61 10.18zm5.39-12.155l-8.204.598-4.611-8.383 7.904-4.431 5.45 11.078-.54 1.138z"></path></g>
		</symbol>
	
		<symbol id="checkbox-arrow" viewBox="0 0 11 7">
			<title>check</title><path d="M10.79.978l-.964-.8a.73.73 0 0 0-.482-.164.73.73 0 0 0-.482.165L4.21 4.04 2.127 2.306a.73.73 0 0 0-.482-.164.73.73 0 0 0-.482.164l-.965.8a.502.502 0 0 0 0 .8l2.567 2.127.964.8a.73.73 0 0 0 .482.164c.189 0 .35-.055.482-.165l.964-.799 5.133-4.256a.502.502 0 0 0 0-.8z" fill-rule="nonzero"></path>
		</symbol>
	
		<symbol id="compare-empty" viewBox="0 0 17 16">
			<title>compare-empty</title><g fill-rule="nonzero" stroke="#C81C1C"><path d="M3.5 14.5h-2v-6h2v6zM9.5 1.5v13h-2v-13h2zM13.5 6.5h2v8h-2v-8z"></path></g>
		</symbol>
	
		<symbol id="compare-icon" viewBox="0 0 15 14">
			<title>compare-icon</title><g fill-rule="nonzero"><path d="M3 14H0V7h3v7zM6 0h3v14H6zM12 5h3v9h-3z"></path></g>
		</symbol>
	
		<symbol id="delivery" viewBox="0 0 26 19">
			<title>delivery</title><path d="M22.42 4.768h-3.54V.031H2.36A2.372 2.372 0 0 0 0 2.4v13.026h2.36a3.54 3.54 0 1 0 7.079 0h7.079a3.54 3.54 0 1 0 7.079 0h2.361V9.504L22.42 4.768zM5.898 17.203c-.979 0-1.77-.795-1.77-1.777a1.77 1.77 0 1 1 3.54 0c0 .981-.79 1.777-1.77 1.777zm15.93-10.659l2.312 2.96h-5.263v-2.96h2.95zm-1.77 10.659c-.98 0-1.77-.795-1.77-1.777a1.77 1.77 0 1 1 3.54 0c0 .981-.791 1.777-1.77 1.777z" fill-rule="nonzero"></path>
		</symbol>
	
		<symbol id="done_icon" viewBox="0 0 75 58">
			<title>done</title><path d="M23.49 45.59L8.182 30.236a4.323 4.323 0 0 0-6.122 0 4.349 4.349 0 0 0 0 6.141L23.49 57.871 72.905 8.306a4.349 4.349 0 0 0 0-6.141 4.323 4.323 0 0 0-6.123 0L23.49 45.589z" fill-rule="nonzero"></path>
		</symbol>
	
		<symbol id="exit-icon" viewBox="0 0 58 44">
			<title>download</title><g transform="rotate(-90 22 22)" fill-rule="evenodd"><path d="M12.905 27.707a.978.978 0 1 0-1.384 1.384l9.765 9.765c.182.185.431.288.691.288.007 0 .014-.004.02-.004.008 0 .014.004.021.004.326 0 .6-.17.778-.414l9.68-9.68a.978.978 0 1 0-1.384-1.383l-8.095 8.095V.979a.978.978 0 1 0-1.957 0v34.865l-8.135-8.137z"></path><path d="M28.869 15.658a.978.978 0 1 0 0 1.957H41.59V55.78H2.446V17.615h12.722a.978.978 0 1 0 0-1.957H.49v42.08h43.059v-42.08h-14.68z"></path></g>
		</symbol>
	
		<symbol id="file-icon" viewBox="0 0 30 38">
			<defs><path id="200a" d="M23.34 0L30 6.66v31.08H0V0zM2.9 34.84h24.2V9.68h-6.78V2.9H2.9zM23.23 6.77H26L23.23 4z"></path></defs><use xlink:href="#200a"></use>
		</symbol>
	
		<symbol id="grid-three-up" viewBox="0 0 14 14">
			<title>grid 3</title><path d="M0 0v3.5h3.5V0H0zm5.25 0v3.5h3.5V0h-3.5zm5.25 0v3.5H14V0h-3.5zM0 5.25v3.5h3.5v-3.5H0zm5.25 0v3.5h3.5v-3.5h-3.5zm5.25 0v3.5H14v-3.5h-3.5zM0 10.5V14h3.5v-3.5H0zm5.25 0V14h3.5v-3.5h-3.5zm5.25 0V14H14v-3.5h-3.5z" fill-rule="nonzero"></path>
		</symbol>
	
		<symbol id="heart-empty" viewBox="0 0 19 17">
			<title>heart-empty</title><path d="M2.352 2.36A4.57 4.57 0 0 1 5.614 1c1.232 0 2.396.485 3.27 1.365l.285.287a.47.47 0 0 0 .67 0l.277-.28a4.576 4.576 0 0 1 3.27-1.364 4.57 4.57 0 0 1 3.262 1.36A4.632 4.632 0 0 1 18 5.658c0 1.24-.481 2.407-1.356 3.287L9.72 15.916a.318.318 0 0 1-.432 0l-6.932-6.98A4.635 4.635 0 0 1 1 5.65c0-1.24.481-2.408 1.352-3.288z" stroke="#C81C1C" fill-rule="nonzero"></path>
		</symbol>
	
		<symbol id="heart-icon" viewBox="0 0 17 15">
			<title>heart-icon</title><path d="M1.319 1.319A4.473 4.473 0 0 1 4.5 0c1.202 0 2.337.47 3.19 1.322l.277.278a.46.46 0 0 0 .654 0l.27-.27a4.479 4.479 0 0 1 3.19-1.322c1.202 0 2.333.47 3.182 1.318a4.473 4.473 0 0 1 1.319 3.186c0 1.202-.47 2.333-1.323 3.186l-6.754 6.755a.312.312 0 0 1-.421 0L1.322 7.69A4.476 4.476 0 0 1 0 4.504C0 3.302.47 2.171 1.319 1.32z" fill-rule="nonzero"></path>
		</symbol>
	
		<symbol id="list" viewBox="0 0 16 14">
			<title>list</title><path d="M1 0C.44 0 0 .44 0 1s.44 1 1 1 1-.44 1-1-.44-1-1-1zm3 0v2h12V0H4zM1 4c-.56 0-1 .44-1 1s.44 1 1 1 1-.44 1-1-.44-1-1-1zm3 0v2h12V4H4zM1 8c-.56 0-1 .44-1 1s.44 1 1 1 1-.44 1-1-.44-1-1-1zm3 0v2h12V8H4zm-3 4c-.56 0-1 .44-1 1s.44 1 1 1 1-.44 1-1-.44-1-1-1zm3 0v2h12v-2H4z" fill-rule="nonzero"></path>
		</symbol>
	
		<symbol id="location-pin" viewBox="0 0 6 8">
			<defs><path id="250a" d="M6 3c0 2-3 5-3 5S0 5 0 3a3 3 0 1 1 6 0zM1 3a2 2 0 1 0 4 0 2 2 0 0 0-4 0z"></path></defs><use xlink:href="#250a"></use>
		</symbol>
	
		<symbol id="logo" viewBox="0 0 208 84">
			<title>Logo_white</title><g transform="translate(0 .08)" fill-rule="evenodd"><path d="M207.261 26.035H87.12a.59.59 0 0 1-.589-.592.59.59 0 0 1 .589-.592H207.26a.59.59 0 0 1 .59.592.59.59 0 0 1-.59.592M207.261 74.64H87.12a.59.59 0 0 1-.589-.592.59.59 0 0 1 .589-.591H207.26a.59.59 0 0 1 .59.591.59.59 0 0 1-.59.592M109.607 20.852L46.827.76c-.01-.004-.021-.004-.031-.007a.62.62 0 0 0-.176-.019.568.568 0 0 0-.275.085l-.028.015L.257 32.287A.594.594 0 0 0 .59 33.37c.114 0 .23-.034.33-.103L46.744 1.975 109.25 21.98a.585.585 0 0 0 .74-.385.592.592 0 0 0-.383-.743"></path><path d="M19.281 30.844l1.327-.632-.007 1.832-1.32.543v-1.743zm-7.134 3.1l.771-.447v1.416l-.77.31v-1.278zM27.284 20.96l.025 5.883-.59.191a.592.592 0 0 0 .362 1.127l.233-.076.145 35.222a.59.59 0 0 0 .589.59h.002a.59.59 0 0 0 .587-.595l-.147-35.598 3.03-.982a33.166 33.166 0 0 0-.366 3.314c-.249 3.921.051 7.751.19 9.204l-.665.049a.59.59 0 0 0 .085 1.18l14.973-1.09-.43 29.602-39.308-8.884-.012-17.03 18.55-1.609a.591.591 0 0 0-.1-1.179l-5.156.447v-6.858l1.314-.542-.024 5.903a.59.59 0 0 0 .586.594h.003a.59.59 0 0 0 .588-.589l.027-6.393.51-.21a.593.593 0 0 0 .321-.772.588.588 0 0 0-.768-.323l-.058.023.008-1.909.936-.445a.593.593 0 0 0 .28-.788.588.588 0 0 0-.785-.282l-3.779 1.8c-.011.006-.021.014-.033.02l-.056.034c-.015.011-.029.024-.043.036-.015.013-.029.025-.042.04-.013.013-.025.029-.037.044l-.033.045c-.01.016-.018.033-.027.05-.008.017-.017.034-.024.052-.007.018-.012.037-.017.055l-.014.055c-.004.022-.005.044-.007.066 0 .013-.003.025-.003.038v10.358l-6.001.52a.592.592 0 0 0 .044-.224V36.5l.771-.31v4.153a.59.59 0 0 0 .59.592.59.59 0 0 0 .588-.592v-4.628l.778-.313a.593.593 0 0 0 .328-.77.588.588 0 0 0-.766-.329l-.34.137v-1.625l.853-.494a.594.594 0 0 0 .216-.809.587.587 0 0 0-.804-.217l-3.097 1.796-.016.012a.553.553 0 0 0-.051.037c-.015.011-.029.022-.042.035-.014.013-.026.027-.039.042l-.036.044c-.011.015-.02.032-.03.049-.009.016-.019.032-.026.049-.008.017-.014.036-.02.054-.007.018-.013.036-.017.054l-.01.054a.606.606 0 0 0-.006.064l-.002.019v7.52c0 .116.035.223.092.315l-5.075.44-.004-7.069 21.302-13.85zm20.89 2.548l-.123 14.805-1.12-.088.216-14.85 1.028.133zm9.997-5.051c.81-.155 1.832.193 2.802.956 1.25.983 2.615 2.848 3.16 5.382l-.703-.084a.591.591 0 1 0-.14 1.175l1.032.124c.016.158.03.318.038.48l.076 13.114-9.908-.78V27.359c0-.013-.003-.026-.004-.039a.56.56 0 0 0-.155-.363.626.626 0 0 0-.084-.075.576.576 0 0 0-.266-.107c-.012-.002-.024-.006-.037-.007l-4.654-.34.023-2.768 6.148.798a.59.59 0 0 0 .66-.511.591.591 0 0 0-.51-.663l-1.047-.136c.402-2.555 1.757-4.345 3.569-4.692zm9.253 7.926a.59.59 0 0 0-.107.338v13.11l-1.703-.134-.076-13.23-.002-.015v-.014a11.72 11.72 0 0 0-.019-.284l1.907.229zm3.931-3.837c.48-.075 1.087.15 1.667.617.836.674 1.474 1.718 1.828 2.943l-1.471-.116a.59.59 0 1 0-.092 1.18l1.81.143c.021.17.04.341.05.515v12.62l-6.652-.524V26.72a.59.59 0 0 0-.042-.215l1.264.152a.59.59 0 0 0 .655-.517.591.591 0 0 0-.515-.658l-1.06-.128c.31-1.291 1.172-2.59 2.558-2.809zm-22.037 5.068l4.032.296v10.82l-4.122-.324.09-10.792zm-1.73 35.841l-.116 5.77a.59.59 0 0 0 .589.604c.009 0 .017-.002.026-.003l5.997 2 .006.416a.588.588 0 0 0 0 .195c0 .005.002.009.003.013l.14 9.828-7.907-2.402.242-16.665 1.02.244zm6.398 1.535l.014.924-5.3.801.06-2.979 5.226 1.254zm13.159.135l7.445 2.048.023.004a.552.552 0 0 0 .133.017.581.581 0 0 0 .108-.011l.035-.009a.598.598 0 0 0 .163-.069l.033-.021a.593.593 0 0 0 .06-.05c.006-.005.014-.01.02-.018a.587.587 0 0 0 .067-.082l.009-.015a.579.579 0 0 0 .042-.077l.014-.04c.005-.014.012-.028.016-.044l.003-.017a.577.577 0 0 0 .01-.061c.003-.02.006-.04.006-.06l.002-.018v-5.363l2.86.68v5.59l-4.74 1.054-3.9-1.228a.592.592 0 0 0-.352 1.13l3.36 1.057.031 6.596a.586.586 0 0 0-.601-.199l-8.18 2.129-.001-.602a.586.586 0 0 0 .117-.016l7.725-1.95a.592.592 0 0 0-.287-1.149l-7.557 1.908-.002-.743a.593.593 0 0 0 .11-.014l6.822-1.581a.592.592 0 0 0-.264-1.154l-6.67 1.546-.006-3.493-.002-.02a.611.611 0 0 0-.005-.055c-.001-.01 0-.018-.002-.028l-.002-.007-.007-.027a.581.581 0 0 0-.015-.05l-.011-.036-.011-.023a.534.534 0 0 0-.024-.045c-.006-.011-.012-.024-.02-.035-.003-.006-.008-.012-.013-.018l-.032-.04c-.009-.01-.016-.02-.026-.03l-.016-.014c-.012-.012-.026-.023-.04-.034l-.03-.025-.02-.012c-.014-.009-.029-.016-.043-.024l-.036-.019-.027-.01-.018-.007-4.614-1.565a.593.593 0 0 0-.377 1.121l2.438.827-4.308.773-.003-.001-1.285-.429-.058-4.036 11.953-1.806zm7.011-19.555v14.173l-4.603-1.095a.592.592 0 0 0-.271 1.152l4.874 1.159v4.867l-6.387-1.757V45.234l6.387.335zm4.037 31.161l-4.415.921-.037-7.836a.59.59 0 0 0 .313-.174l4.14-.92v8.009zm-22.917-3.905l7.347-1.318.015 8.829-7.23 1.709-.132-9.22zm-6.6-4.938a.572.572 0 0 0 .177.001l5.164-.78.05 3.464-5.408-1.803.018-.882zm-3.523 11.632L6.003 67.625 6 61.309l39.29 8.88-.136 9.33zm-.362-41.287l.125-14.472 1.052-.33-.214 14.76-.967.07.004-.028zm1.196-16.046l-1.515.473a.589.589 0 0 0-.136-.019h-.005a.584.584 0 0 0-.437.199l-2.202.687a6.837 6.837 0 0 0-.078-.92c-.186-1.199-.7-2.144-1.488-2.734-1.722-1.289-4.081-.443-4.763-.153-1.689.718-2.887 2.621-3.584 5.674l-3.294 1.068-.026-6.266L46.183 8.671l-.196 13.515zM32.519 39.154c-.134-1.397-.435-5.176-.19-9.043.095-1.5.262-2.833.496-3.992a.593.593 0 0 0 .065-.31c.596-2.723 1.587-4.428 2.932-5 .536-.228 2.38-.9 3.6.013 1.05.785 1.12 2.342 1.09 3.073l-.552.172a.592.592 0 0 0 .35 1.13l.916-.285.006-.002 2.503-.782-.122 14.094c0 .042.004.083.012.123l-11.106.809zm73.525-17.331L46.938 3.248l-.028-.006a.607.607 0 0 0-.23-.014.578.578 0 0 0-.218.078c-.01.006-.02.01-.028.016L5.18 31.256a.587.587 0 0 0-.22.148L3.447 32.43a.594.594 0 0 0 .33 1.083.584.584 0 0 0 .328-.101l.699-.473.006 9.04-1.283.112a.591.591 0 0 0 .101 1.18l1.183-.103.016 24.897.002.021a.589.589 0 0 0 .391.534c.009.003.016.008.025.01l48.827 14.834a.585.585 0 0 0 .17.026c.023 0 .044-.003.066-.005.021.002.042.005.063.005.045 0 .09-.005.135-.016l8.857-2.094c.014-.003.026-.01.04-.013.022-.007.044-.014.065-.023.016-.007.031-.017.047-.026.018-.01.035-.019.051-.03.016-.011.03-.025.045-.037.014-.012.029-.024.041-.037.013-.014.024-.03.036-.044l.035-.046c.01-.015.017-.032.025-.048.01-.018.02-.035.027-.053.007-.018.011-.037.017-.056.005-.018.011-.035.014-.054.005-.022.006-.045.007-.068.001-.014.004-.027.004-.042l-.002-1.534 8.473-2.205a.584.584 0 0 0 .31-.203l.007 1.517v.002c0 .031.005.06.01.09 0 .01 0 .019.002.028l.006.02c.008.03.016.059.027.086.005.012.011.022.017.033.01.022.021.044.034.064l.024.031a.588.588 0 0 0 .043.053l.03.029a.558.558 0 0 0 .25.135l.035.01a.566.566 0 0 0 .11.01h.004a.58.58 0 0 0 .093-.01c.008 0 .016 0 .024-.002h.002l5.585-1.165a.593.593 0 0 0 .114-.036l.04-.023c.02-.01.041-.02.06-.033.016-.01.03-.024.044-.036.014-.012.03-.023.043-.037.012-.013.023-.027.034-.042.013-.015.026-.03.037-.046.01-.014.016-.03.024-.045.01-.018.022-.036.03-.056.008-.019.012-.04.018-.06.005-.016.012-.032.015-.05a.58.58 0 0 0 .012-.118V61.45c0-.015-.003-.03-.004-.044-.002-.022-.003-.044-.007-.066-.003-.019-.01-.036-.015-.055-.005-.018-.01-.036-.017-.054-.007-.02-.017-.036-.026-.054-.008-.016-.016-.032-.026-.047-.01-.017-.023-.032-.035-.047-.011-.015-.022-.03-.035-.043-.013-.013-.028-.025-.042-.037-.014-.013-.028-.026-.044-.037-.016-.012-.034-.02-.051-.03-.016-.01-.031-.019-.048-.026-.02-.01-.043-.016-.065-.023-.013-.004-.025-.01-.038-.013l-3.584-.852V45.007c0-.015-.003-.029-.004-.044l-.006-.06c-.004-.02-.01-.037-.015-.056-.005-.019-.01-.037-.017-.055-.007-.018-.016-.035-.024-.053-.009-.016-.017-.033-.027-.049-.01-.016-.022-.03-.034-.046-.012-.015-.023-.03-.035-.043-.013-.014-.028-.026-.042-.038-.014-.013-.028-.025-.044-.036-.015-.011-.031-.02-.048-.03-.016-.01-.032-.02-.05-.028l-.054-.02-.055-.017-.06-.009c-.014-.002-.028-.006-.043-.007l-20.806-1.09a.589.589 0 0 0-.619.56.59.59 0 0 0 .558.622l12.682.665V64.01l-2.312.349.095-16.766c0-.016-.004-.032-.005-.048-.002-.02-.002-.04-.006-.06-.003-.02-.009-.038-.014-.056-.006-.019-.01-.038-.017-.056-.007-.018-.017-.034-.025-.051-.009-.017-.017-.034-.027-.05-.01-.017-.022-.031-.034-.046-.012-.015-.022-.03-.035-.044l-.042-.038c-.015-.012-.028-.025-.044-.036-.015-.011-.032-.02-.048-.03-.017-.009-.033-.019-.05-.027-.018-.008-.037-.013-.055-.02-.018-.006-.036-.013-.054-.017l-.06-.009c-.016-.002-.032-.006-.048-.007l-9.216-.404a.593.593 0 0 0-.051 1.182l2.846.125-.081 16.442a.59.59 0 0 0 .586.595h.003a.59.59 0 0 0 .589-.59l.08-16.395 4.627.203-.092 16.381-7.926 1.198-.018-1.225c0-.013-.003-.025-.004-.039-.002-.022-.003-.043-.007-.065-.004-.018-.01-.035-.015-.053-.005-.019-.01-.037-.018-.055-.007-.019-.016-.036-.025-.053l-.027-.048c-.01-.016-.022-.03-.034-.045-.012-.015-.023-.03-.036-.044l-.04-.037c-.016-.012-.03-.025-.046-.036-.016-.012-.033-.02-.05-.03-.016-.01-.031-.019-.048-.026-.02-.01-.042-.016-.064-.022-.013-.005-.024-.01-.038-.014l-5.92-1.42.382-18.891a.59.59 0 0 0-.576-.604.591.591 0 0 0-.601.58l-.377 18.634-1.027-.246.328-22.587 33.323 2.624a.59.59 0 0 0 .633-.544.59.59 0 0 0-.54-.635l-4.005-.316V27.804l-.002-.019v-.018a9.085 9.085 0 0 0-.03-.36l1.636.128a.59.59 0 0 0 .633-.544.59.59 0 0 0-.54-.636l-1.931-.152c-.39-1.639-1.212-3.061-2.332-3.964-.85-.686-1.769-.992-2.587-.863-1.477.234-3.081 1.506-3.555 3.837l-2.255-.271c-.549-3.044-2.177-5.294-3.663-6.462-1.256-.988-2.588-1.41-3.749-1.187-2.324.445-4.041 2.623-4.516 5.703l-6.27-.814.201-13.825 50.221 14.6a.588.588 0 0 0 .73-.405.592.592 0 0 0-.402-.733L46.95 7.004l-.017-.003c-.007-.002-.014-.005-.022-.006-.014-.003-.028-.003-.042-.005-.018-.003-.036-.006-.054-.007l-.019-.002-.022.002-.017.001c-.019.001-.038.002-.056.005-.007 0-.014 0-.02.002-.015.003-.03.008-.044.012-.016.004-.032.008-.047.014l-.018.005c-.017.006-.032.015-.048.023l-.034.018-.036.021L5.981 33.4v-1.258l40.876-27.68 58.835 18.49a.59.59 0 0 0 .738-.388.592.592 0 0 0-.386-.741z"></path><path d="M36.32 51.177h-2.568v-3.76l2.629-.17-.06 3.93zm-.168 10.866l-2.4-.405V52.36h2.55l-.15 9.682zm-3.57.17c.002.018.003.036.007.054.004.019.01.037.017.055.006.019.011.037.019.055.007.016.016.03.025.046.01.018.018.036.03.053.01.014.022.027.034.041.013.015.025.031.039.045.013.013.028.023.042.035.015.012.03.025.046.036.014.01.03.017.046.025.019.01.036.02.056.029.015.006.031.01.047.014.022.007.043.014.066.018l.01.003 5.662.955a.59.59 0 0 0 .678-.486.591.591 0 0 0-.483-.681l-1.596-.27.153-9.88h1.22a.59.59 0 0 0 .589-.59.59.59 0 0 0-.59-.593h-1.2l.06-4.005 1.713-.11a.591.591 0 0 0-.075-1.182l-6.072.39c-.014.002-.026.006-.04.007l-.059.01a.606.606 0 0 0-.055.018c-.018.006-.036.012-.054.02a.542.542 0 0 0-.098.058.609.609 0 0 0-.084.075c-.013.013-.024.028-.036.043a.615.615 0 0 0-.084.148c-.007.018-.012.037-.017.056a.584.584 0 0 0-.02.117c0 .013-.004.026-.004.04v15.276l.001.01c0 .023.004.044.007.066zM20.198 51.512h-1.402v-3.283l1.402-.087v3.37zm0 7.783l-1.402-.249v-6.35h1.402v6.6zm2.647-12.503l-4.189.26a.579.579 0 0 0-.206.053.59.59 0 0 0-.832.538v11.9l.001.007c0 .024.004.047.007.07l.006.048c.005.02.012.039.018.058.006.018.01.036.018.052.007.017.017.032.026.048.01.018.017.036.028.052.011.015.024.029.036.043.012.015.023.03.037.043.014.014.03.025.045.038.014.011.027.024.043.034.015.01.031.017.048.026.018.01.035.02.054.028.015.006.031.01.047.015.021.007.043.014.065.018l.008.002 4.319.768a.587.587 0 0 0 .682-.48.592.592 0 0 0-.477-.686l-1.253-.223v-6.809h.24a.59.59 0 0 0 .59-.591.59.59 0 0 0-.59-.592h-.24v-3.443l1.542-.096a.59.59 0 0 0 .551-.627.587.587 0 0 0-.624-.554zM12.918 50.81h-1.2v-2.258l1.2-.088v2.345zm0 7.428l-1.2-.187v-6.058h1.2v6.245zm1.827.283l-.649-.1v-6.428h.231a.59.59 0 0 0 .59-.592.59.59 0 0 0-.59-.592h-.231v-2.432l.602-.045a.59.59 0 0 0 .544-.633.588.588 0 0 0-.63-.547l-3.526.26c-.013.001-.024.005-.037.007a.567.567 0 0 0-.169.049.605.605 0 0 0-.33.436.565.565 0 0 0-.006.06c0 .013-.004.025-.004.038V58.56l.002.014c0 .022.003.043.006.064.003.018.004.036.008.053.004.02.011.038.018.057.006.018.01.036.018.053.008.017.018.033.027.049.01.017.018.034.03.05.01.015.023.029.034.043.013.014.025.03.039.043.013.013.028.024.043.036.015.011.03.024.045.034.015.01.032.018.048.026.018.01.036.02.055.027l.05.016c.02.006.041.012.063.016l.013.004 3.526.547a.59.59 0 0 0 .672-.495.591.591 0 0 0-.492-.675zM29.013 24.976a.59.59 0 0 0 .589.592.59.59 0 0 0 .589-.592v-3.658l1.863-1.21a.593.593 0 0 0 .175-.818.587.587 0 0 0-.814-.176L29.282 20.5l-.004.004c-.021.014-.04.031-.06.048-.01.009-.022.016-.03.026-.016.014-.028.031-.04.048-.012.013-.024.026-.034.04-.01.016-.018.034-.027.05-.01.017-.02.032-.027.05-.007.016-.01.033-.016.05-.006.02-.014.039-.018.059-.003.013-.003.027-.005.04-.003.026-.007.051-.007.077v3.985zM42.22 21.345a.59.59 0 0 0 .588.585h.006a.59.59 0 0 0 .583-.598l-.078-7.475 1.164-.636a.593.593 0 0 0 .237-.803.587.587 0 0 0-.799-.237l-1.476.806c-.009.004-.016.011-.024.016a.588.588 0 0 0-.281.48l-.003.03.082 7.832zM52.076 21.23a.59.59 0 0 0 .607-.573l.226-7.405c0-.015-.002-.028-.003-.043 0-.022-.001-.044-.004-.065-.003-.019-.009-.037-.013-.055l-.016-.056c-.006-.019-.015-.036-.024-.053-.008-.017-.015-.034-.024-.05-.01-.016-.022-.031-.033-.046-.011-.016-.022-.031-.035-.045-.012-.014-.026-.026-.04-.039l-.043-.038c-.016-.012-.033-.022-.05-.032-.015-.01-.03-.02-.047-.028-.02-.01-.042-.017-.063-.024-.013-.005-.025-.011-.038-.015l-2.307-.634a.592.592 0 0 0-.31 1.142l1.859.51-.213 6.94a.59.59 0 0 0 .57.61M66.501 24.244a.59.59 0 0 0 .59-.592v-6.677l-.002-.009c0-.023-.004-.046-.007-.07-.002-.015-.003-.032-.006-.047-.004-.02-.011-.038-.017-.056-.006-.018-.01-.037-.018-.054-.008-.017-.017-.032-.026-.048-.01-.017-.018-.035-.029-.05-.011-.017-.025-.031-.037-.046-.012-.014-.022-.029-.035-.041-.014-.014-.03-.025-.044-.037-.015-.012-.03-.025-.046-.036-.013-.009-.028-.015-.042-.023-.02-.011-.04-.023-.062-.031l-.008-.004-2.16-.832a.588.588 0 0 0-.76.341.593.593 0 0 0 .34.765l1.78.685v6.27a.59.59 0 0 0 .59.592M79.94 26.15h.002a.59.59 0 0 0 .59-.59l.012-4.78-.001-.012c0-.023-.003-.045-.006-.067-.003-.017-.004-.034-.008-.05-.004-.02-.01-.038-.017-.057-.006-.018-.01-.036-.018-.053l-.026-.049c-.01-.017-.018-.034-.03-.05-.01-.016-.024-.03-.036-.045-.012-.014-.023-.028-.036-.04-.013-.015-.03-.026-.044-.038-.015-.012-.03-.025-.045-.035-.015-.01-.03-.017-.046-.025-.019-.01-.038-.021-.059-.03-.004 0-.007-.003-.011-.005l-1.98-.74a.593.593 0 0 0-.41 1.11l1.594.596-.012 4.366a.59.59 0 0 0 .588.594M91.016 42.466c-.064 1.132-.276 1.623-.659 1.986h3.06v-10.72H91.44l-.425 8.734zm3.484 6.086v-2.007h-4.993v2.007h-2.273v-4.1h.913c.404-.513.531-1.068.574-1.943l.531-10.912h6.544v12.855h1.02v4.1H94.5zM100.364 43.107c0 1.067.467 1.473 1.211 1.473s1.211-.406 1.211-1.473v-8.072c0-1.068-.467-1.473-1.21-1.473-.745 0-1.212.405-1.212 1.473v8.072zm-2.337-7.922c0-2.392 1.253-3.759 3.548-3.759s3.548 1.367 3.548 3.759v7.772c0 2.392-1.253 3.758-3.548 3.758s-3.548-1.366-3.548-3.758v-7.772zM111.688 42.21l1.594-10.613h3.25v14.948h-2.209v-10.72l-1.615 10.72h-2.21l-1.742-10.57v10.57h-2.04V31.597h3.252zM122.779 44.41c.744 0 1.147-.342 1.147-1.41v-2.242c0-1.068-.403-1.41-1.147-1.41h-1.105v5.061h1.105zm-5.12-12.813h4.015v5.616h1.105c2.337 0 3.484 1.303 3.484 3.694v1.943c0 2.392-1.147 3.695-3.484 3.695h-3.442V33.733h-1.679v-2.136zM133.89 31.597h7.225v2.136h-2.444v12.812h-2.337V33.733h-2.443zM144.386 43.107c0 1.067.468 1.473 1.211 1.473.744 0 1.211-.406 1.211-1.473v-8.072c0-1.068-.467-1.473-1.21-1.473-.744 0-1.212.405-1.212 1.473v8.072zm-2.337-7.922c0-2.392 1.254-3.759 3.548-3.759 2.295 0 3.549 1.367 3.549 3.759v7.772c0 2.392-1.254 3.758-3.549 3.758-2.294 0-3.548-1.366-3.548-3.758v-7.772zM153.097 33.733v5.06h1.105c.744 0 1.148-.341 1.148-1.409v-2.242c0-1.068-.404-1.41-1.148-1.41h-1.105zm4.59 1.558v1.943c0 2.392-1.148 3.695-3.485 3.695h-1.105v5.616h-2.337V31.597h3.442c2.337 0 3.485 1.303 3.485 3.694zM158.898 46.545V31.597h6.161v2.136h-3.824v12.812zM168.883 43.107c0 1.067.468 1.473 1.211 1.473.744 0 1.211-.406 1.211-1.473v-8.072c0-1.068-.467-1.473-1.21-1.473-.744 0-1.212.405-1.212 1.473v8.072zm-2.337-7.922c0-2.392 1.254-3.759 3.548-3.759 2.295 0 3.549 1.367 3.549 3.759v7.772c0 2.392-1.254 3.758-3.549 3.758-2.294 0-3.548-1.366-3.548-3.758v-7.772zM177.594 39.818v4.591h1.339c.786 0 1.21-.363 1.21-1.473v-1.303c0-1.388-.445-1.815-1.508-1.815h-1.04zm0-6.085v3.95h.914c.871 0 1.402-.384 1.402-1.58v-.833c0-1.068-.36-1.537-1.19-1.537h-1.126zm4.653 1.302v.534c0 1.537-.467 2.52-1.508 3.01 1.254.492 1.742 1.624 1.742 3.204V43c0 2.306-1.211 3.545-3.548 3.545h-3.676V31.597h3.527c2.422 0 3.463 1.132 3.463 3.438zM186.135 43.107c0 1.067.468 1.473 1.211 1.473.744 0 1.211-.406 1.211-1.473v-8.072c0-1.068-.467-1.473-1.21-1.473-.744 0-1.212.405-1.212 1.473v8.072zm-2.337-7.922c0-2.392 1.254-3.759 3.548-3.759 2.295 0 3.549 1.367 3.549 3.759v7.772c0 2.392-1.254 3.758-3.549 3.758-2.294 0-3.548-1.366-3.548-3.758v-7.772zM192.53 46.545V31.597h6.162v2.136h-3.825v12.812zM194.268 67.234V55.787h2.338v11.447zM194.268 54.802V52.47h2.338v2.333zM202.516 43.107c0 1.067.468 1.473 1.211 1.473.744 0 1.211-.406 1.211-1.473v-8.072c0-1.068-.467-1.473-1.211-1.473-.743 0-1.21.405-1.21 1.473v8.072zm-2.337-7.922c0-2.392 1.254-3.759 3.548-3.759 2.295 0 3.548 1.367 3.548 3.759v7.772c0 2.392-1.253 3.758-3.548 3.758-2.294 0-3.548-1.366-3.548-3.758v-7.772zM90.122 63.893c0 1.054.462 1.455 1.197 1.455.734 0 1.196-.4 1.196-1.455v-7.974c0-1.054-.462-1.455-1.196-1.455-.735 0-1.197.4-1.197 1.455v7.974zm-2.308-7.826c0-2.362 1.238-3.712 3.505-3.712 2.266 0 3.505 1.35 3.505 3.712v7.678c0 2.362-1.239 3.712-3.505 3.712-2.267 0-3.505-1.35-3.505-3.712v-7.678zM102.208 65.156c.735 0 1.175-.338 1.175-1.392v-1.877c0-1.055-.44-1.393-1.175-1.393h-1.343v4.662h1.343zm-3.652 2.11V52.5h6.464v2.11h-4.155v3.775h1.343c2.309 0 3.484 1.287 3.484 3.65v1.581c0 2.363-1.175 3.65-3.484 3.65h-3.652zM111.14 63.893c0 1.054.462 1.455 1.197 1.455.735 0 1.196-.4 1.196-1.455v-7.974c0-1.054-.461-1.455-1.196-1.455-.735 0-1.196.4-1.196 1.455v7.974zm-2.308-7.826c0-2.362 1.238-3.712 3.505-3.712s3.505 1.35 3.505 3.712v7.678c0 2.362-1.238 3.712-3.505 3.712s-3.505-1.35-3.505-3.712v-7.678zM121.883 54.675v5h1.092c.734 0 1.133-.338 1.133-1.393v-2.215c0-1.054-.399-1.392-1.133-1.392h-1.092zm4.533 1.54v1.92c0 2.362-1.133 3.649-3.441 3.649h-1.092v5.547h-2.309V52.566h3.4c2.31 0 3.442 1.287 3.442 3.65zM134.913 63.534c-.546 2.658-1.448 3.987-4.66 3.776v-2.067c1.176.084 1.848-.127 2.037-1.203l.02-.126-3.19-11.39h2.288l1.26 5.04.713 3.46.546-3.438 1.049-5.063h2.414l-2.477 11.011zM143.206 63.205c-.063 1.118-.273 1.604-.65 1.962h3.022V54.578h-1.952l-.42 8.627zm3.442 6.012v-1.983h-4.932v1.983h-2.246v-4.05h.902c.4-.506.525-1.055.567-1.92l.525-10.778h6.464v12.698h1.008v4.05h-2.288zM154.377 63.914c0 1.055.462 1.455 1.196 1.455.735 0 1.197-.4 1.197-1.455v-7.973c0-1.055-.462-1.456-1.197-1.456-.734 0-1.196.401-1.196 1.456v7.973zm-2.309-7.826c0-2.362 1.239-3.712 3.505-3.712 2.267 0 3.505 1.35 3.505 3.712v7.678c0 2.363-1.238 3.713-3.505 3.713-2.266 0-3.505-1.35-3.505-3.713v-7.678zM165.042 60.644v4.535h1.322c.777 0 1.197-.358 1.197-1.455v-1.287c0-1.371-.441-1.793-1.49-1.793h-1.029zm0-6.011v3.902h.902c.861 0 1.386-.38 1.386-1.561v-.823c0-1.054-.357-1.518-1.176-1.518h-1.112zm4.596 1.286v.528c0 1.518-.461 2.489-1.49 2.974 1.239.485 1.721 1.603 1.721 3.164v1.202c0 2.278-1.196 3.502-3.505 3.502h-3.63V52.523h3.483c2.393 0 3.421 1.118 3.421 3.396zM174.93 62.583h2.225l-1.112-7.467-1.113 7.467zm5.268 4.682h-2.33l-.398-2.678h-2.834l-.399 2.678h-2.12l2.351-14.765h3.38l2.35 14.765zM185.64 67.331h-2.31V52.566h2.31v6.328h2.623v-6.328h2.35v14.765h-2.35v-6.328h-2.623zM203.768 54.633c-.818 0-1.175.464-1.175 1.518v1.456c0 1.181.525 1.56 1.385 1.56h.902v-4.534h-1.112zm-3.757 12.656c.231-.549.252-1.076.252-1.793v-2.278c0-1.54.378-2.658 1.532-3.143-1.028-.485-1.51-1.477-1.51-2.995v-1.16c0-2.279 1.027-3.397 3.42-3.397h3.484V67.29h-2.309v-6.012h-.797c-1.05 0-1.511.506-1.511 1.877v2.32c0 1.203-.084 1.435-.21 1.815h-2.35zM129.905 38.069c.594 0 .967.035 1.12.106.151.072.227.243.227.513v.854c0 .441-.225.662-.674.662h-.673c-.39 0-.586-.214-.586-.64v-.876c0-.413.195-.62.586-.62"></path></g>
		</symbol>
	
		<symbol id="mail" viewBox="0 0 14 10">
			<title>correo</title><g fill-rule="evenodd"><path d="M13.03 1.993a.42.42 0 0 0-.24.08L7.037 6.586a.637.637 0 0 1-.404.137.654.654 0 0 1-.411-.139L.64 2.222a.48.48 0 0 0-.297-.118c-.035 0-.344.01-.344.382v6.7c0 .435.394.79.879.79h11.635c.484 0 .862-.347.862-.79V2.382c0-.379-.31-.39-.345-.39z"></path><path d="M.53.638l5.615 4.326a.76.76 0 0 0 .487.173c.25 0 .427-.128.46-.153L12.773.558l.008-.006c.077-.064.238-.199.161-.372a.281.281 0 0 0-.262-.156H.713A.355.355 0 0 0 .387.21C.351.286.32.442.521.63L.53.638z"></path></g>
		</symbol>
	
		<symbol id="menu-burger" viewBox="0 0 8 7">
			<title>menu copy</title><path d="M0 0v1h8V0H0zm0 2.97v1h8v-1H0zm0 3v1h8v-1H0z" fill-rule="nonzero"></path>
		</symbol>
	
		<symbol id="no_photo" viewBox="0 0 8 8">
			<defs><path id="290a" d="M8 0v8H0V0zM1 4l1-1 4 4h1V6L5 4l1-1 1 1V1H1z"></path></defs><use xlink:href="#290a"></use>
		</symbol>
	
		<symbol id="phone" viewBox="0 0 13 12">
			<title>phone</title><path d="M12.71 9.491l-2.008-1.857c-.4-.369-1.063-.357-1.476.026l-1.012.935-.2-.103c-.638-.327-1.513-.776-2.433-1.628-.922-.853-1.408-1.663-1.763-2.254-.037-.063-.073-.123-.109-.18l.68-.628.333-.31c.414-.383.426-.995.027-1.365L2.74.27C2.342-.1 1.68-.088 1.265.295L.7.822l.016.014A2.976 2.976 0 0 0 .04 2.369c-.265 2.033.74 3.891 3.465 6.413 3.768 3.485 6.804 3.222 6.935 3.209.285-.032.559-.095.836-.195a3.34 3.34 0 0 0 .82-.43l.012.011.574-.52c.413-.383.425-.995.026-1.366z" fill-rule="evenodd"></path>
		</symbol>
	
		<symbol id="preloader" viewBox="0 0 70 70">
			<title>preloader</title><path d="M66.61 31.917a3.168 3.168 0 0 1 3.172 3.164 3.168 3.168 0 0 1-3.172 3.164H53.922a3.168 3.168 0 0 1-3.172-3.164 3.168 3.168 0 0 1 3.172-3.164H66.61zm-50.75 0a3.168 3.168 0 0 1 3.171 3.164 3.168 3.168 0 0 1-3.171 3.164H3.172A3.168 3.168 0 0 1 0 35.08a3.168 3.168 0 0 1 3.172-3.164H15.86zM55.077 10.47a3.177 3.177 0 0 1 4.485 0 3.158 3.158 0 0 1 0 4.474l-8.971 8.95a3.164 3.164 0 0 1-2.243.926 3.165 3.165 0 0 1-2.243-5.401l8.972-8.95zM34.89 50.954c1.752 0 3.172 1.625 3.172 3.63V66.31c0 2.005-1.42 3.63-3.172 3.63-1.752 0-3.172-1.625-3.172-3.63V54.584c0-2.005 1.42-3.63 3.172-3.63zm-15.7-4.687a3.177 3.177 0 0 1 4.485 0 3.158 3.158 0 0 1 0 4.475l-8.971 8.949a3.165 3.165 0 0 1-2.243.927 3.166 3.166 0 0 1-2.243-.927 3.158 3.158 0 0 1 0-4.474l8.972-8.95zM34.89.277a3.168 3.168 0 0 1 3.172 3.164v12.656a3.168 3.168 0 0 1-3.172 3.164 3.168 3.168 0 0 1-3.172-3.164V3.44A3.168 3.168 0 0 1 34.891.277zM14.705 10.47l8.972 8.949a3.158 3.158 0 0 1 0 4.474 3.165 3.165 0 0 1-2.243.927 3.165 3.165 0 0 1-2.243-.927l-8.971-8.95a3.158 3.158 0 0 1 0-4.473 3.177 3.177 0 0 1 4.485 0z" fill-rule="nonzero"></path>
		</symbol>
	
		<symbol id="ps-logo" viewBox="0 0 107 22">
			<title>ps_logo</title><g fill-rule="evenodd"><path d="M25.127 10.318h-2.07V7.003l2.038.008c1.037 0 1.58.824 1.58 1.639 0 .7-.538 1.668-1.548 1.668zm-2.76-4.82c-.504 0-.806.298-.806.797v8.608c0 .476.282.76.755.76.464 0 .741-.284.741-.76v-3.07l2.076-.003c1.997-.01 3.076-1.666 3.076-3.22 0-1.745-1.412-3.113-3.215-3.113h-2.627zM31.532 14.158V6.242c0-.474-.282-.758-.754-.758-.465 0-.742.284-.742.758v8.402c0 .648.331 1.018.91 1.018h4.448c.473 0 .755-.283.755-.759 0-.466-.282-.745-.755-.745h-3.862zM53.482 13.54c-.477.478-1.379.813-2.194.813-2.053 0-3.128-1.909-3.128-3.793 0-1.777.975-3.688 3.115-3.688.727 0 1.722.26 2.22.762a.928.928 0 0 0 .595.236c.423 0 .742-.342.742-.797 0-.258-.116-.487-.333-.67-.895-.84-2.232-1.139-3.185-1.139-3.12 0-4.752 2.71-4.752 5.387 0 2.532 1.463 5.257 4.675 5.257 1.177 0 2.41-.438 3.22-1.148a.888.888 0 0 0 .285-.686c0-.453-.298-.758-.742-.758a.705.705 0 0 0-.518.224zM58.144 14.158V11.15h3.435c.473 0 .755-.274.755-.733 0-.483-.282-.771-.755-.771h-3.435V7.014h4.054c.472 0 .755-.279.755-.745 0-.475-.283-.759-.755-.759h-4.744c-.504 0-.805.323-.805.863V14.8c0 .559.128.862.805.862h4.847c.521 0 .832-.278.832-.746 0-.227-.081-.758-.832-.758h-4.157zM68.949 9.916l-.39-.205c-.878-.458-1.706-.89-1.706-1.455 0-.797.719-1.338 1.39-1.342h.02c.882 0 1.54.365 1.959.687l.066.043c.178.114.362.233.58.233.406 0 .737-.352.737-.784 0-.366-.249-.624-.476-.818-.202-.155-1.28-.93-2.678-.93-1.9 0-3.228 1.218-3.228 2.963 0 1.503 1.507 2.278 2.878 2.983.213.11.436.209.657.305.93.408 1.464.7 1.5 1.506.046 1.029-1.942 1.875-3.767.754-.204-.125-.412-.2-.61-.2-.453 0-.724.27-.724.72 0 .223.083.543.483.805.72.46 1.528.693 2.405.693 2.47 0 3.83-1.008 3.83-2.837 0-1.73-1.228-2.308-2.31-2.818-.21-.099-.419-.197-.616-.303zM74.13 5.553c-.504 0-.793.276-.793.759 0 .466.297.745.793.745h2.441v7.838c0 .515.287.822.768.822.464 0 .742-.307.742-.822V7.057h2.454c.481 0 .768-.279.768-.745 0-.476-.287-.76-.768-.76H74.13zM86.559 11.439H84.08l1.256-3.452 1.223 3.452zm-.224-5.107c-.18-.494-.538-.766-1.008-.766s-.828.272-1.01.769l-2.916 8.303a1.12 1.12 0 0 0-.066.347c0 .439.277.733.69.733.223 0 .63-.088.842-.679l.74-2.099h3.443l.932 2.285c.119.318.376.493.724.493.421 0 .715-.296.715-.72 0-.077-.009-.227-.07-.375l-3.016-8.291zM94.661 10.362h-2.036V7.057h2.037c1.15 0 1.58 1.005 1.58 1.639 0 .644-.43 1.666-1.58 1.666zm1.26 1.173c1.272-.514 1.855-1.813 1.855-2.878 0-1.505-1.127-3.104-3.217-3.104H92.14c-.7 0-1.012.357-1.012 1.158v8.14c0 .782.527.866.754.866.464 0 .742-.322.742-.861v-2.991h1.722l1.989 3.453a.72.72 0 0 0 .686.413c.413 0 .69-.284.69-.707 0-.187-.05-.387-.152-.591l-1.64-2.898zM99.83 5.553c-.504 0-.793.276-.793.759 0 .466.297.745.794.745h2.441v7.838c0 .515.287.822.768.822.464 0 .741-.307.741-.822V7.057h2.455c.48 0 .767-.279.767-.745 0-.476-.286-.76-.767-.76h-6.405zM42.688 11.406H40.21l1.256-3.451 1.222 3.451zM42.465 6.3c-.18-.494-.538-.766-1.009-.766-.47 0-.828.272-1.01.769l-2.915 8.302a1.101 1.101 0 0 0-.066.348c0 .438.277.732.69.732.223 0 .63-.088.842-.678l.74-2.1h3.443l.932 2.286c.118.317.375.492.724.492.42 0 .715-.296.715-.72 0-.076-.01-.226-.07-.374L42.464 6.3zM8.615 16.457c-.559-.006-1.719-.222-2.618-.424a.888.888 0 0 0-.814.234l-3.851 3.804C1.33 15.56 1.329 9.182 1.33 9.018c.045-4.038 3.34-7.323 7.343-7.323h.05c1.942.013 3.778.803 5.168 2.223 1.386 1.414 2.14 3.263 2.123 5.206-.035 3.974-3.393 7.333-7.333 7.333h-.066zM8.73.358h-.057C3.944.358.053 4.237.001 9.002c-.002.197 0 7.684 0 10.882v1.218c0 .254.102.488.285.659a.891.891 0 0 0 1.245-.015l4.413-4.356c.715.154 1.953.397 2.66.404h.077c4.654 0 8.621-3.966 8.662-8.66.02-2.298-.869-4.485-2.504-6.155C13.199 1.305 11.029.374 8.73.36z"></path><path d="M10.01 5.627a.671.671 0 0 0-.454.837c.05.173.165.315.323.401A2.545 2.545 0 0 1 11.2 9.1a2.538 2.538 0 0 1-2.53 2.542A2.538 2.538 0 0 1 6.144 9.1c0-.875.44-1.679 1.177-2.148a.68.68 0 0 0 .207-.93.666.666 0 0 0-.925-.21 3.879 3.879 0 0 0-1.8 3.288c0 2.146 1.736 3.891 3.87 3.891 2.134 0 3.87-1.745 3.87-3.89a3.893 3.893 0 0 0-2.022-3.42.66.66 0 0 0-.51-.054z"></path><path d="M7.92 5.418v2.86c0 .371.3.674.67.674.37 0 .671-.303.671-.675v-2.86c0-.371-.3-.674-.67-.674-.37 0-.67.303-.67.675z"></path></g>
		</symbol>
	
		<symbol id="search" viewBox="0 0 15 16">
			<title>Shape</title><path d="M14.508 13.898l-3.632-3.777a6.14 6.14 0 0 0 1.445-3.96A6.168 6.168 0 0 0 6.161 0 6.168 6.168 0 0 0 0 6.16a6.168 6.168 0 0 0 6.16 6.161c1.276 0 2.491-.384 3.53-1.114l3.66 3.805a.797.797 0 0 0 .579.247.805.805 0 0 0 .58-1.36zM6.16 1.608a4.559 4.559 0 0 1 4.553 4.553 4.559 4.559 0 0 1-4.553 4.553 4.559 4.559 0 0 1-4.554-4.553 4.559 4.559 0 0 1 4.554-4.554z" fill-rule="nonzero"></path>
		</symbol>
	
		<symbol id="slider-arrow" viewBox="0 0 12 20">
			<title>icon-next</title><path d="M6.95 10L.759 16.19a1.743 1.743 0 0 0 .004 2.472 1.755 1.755 0 0 0 2.47.004l7.433-7.432c.34-.34.51-.785.511-1.23a1.77 1.77 0 0 0-.511-1.238L3.234 1.334a1.743 1.743 0 0 0-2.471.004 1.755 1.755 0 0 0-.004 2.471L6.949 10z" fill-rule="evenodd"></path>
		</symbol>
	
		<symbol id="small-arrow" viewBox="0 0 6 9">
			<title>arrow slider</title><path d="M1.636 9L6 4.636 1.636.273 0 1.909l2.727 2.727L0 7.364z" fill-rule="nonzero"></path>
		</symbol>
	
		<symbol id="user" viewBox="0 0 11 11">
			<title>user</title><path d="M5.5 0C3.987 0 2.75 1.54 2.75 3.438c0 1.897 1.237 3.437 2.75 3.437s2.75-1.54 2.75-3.438C8.25 1.54 7.013 0 5.5 0zM2.626 6.875A2.753 2.753 0 0 0 0 9.625V11h11V9.625a2.743 2.743 0 0 0-2.626-2.75C7.63 7.714 6.614 8.25 5.5 8.25s-2.131-.536-2.874-1.375z" fill-rule="nonzero"></path>
		</symbol>
	
		<symbol id="wallet" viewBox="0 0 26 19">
			<title>wallet</title><g fill-rule="nonzero"><path d="M1.582 18.988h21.09c.873 0 1.582-.702 1.582-1.566V13.89h-7.57a4.2 4.2 0 0 1-1.64-.33 4.187 4.187 0 0 1-1.337-.892 4.139 4.139 0 0 1-1.234-2.946v-.442a4.14 4.14 0 0 1 1.234-2.947 4.187 4.187 0 0 1 1.337-.892 4.248 4.248 0 0 1 1.64-.329h7.57V1.578c0-.864-.709-1.566-1.582-1.566H1.582C.71.012 0 .714 0 1.578v15.844c0 .864.71 1.566 1.582 1.566z"></path><path d="M26 7.852c0-.65-.53-1.175-1.187-1.175h-8.129c-1.453 0-2.63 1.164-2.63 2.602v.442c0 1.438 1.177 2.602 2.63 2.602h8.13c.656 0 1.186-.525 1.186-1.175V7.852zm-8.886 3.03a1.39 1.39 0 0 1-1.398-1.383 1.39 1.39 0 0 1 1.398-1.384A1.39 1.39 0 0 1 18.51 9.5a1.39 1.39 0 0 1-1.397 1.383z"></path></g>
		</symbol>
	
</svg>
